<svg width="317" height="211" viewBox="0 0 317 211" fill="none" xmlns="http://www.w3.org/2000/svg">
<g filter="url(#filter0_d_389_132)">
<rect x="15.998" y="16" width="285.006" height="178.856" rx="13.087" fill="white"/>
</g>
<path d="M141.469 157.689H135.961L134.809 161H132.24L137.611 146.781H139.828L145.209 161H142.631L141.469 157.689ZM136.654 155.697H140.775L138.715 149.799L136.654 155.697ZM157.514 159.154C156.999 159.825 156.286 160.333 155.375 160.678C154.464 161.023 153.428 161.195 152.27 161.195C151.078 161.195 150.023 160.925 149.105 160.385C148.188 159.844 147.478 159.073 146.977 158.07C146.482 157.061 146.225 155.886 146.205 154.545V153.432C146.205 151.283 146.719 149.607 147.748 148.402C148.777 147.191 150.212 146.586 152.055 146.586C153.637 146.586 154.893 146.977 155.824 147.758C156.755 148.539 157.315 149.665 157.504 151.137H155.082C154.809 149.424 153.816 148.568 152.104 148.568C150.997 148.568 150.154 148.969 149.574 149.77C149.001 150.564 148.705 151.732 148.686 153.275V154.369C148.686 155.906 149.008 157.1 149.652 157.953C150.303 158.799 151.205 159.223 152.357 159.223C153.62 159.223 154.519 158.936 155.053 158.363V155.58H152.123V153.705H157.514V159.154ZM170.629 146.781V156.283C170.629 157.794 170.144 158.992 169.174 159.877C168.21 160.756 166.924 161.195 165.316 161.195C163.689 161.195 162.396 160.762 161.439 159.896C160.482 159.024 160.004 157.816 160.004 156.273V146.781H162.465V156.293C162.465 157.243 162.706 157.969 163.188 158.471C163.669 158.972 164.379 159.223 165.316 159.223C167.217 159.223 168.168 158.22 168.168 156.215V146.781H170.629ZM181.02 157.689H175.512L174.359 161H171.791L177.162 146.781H179.379L184.76 161H182.182L181.02 157.689ZM176.205 155.697H180.326L178.266 149.799L176.205 155.697Z" fill="#424242"/>
<g clip-path="url(#clip0_389_132)">
<path d="M130.667 88.6666V110.333C130.667 111.217 130.316 112.065 129.691 112.69C129.066 113.315 128.218 113.667 127.334 113.667H120.667V85.3333H127.334C128.218 85.3333 129.066 85.6844 129.691 86.3096C130.316 86.9347 130.667 87.7825 130.667 88.6666Z" fill="#BFBFBF"/>
<path d="M198.267 95.6336C197.868 94.8525 197.32 94.1578 196.652 93.5892C195.985 93.0205 195.211 92.5892 194.377 92.3198C193.542 92.0504 192.663 91.9483 191.789 92.0193C190.915 92.0903 190.064 92.333 189.284 92.7336L170.667 102.25C170.717 100.944 170.382 99.6521 169.703 98.5349C169.024 97.4178 168.032 96.5247 166.85 95.9669L149 87.5502C143.267 84.8669 139.15 85.8836 132.017 86.8169C131.644 85.8813 130.998 85.0799 130.162 84.5179C129.327 83.9558 128.341 83.6592 127.334 83.6669H120.667C120.225 83.6669 119.801 83.8425 119.488 84.155C119.176 84.4676 119 84.8915 119 85.3336V113.667C119 114.109 119.176 114.533 119.488 114.845C119.801 115.158 120.225 115.334 120.667 115.334H127.334C128.365 115.331 129.371 115.009 130.212 114.412C131.053 113.815 131.69 112.973 132.034 112C138.25 112 135.15 111.184 151.717 118.667C154.38 119.828 157.263 120.395 160.168 120.329C163.072 120.263 165.927 119.565 168.534 118.284L195.384 104.567C196.945 103.759 198.124 102.367 198.664 100.694C199.204 99.0206 199.061 97.2019 198.267 95.6336V95.6336ZM129 110.334C129 110.776 128.825 111.2 128.512 111.512C128.2 111.825 127.776 112 127.334 112H122.334V87.0002H127.334C127.776 87.0002 128.2 87.1758 128.512 87.4884C128.825 87.8009 129 88.2249 129 88.6669V110.334ZM193.867 101.634L167.017 115.334C164.857 116.386 162.495 116.96 160.093 117.014C157.691 117.069 155.306 116.604 153.1 115.65C136.217 108 139 108.667 132.334 108.667V90.1336L139.3 89.2669C142.114 88.9133 144.97 89.3701 147.534 90.5836L165.417 98.9169C165.816 99.1044 166.173 99.3691 166.469 99.6957C166.765 100.022 166.993 100.404 167.141 100.82C167.288 101.235 167.351 101.676 167.327 102.116C167.303 102.556 167.192 102.987 167 103.384C166.778 103.893 166.413 104.327 165.95 104.634V104.634C165.472 104.976 164.912 105.185 164.326 105.241C163.741 105.296 163.151 105.196 162.617 104.95L149.434 98.8336C149.235 98.7204 149.014 98.6494 148.787 98.625C148.559 98.6007 148.329 98.6235 148.111 98.692C147.892 98.7605 147.69 98.8732 147.517 99.0232C147.345 99.1732 147.204 99.3572 147.106 99.5637C147.007 99.7703 146.952 99.9949 146.944 100.224C146.936 100.452 146.975 100.68 147.059 100.893C147.143 101.106 147.27 101.3 147.432 101.461C147.594 101.623 147.787 101.75 148 101.834L161.15 108.017C162.189 108.519 163.342 108.738 164.493 108.65C165.643 108.562 166.75 108.171 167.7 107.517L190.8 95.7002C191.19 95.4989 191.615 95.3762 192.052 95.3393C192.489 95.3023 192.929 95.3518 193.347 95.4849C193.765 95.618 194.153 95.8321 194.488 96.115C194.823 96.3979 195.099 96.744 195.3 97.1336C195.502 97.5232 195.624 97.9486 195.661 98.3856C195.698 98.8226 195.649 99.2626 195.516 99.6804C195.382 100.098 195.168 100.486 194.885 100.821C194.603 101.156 194.256 101.432 193.867 101.634V101.634Z" fill="#424242"/>
<g clip-path="url(#clip1_389_132)">
<path d="M171.5 85.3339C181.136 85.3339 189 77.699 189 68.3445C189 57.6831 173.13 42.9636 172.421 42.3445C171.925 41.863 171.075 41.863 170.579 42.3445C169.871 42.9636 154 57.7519 154 68.3445C154 77.699 161.865 85.3339 171.5 85.3339Z" fill="#FF7000"/>
<path d="M171.5 62.0001C172.867 62.0092 174.187 62.4301 175.229 63.1893C176.271 63.9484 176.969 64.9976 177.201 66.1532C177.432 67.3089 177.183 68.4976 176.496 69.5115C175.809 70.5255 174.729 71.3001 173.444 71.7001V72.0001C173.444 72.4421 173.239 72.866 172.874 73.1786C172.51 73.4912 172.016 73.6667 171.5 73.6667C170.985 73.6667 170.491 73.4912 170.126 73.1786C169.762 72.866 169.557 72.4421 169.557 72.0001V71.7001C165.263 70.3334 164.388 65.3334 167.614 65.3334C168.129 65.3334 168.624 65.509 168.988 65.8216C169.352 66.1341 169.557 66.5581 169.557 67.0001C169.557 67.3297 169.671 67.652 169.885 67.926C170.098 68.2001 170.402 68.4137 170.757 68.5399C171.112 68.666 171.502 68.699 171.879 68.6347C172.256 68.5704 172.603 68.4117 172.874 68.1786C173.146 67.9455 173.331 67.6485 173.406 67.3252C173.481 67.0019 173.443 66.6668 173.296 66.3623C173.149 66.0577 172.899 65.7974 172.58 65.6143C172.26 65.4312 171.885 65.3334 171.5 65.3334C170.133 65.3243 168.813 64.9034 167.771 64.1442C166.729 63.3851 166.032 62.3359 165.8 61.1803C165.569 60.0246 165.818 58.8359 166.505 57.822C167.192 56.808 168.272 56.0334 169.557 55.6334V55.3334C169.557 54.8914 169.762 54.4675 170.126 54.1549C170.491 53.8423 170.985 53.6667 171.5 53.6667C172.016 53.6667 172.51 53.8423 172.874 54.1549C173.239 54.4675 173.444 54.8914 173.444 55.3334V55.6334C177.738 57.0001 178.612 62.0001 175.387 62.0001C174.871 62.0001 174.377 61.8245 174.013 61.5119C173.648 61.1994 173.444 60.7754 173.444 60.3334C173.444 60.0038 173.33 59.6815 173.116 59.4075C172.903 59.1334 172.599 58.9198 172.244 58.7936C171.889 58.6675 171.498 58.6345 171.121 58.6988C170.744 58.7631 170.398 58.9218 170.126 59.1549C169.855 59.388 169.669 59.685 169.594 60.0083C169.519 60.3316 169.558 60.6667 169.705 60.9712C169.852 61.2758 170.101 61.5361 170.421 61.7192C170.74 61.9023 171.116 62.0001 171.5 62.0001Z" fill="white"/>
</g>
</g>
<defs>
<filter id="filter0_d_389_132" x="0.00283337" y="0.00478649" width="316.996" height="210.846" filterUnits="userSpaceOnUse" color-interpolation-filters="sRGB">
<feFlood flood-opacity="0" result="BackgroundImageFix"/>
<feColorMatrix in="SourceAlpha" type="matrix" values="0 0 0 0 0 0 0 0 0 0 0 0 0 0 0 0 0 0 127 0" result="hardAlpha"/>
<feOffset/>
<feGaussianBlur stdDeviation="7.99761"/>
<feColorMatrix type="matrix" values="0 0 0 0 0 0 0 0 0 0 0 0 0 0 0 0 0 0 0.25 0"/>
<feBlend mode="normal" in2="BackgroundImageFix" result="effect1_dropShadow_389_132"/>
<feBlend mode="normal" in="SourceGraphic" in2="effect1_dropShadow_389_132" result="shape"/>
</filter>
<clipPath id="clip0_389_132">
<rect width="80" height="80" fill="white" transform="translate(119 42)"/>
</clipPath>
<clipPath id="clip1_389_132">
<rect width="35" height="43.3333" fill="white" transform="translate(154 42)"/>
</clipPath>
</defs>
</svg>
