<svg width="317" height="212" viewBox="0 0 317 212" fill="none" xmlns="http://www.w3.org/2000/svg">
<g filter="url(#filter0_d_430_15)">
<rect x="16" y="16.5669" width="285.006" height="178.856" rx="13.087" fill="white"/>
</g>
<path d="M102.067 147.284V152.567H99.5964V138.348H105.036C106.624 138.348 107.884 138.762 108.815 139.588C109.753 140.415 110.221 141.509 110.221 142.87C110.221 144.263 109.762 145.347 108.844 146.122C107.933 146.896 106.654 147.284 105.007 147.284H102.067ZM102.067 145.301H105.036C105.915 145.301 106.585 145.096 107.048 144.686C107.51 144.269 107.741 143.67 107.741 142.889C107.741 142.121 107.507 141.509 107.038 141.053C106.569 140.591 105.925 140.353 105.104 140.34H102.067V145.301ZM117.614 147.088H114.86V152.567H112.389V138.348H117.389C119.03 138.348 120.296 138.716 121.188 139.452C122.08 140.187 122.526 141.252 122.526 142.645C122.526 143.596 122.295 144.393 121.833 145.038C121.377 145.676 120.739 146.167 119.919 146.512L123.112 152.44V152.567H120.466L117.614 147.088ZM114.86 145.106H117.399C118.233 145.106 118.884 144.898 119.352 144.481C119.821 144.058 120.055 143.482 120.055 142.752C120.055 141.991 119.837 141.402 119.401 140.985C118.971 140.568 118.327 140.353 117.468 140.34H114.86V145.106ZM136.218 145.829C136.218 147.222 135.977 148.446 135.495 149.5C135.013 150.549 134.323 151.356 133.425 151.922C132.533 152.482 131.504 152.762 130.339 152.762C129.186 152.762 128.158 152.482 127.253 151.922C126.354 151.356 125.658 150.552 125.163 149.51C124.675 148.469 124.427 147.267 124.421 145.907V145.106C124.421 143.719 124.665 142.495 125.153 141.434C125.648 140.373 126.341 139.562 127.233 139.002C128.132 138.436 129.16 138.153 130.319 138.153C131.478 138.153 132.503 138.433 133.395 138.993C134.294 139.546 134.987 140.347 135.475 141.395C135.964 142.437 136.211 143.651 136.218 145.038V145.829ZM133.747 145.086C133.747 143.511 133.447 142.303 132.848 141.463C132.256 140.624 131.413 140.204 130.319 140.204C129.251 140.204 128.415 140.624 127.809 141.463C127.21 142.297 126.904 143.478 126.891 145.008V145.829C126.891 147.391 127.194 148.599 127.8 149.452C128.412 150.305 129.258 150.731 130.339 150.731C131.432 150.731 132.272 150.314 132.858 149.481C133.451 148.648 133.747 147.43 133.747 145.829V145.086ZM138.678 152.567V138.348H142.878C144.134 138.348 145.247 138.628 146.218 139.188C147.194 139.748 147.949 140.542 148.483 141.571C149.017 142.599 149.284 143.778 149.284 145.106V145.819C149.284 147.167 149.014 148.351 148.473 149.374C147.94 150.396 147.175 151.183 146.178 151.737C145.189 152.29 144.053 152.567 142.77 152.567H138.678ZM141.149 140.34V150.594H142.76C144.056 150.594 145.049 150.191 145.739 149.383C146.436 148.569 146.79 147.404 146.803 145.887V145.096C146.803 143.553 146.468 142.375 145.798 141.561C145.127 140.747 144.154 140.34 142.878 140.34H141.149ZM162.145 138.348V147.85C162.145 149.361 161.66 150.558 160.69 151.444C159.727 152.323 158.441 152.762 156.833 152.762C155.205 152.762 153.913 152.329 152.956 151.463C151.999 150.591 151.52 149.383 151.52 147.84V138.348H153.981V147.86C153.981 148.81 154.222 149.536 154.704 150.038C155.186 150.539 155.895 150.79 156.833 150.79C158.734 150.79 159.684 149.787 159.684 147.782V138.348H162.145ZM175.641 147.938C175.498 149.455 174.938 150.64 173.962 151.493C172.985 152.339 171.686 152.762 170.065 152.762C168.932 152.762 167.933 152.495 167.067 151.961C166.208 151.421 165.544 150.656 165.075 149.667C164.606 148.677 164.362 147.528 164.343 146.219V144.891C164.343 143.55 164.58 142.368 165.055 141.346C165.531 140.324 166.211 139.536 167.096 138.983C167.988 138.43 169.017 138.153 170.182 138.153C171.751 138.153 173.014 138.579 173.971 139.432C174.928 140.285 175.485 141.489 175.641 143.045H173.18C173.063 142.023 172.764 141.288 172.282 140.838C171.807 140.383 171.107 140.155 170.182 140.155C169.108 140.155 168.281 140.549 167.702 141.336C167.129 142.118 166.836 143.267 166.823 144.784V146.043C166.823 147.58 167.096 148.752 167.643 149.559C168.197 150.366 169.004 150.77 170.065 150.77C171.035 150.77 171.764 150.552 172.253 150.116C172.741 149.68 173.05 148.954 173.18 147.938H175.641ZM187.839 140.34H183.405V152.567H180.954V140.34H176.559V138.348H187.839V140.34ZM200.788 145.829C200.788 147.222 200.547 148.446 200.065 149.5C199.583 150.549 198.893 151.356 197.995 151.922C197.103 152.482 196.074 152.762 194.909 152.762C193.757 152.762 192.728 152.482 191.823 151.922C190.925 151.356 190.228 150.552 189.733 149.51C189.245 148.469 188.997 147.267 188.991 145.907V145.106C188.991 143.719 189.235 142.495 189.723 141.434C190.218 140.373 190.912 139.562 191.803 139.002C192.702 138.436 193.731 138.153 194.889 138.153C196.048 138.153 197.074 138.433 197.966 138.993C198.864 139.546 199.557 140.347 200.046 141.395C200.534 142.437 200.781 143.651 200.788 145.038V145.829ZM198.317 145.086C198.317 143.511 198.018 142.303 197.419 141.463C196.826 140.624 195.983 140.204 194.889 140.204C193.822 140.204 192.985 140.624 192.38 141.463C191.781 142.297 191.475 143.478 191.462 145.008V145.829C191.462 147.391 191.764 148.599 192.37 149.452C192.982 150.305 193.828 150.731 194.909 150.731C196.003 150.731 196.843 150.314 197.428 149.481C198.021 148.648 198.317 147.43 198.317 145.829V145.086ZM210.68 148.905C210.68 148.28 210.459 147.798 210.016 147.459C209.58 147.121 208.789 146.779 207.643 146.434C206.497 146.089 205.586 145.705 204.909 145.282C203.613 144.468 202.966 143.407 202.966 142.098C202.966 140.952 203.431 140.008 204.362 139.266C205.3 138.524 206.514 138.153 208.005 138.153C208.994 138.153 209.876 138.335 210.651 138.7C211.426 139.064 212.035 139.585 212.477 140.262C212.92 140.933 213.141 141.678 213.141 142.499H210.68C210.68 141.756 210.446 141.177 209.977 140.76C209.515 140.337 208.851 140.125 207.985 140.125C207.178 140.125 206.55 140.298 206.1 140.643C205.658 140.988 205.436 141.47 205.436 142.088C205.436 142.609 205.677 143.045 206.159 143.397C206.641 143.742 207.435 144.081 208.542 144.413C209.649 144.738 210.537 145.112 211.208 145.536C211.878 145.952 212.37 146.434 212.682 146.981C212.995 147.521 213.151 148.156 213.151 148.885C213.151 150.07 212.695 151.014 211.784 151.717C210.879 152.414 209.649 152.762 208.093 152.762C207.064 152.762 206.117 152.573 205.251 152.196C204.391 151.812 203.721 151.284 203.239 150.614C202.764 149.943 202.526 149.162 202.526 148.27H204.997C204.997 149.077 205.264 149.702 205.798 150.145C206.331 150.588 207.096 150.809 208.093 150.809C208.952 150.809 209.596 150.637 210.026 150.292C210.462 149.94 210.68 149.478 210.68 148.905ZM89.9187 165.284V170.567H87.448V156.348H92.8875C94.476 156.348 95.7358 156.762 96.6667 157.588C97.6042 158.415 98.073 159.509 98.073 160.87C98.073 162.263 97.614 163.347 96.696 164.122C95.7846 164.896 94.5053 165.284 92.8582 165.284H89.9187ZM89.9187 163.301H92.8875C93.7664 163.301 94.4369 163.096 94.8992 162.686C95.3614 162.269 95.5925 161.67 95.5925 160.889C95.5925 160.121 95.3582 159.509 94.8894 159.053C94.4207 158.591 93.7761 158.353 92.9558 158.34H89.9187V163.301ZM111.589 163.829C111.589 165.222 111.348 166.446 110.866 167.5C110.384 168.549 109.694 169.356 108.796 169.922C107.904 170.482 106.875 170.762 105.71 170.762C104.557 170.762 103.529 170.482 102.624 169.922C101.725 169.356 101.029 168.552 100.534 167.51C100.046 166.469 99.7983 165.267 99.7917 163.907V163.106C99.7917 161.719 100.036 160.495 100.524 159.434C101.019 158.373 101.712 157.562 102.604 157.002C103.503 156.436 104.531 156.153 105.69 156.153C106.849 156.153 107.874 156.433 108.766 156.993C109.665 157.546 110.358 158.347 110.846 159.395C111.335 160.437 111.582 161.651 111.589 163.038V163.829ZM109.118 163.086C109.118 161.511 108.818 160.303 108.219 159.463C107.627 158.624 106.784 158.204 105.69 158.204C104.622 158.204 103.786 158.624 103.18 159.463C102.581 160.297 102.275 161.478 102.262 163.008V163.829C102.262 165.391 102.565 166.599 103.171 167.452C103.783 168.305 104.629 168.731 105.71 168.731C106.803 168.731 107.643 168.314 108.229 167.481C108.822 166.648 109.118 165.43 109.118 163.829V163.086ZM119.274 165.088H116.52V170.567H114.05V156.348H119.05C120.69 156.348 121.956 156.716 122.848 157.452C123.74 158.187 124.186 159.252 124.186 160.645C124.186 161.596 123.955 162.393 123.493 163.038C123.037 163.676 122.399 164.167 121.579 164.512L124.772 170.44V170.567H122.126L119.274 165.088ZM116.52 163.106H119.059C119.893 163.106 120.544 162.898 121.012 162.481C121.481 162.058 121.716 161.482 121.716 160.752C121.716 159.991 121.497 159.402 121.061 158.985C120.632 158.568 119.987 158.353 119.128 158.34H116.52V163.106ZM142.36 165.938C142.217 167.455 141.657 168.64 140.68 169.493C139.704 170.339 138.405 170.762 136.784 170.762C135.651 170.762 134.652 170.495 133.786 169.961C132.927 169.421 132.262 168.656 131.794 167.667C131.325 166.677 131.081 165.528 131.061 164.219V162.891C131.061 161.55 131.299 160.368 131.774 159.346C132.249 158.324 132.93 157.536 133.815 156.983C134.707 156.43 135.736 156.153 136.901 156.153C138.47 156.153 139.733 156.579 140.69 157.432C141.647 158.285 142.204 159.489 142.36 161.045H139.899C139.782 160.023 139.483 159.288 139.001 158.838C138.525 158.383 137.826 158.155 136.901 158.155C135.827 158.155 135 158.549 134.421 159.336C133.848 160.118 133.555 161.267 133.542 162.784V164.043C133.542 165.58 133.815 166.752 134.362 167.559C134.915 168.366 135.723 168.77 136.784 168.77C137.754 168.77 138.483 168.552 138.971 168.116C139.46 167.68 139.769 166.954 139.899 165.938H142.36ZM152.536 167.256H147.028L145.876 170.567H143.307L148.678 156.348H150.895L156.276 170.567H153.698L152.536 167.256ZM147.721 165.264H151.843L149.782 159.366L147.721 165.264ZM166.999 158.34H162.565V170.567H160.114V158.34H155.719V156.348H166.999V158.34ZM175.661 167.256H170.153L169.001 170.567H166.432L171.803 156.348H174.02L179.401 170.567H176.823L175.661 167.256ZM170.846 165.264H174.968L172.907 159.366L170.846 165.264ZM173.649 152.54H176.354L173.649 155.499H171.745L173.649 152.54ZM183.493 168.594H189.948V170.567H181.022V156.348H183.493V168.594ZM202.565 163.829C202.565 165.222 202.324 166.446 201.843 167.5C201.361 168.549 200.671 169.356 199.772 169.922C198.88 170.482 197.852 170.762 196.686 170.762C195.534 170.762 194.505 170.482 193.6 169.922C192.702 169.356 192.005 168.552 191.51 167.51C191.022 166.469 190.775 165.267 190.768 163.907V163.106C190.768 161.719 191.012 160.495 191.501 159.434C191.996 158.373 192.689 157.562 193.581 157.002C194.479 156.436 195.508 156.153 196.667 156.153C197.826 156.153 198.851 156.433 199.743 156.993C200.641 157.546 201.335 158.347 201.823 159.395C202.311 160.437 202.559 161.651 202.565 163.038V163.829ZM200.094 163.086C200.094 161.511 199.795 160.303 199.196 159.463C198.604 158.624 197.76 158.204 196.667 158.204C195.599 158.204 194.762 158.624 194.157 159.463C193.558 160.297 193.252 161.478 193.239 163.008V163.829C193.239 165.391 193.542 166.599 194.147 167.452C194.759 168.305 195.606 168.731 196.686 168.731C197.78 168.731 198.62 168.314 199.206 167.481C199.798 166.648 200.094 165.43 200.094 163.829V163.086ZM215.925 168.721C215.41 169.392 214.697 169.9 213.786 170.245C212.874 170.59 211.839 170.762 210.68 170.762C209.489 170.762 208.434 170.492 207.516 169.952C206.598 169.411 205.889 168.64 205.387 167.637C204.893 166.628 204.635 165.453 204.616 164.112V162.999C204.616 160.85 205.13 159.174 206.159 157.969C207.188 156.758 208.623 156.153 210.466 156.153C212.048 156.153 213.304 156.543 214.235 157.325C215.166 158.106 215.726 159.232 215.915 160.704H213.493C213.219 158.991 212.227 158.135 210.514 158.135C209.408 158.135 208.565 158.536 207.985 159.336C207.412 160.131 207.116 161.299 207.096 162.842V163.936C207.096 165.472 207.419 166.667 208.063 167.52C208.714 168.366 209.616 168.79 210.768 168.79C212.031 168.79 212.93 168.503 213.464 167.93V165.147H210.534V163.272H215.925V168.721ZM229.987 163.829C229.987 165.222 229.746 166.446 229.264 167.5C228.783 168.549 228.093 169.356 227.194 169.922C226.302 170.482 225.274 170.762 224.108 170.762C222.956 170.762 221.927 170.482 221.022 169.922C220.124 169.356 219.427 168.552 218.932 167.51C218.444 166.469 218.197 165.267 218.19 163.907V163.106C218.19 161.719 218.434 160.495 218.923 159.434C219.417 158.373 220.111 157.562 221.003 157.002C221.901 156.436 222.93 156.153 224.089 156.153C225.247 156.153 226.273 156.433 227.165 156.993C228.063 157.546 228.757 158.347 229.245 159.395C229.733 160.437 229.981 161.651 229.987 163.038V163.829ZM227.516 163.086C227.516 161.511 227.217 160.303 226.618 159.463C226.025 158.624 225.182 158.204 224.089 158.204C223.021 158.204 222.184 158.624 221.579 159.463C220.98 160.297 220.674 161.478 220.661 163.008V163.829C220.661 165.391 220.964 166.599 221.569 167.452C222.181 168.305 223.027 168.731 224.108 168.731C225.202 168.731 226.042 168.314 226.628 167.481C227.22 166.648 227.516 165.43 227.516 163.829V163.086Z" fill="#424242"/>
<g clip-path="url(#clip0_430_15)">
<path d="M179.003 54.2334V48.6667C179.003 47.491 178.536 46.3633 177.704 45.5319C176.873 44.7005 175.745 44.2334 174.569 44.2334C173.753 44.2334 176.886 43.4834 135.669 54.2334H179.003Z" fill="#BFBFBF"/>
<path d="M140.669 54.2335V120.9H135.669C134.785 120.9 133.937 120.549 133.312 119.924C132.687 119.299 132.336 118.451 132.336 117.567V57.5669C132.336 56.6828 132.687 55.835 133.312 55.2098C133.937 54.5847 134.785 54.2335 135.669 54.2335H140.669Z" fill="#FF7000"/>
<path d="M182.336 52.5668H180.669V48.6668C180.669 47.7354 180.455 46.8166 180.044 45.9807C179.633 45.1448 179.037 44.4141 178.3 43.8445C177.563 43.275 176.705 42.8817 175.793 42.6949C174.881 42.5081 173.938 42.5327 173.036 42.7668L135.319 52.5668C134.055 52.6555 132.871 53.2212 132.008 54.1495C131.145 55.0777 130.666 56.2992 130.669 57.5668V117.567C130.669 118.893 131.196 120.165 132.134 121.102C133.072 122.04 134.343 122.567 135.669 122.567H182.336C183.662 122.567 184.934 122.04 185.872 121.102C186.809 120.165 187.336 118.893 187.336 117.567V57.5668C187.336 56.2407 186.809 54.9689 185.872 54.0312C184.934 53.0936 183.662 52.5668 182.336 52.5668ZM173.869 45.9834C174.279 45.8763 174.708 45.8646 175.123 45.9494C175.538 46.0341 175.928 46.213 176.263 46.4723C176.598 46.7315 176.869 47.0642 177.055 47.4447C177.241 47.8251 177.337 48.2432 177.336 48.6668V52.5668H148.669L173.869 45.9834ZM184.003 117.567C184.003 118.009 183.827 118.433 183.515 118.745C183.202 119.058 182.778 119.233 182.336 119.233H135.669C135.227 119.233 134.803 119.058 134.491 118.745C134.178 118.433 134.003 118.009 134.003 117.567V57.5668C134.003 57.1248 134.178 56.7008 134.491 56.3883C134.803 56.0757 135.227 55.9001 135.669 55.9001C155.836 55.9001 99.9861 55.9001 182.336 55.9001C182.778 55.9001 183.202 56.0757 183.515 56.3883C183.827 56.7008 184.003 57.1248 184.003 57.5668V117.567Z" fill="#424242"/>
<path d="M175.669 114.234H149.003C148.561 114.234 148.137 114.058 147.824 113.745C147.512 113.433 147.336 113.009 147.336 112.567C147.336 112.125 147.512 111.701 147.824 111.388C148.137 111.076 148.561 110.9 149.003 110.9H175.669C176.111 110.9 176.535 111.076 176.848 111.388C177.16 111.701 177.336 112.125 177.336 112.567C177.336 113.009 177.16 113.433 176.848 113.745C176.535 114.058 176.111 114.234 175.669 114.234Z" fill="#424242"/>
<path d="M175.669 107.567H149.003C148.561 107.567 148.137 107.391 147.824 107.079C147.512 106.766 147.336 106.342 147.336 105.9C147.336 105.458 147.512 105.034 147.824 104.722C148.137 104.409 148.561 104.234 149.003 104.234H175.669C176.111 104.234 176.535 104.409 176.848 104.722C177.16 105.034 177.336 105.458 177.336 105.9C177.336 106.342 177.16 106.766 176.848 107.079C176.535 107.391 176.111 107.567 175.669 107.567Z" fill="#424242"/>
<path d="M162.336 100.9C163.257 100.9 164.003 100.154 164.003 99.2336C164.003 98.3131 163.257 97.5669 162.336 97.5669C161.416 97.5669 160.669 98.3131 160.669 99.2336C160.669 100.154 161.416 100.9 162.336 100.9Z" fill="#BFBFBF"/>
<path d="M162.336 100.9C163.257 100.9 164.003 100.154 164.003 99.2336C164.003 98.3131 163.257 97.5669 162.336 97.5669C161.416 97.5669 160.669 98.3131 160.669 99.2336C160.669 100.154 161.416 100.9 162.336 100.9Z" fill="#BFBFBF"/>
<path d="M169.003 100.9C169.923 100.9 170.669 100.154 170.669 99.2336C170.669 98.3131 169.923 97.5669 169.003 97.5669C168.082 97.5669 167.336 98.3131 167.336 99.2336C167.336 100.154 168.082 100.9 169.003 100.9Z" fill="#BFBFBF"/>
<path d="M155.669 100.9C156.59 100.9 157.336 100.154 157.336 99.2336C157.336 98.3131 156.59 97.5669 155.669 97.5669C154.749 97.5669 154.003 98.3131 154.003 99.2336C154.003 100.154 154.749 100.9 155.669 100.9Z" fill="#BFBFBF"/>
</g>
<defs>
<filter id="filter0_d_430_15" x="0.00478649" y="0.571681" width="316.996" height="210.846" filterUnits="userSpaceOnUse" color-interpolation-filters="sRGB">
<feFlood flood-opacity="0" result="BackgroundImageFix"/>
<feColorMatrix in="SourceAlpha" type="matrix" values="0 0 0 0 0 0 0 0 0 0 0 0 0 0 0 0 0 0 127 0" result="hardAlpha"/>
<feOffset/>
<feGaussianBlur stdDeviation="7.99761"/>
<feColorMatrix type="matrix" values="0 0 0 0 0 0 0 0 0 0 0 0 0 0 0 0 0 0 0.25 0"/>
<feBlend mode="normal" in2="BackgroundImageFix" result="effect1_dropShadow_430_15"/>
<feBlend mode="normal" in="SourceGraphic" in2="effect1_dropShadow_430_15" result="shape"/>
</filter>
<clipPath id="clip0_430_15">
<rect width="80" height="80" fill="white" transform="translate(119.003 42.5669)"/>
</clipPath>
</defs>
</svg>
