<svg width="317" height="212" viewBox="0 0 317 212" fill="none" xmlns="http://www.w3.org/2000/svg">
<g filter="url(#filter0_d_389_141)">
<rect x="16" y="16.7112" width="285.006" height="178.856" rx="13.087" fill="white"/>
</g>
<path d="M78.7585 153.508H72.9187V157.883H79.7449V159.855H70.448V145.637H79.6765V147.629H72.9187V151.555H78.7585V153.508ZM93.0359 159.855H90.5652L84.2273 149.768V159.855H81.7566V145.637H84.2273L90.5847 155.764V145.637H93.0359V159.855ZM105.936 147.629H101.503V159.855H99.0515V147.629H94.657V145.637H105.936V147.629ZM113.036 154.377H110.282V159.855H107.811V145.637H112.811C114.452 145.637 115.718 146.005 116.61 146.74C117.502 147.476 117.948 148.54 117.948 149.934C117.948 150.884 117.717 151.682 117.255 152.326C116.799 152.964 116.161 153.456 115.341 153.801L118.534 159.729V159.855H115.887L113.036 154.377ZM110.282 152.395H112.821C113.654 152.395 114.305 152.186 114.774 151.77C115.243 151.346 115.477 150.77 115.477 150.041C115.477 149.279 115.259 148.69 114.823 148.273C114.393 147.857 113.749 147.642 112.889 147.629H110.282V152.395ZM128.602 153.508H122.762V157.883H129.589V159.855H120.292V145.637H129.52V147.629H122.762V151.555H128.602V153.508ZM142.069 147.629H137.635V159.855H135.184V147.629H130.79V145.637H142.069V147.629ZM152.255 153.508H146.415V157.883H153.241V159.855H143.944V145.637H153.173V147.629H146.415V151.555H152.255V153.508ZM166.532 159.855H164.061L157.723 149.768V159.855H155.253V145.637H157.723L164.081 155.764V145.637H166.532V159.855ZM172.059 159.855H169.598V145.637H172.059V159.855ZM178.3 145.637L182.401 156.535L186.493 145.637H189.686V159.855H187.225V155.168L187.469 148.898L183.27 159.855H181.503L177.313 148.908L177.557 155.168V159.855H175.096V145.637H178.3ZM195.223 159.855H192.762V145.637H195.223V159.855ZM206.571 153.508H200.731V157.883H207.557V159.855H198.26V145.637H207.489V147.629H200.731V151.555H206.571V153.508ZM220.848 159.855H218.378L212.04 149.768V159.855H209.569V145.637H212.04L218.397 155.764V145.637H220.848V159.855ZM233.749 147.629H229.315V159.855H226.864V147.629H222.469V145.637H233.749V147.629ZM246.698 153.117C246.698 154.51 246.457 155.734 245.975 156.789C245.494 157.837 244.803 158.645 243.905 159.211C243.013 159.771 241.984 160.051 240.819 160.051C239.667 160.051 238.638 159.771 237.733 159.211C236.835 158.645 236.138 157.84 235.643 156.799C235.155 155.757 234.908 154.556 234.901 153.195V152.395C234.901 151.008 235.145 149.784 235.634 148.723C236.128 147.661 236.822 146.851 237.714 146.291C238.612 145.725 239.641 145.441 240.8 145.441C241.958 145.441 242.984 145.721 243.876 146.281C244.774 146.835 245.468 147.635 245.956 148.684C246.444 149.725 246.691 150.939 246.698 152.326V153.117ZM244.227 152.375C244.227 150.799 243.928 149.592 243.329 148.752C242.736 147.912 241.893 147.492 240.8 147.492C239.732 147.492 238.895 147.912 238.29 148.752C237.691 149.585 237.385 150.767 237.372 152.297V153.117C237.372 154.68 237.675 155.887 238.28 156.74C238.892 157.593 239.738 158.02 240.819 158.02C241.913 158.02 242.753 157.603 243.339 156.77C243.931 155.936 244.227 154.719 244.227 153.117V152.375Z" fill="#424242"/>
<g clip-path="url(#clip0_389_141)">
<path d="M197.336 97.8555V119.522H196.686C194.837 119.521 193.016 119.065 191.385 118.193C189.754 117.321 188.363 116.06 187.336 114.522C188.371 113.746 189.211 112.739 189.789 111.582C190.368 110.425 190.669 109.149 190.669 107.855V99.5221C189.614 99.4637 188.594 99.1237 187.715 98.5375C186.835 97.9513 186.129 97.1403 185.669 96.1888C182.199 98.4356 178.136 99.5962 174.003 99.5221V107.855C174.003 109.149 174.304 110.425 174.882 111.582C175.461 112.739 176.301 113.746 177.336 114.522C176.308 116.06 174.918 117.321 173.287 118.193C171.656 119.065 169.835 119.521 167.986 119.522H167.336V97.8555C167.336 93.8772 168.916 90.0619 171.729 87.2489C174.542 84.4358 178.358 82.8555 182.336 82.8555C186.314 82.8555 190.129 84.4358 192.943 87.2489C195.756 90.0619 197.336 93.8772 197.336 97.8555V97.8555Z" fill="#BFBFBF"/>
<path d="M127.336 66.1889H124.003C123.119 66.1889 122.271 65.8377 121.646 65.2126C121.021 64.5875 120.669 63.7396 120.669 62.8556C120.669 61.9715 121.021 61.1236 121.646 60.4985C122.271 59.8734 123.119 59.5222 124.003 59.5222H127.336V66.1889Z" fill="#BFBFBF"/>
<path d="M144.003 66.1889H147.336C148.22 66.1889 149.068 65.8377 149.693 65.2126C150.318 64.5875 150.669 63.7396 150.669 62.8556C150.669 61.9715 150.318 61.1236 149.693 60.4985C149.068 59.8734 148.22 59.5222 147.336 59.5222H144.003V66.1889Z" fill="#BFBFBF"/>
<path d="M139.003 56.1887C133.703 59.6054 129.569 59.5221 124.003 59.5221V54.5221C124.003 52.3119 124.881 50.1923 126.443 48.6295C128.006 47.0667 130.126 46.1887 132.336 46.1887H138.319C139.826 46.1898 141.271 46.7893 142.336 47.8554C143.662 47.8554 144.934 48.3822 145.872 49.3199C146.809 50.2575 147.336 51.5293 147.336 52.8554V59.5221H144.403C143.283 59.5191 142.185 59.2061 141.232 58.6178C140.279 58.0294 139.507 57.1887 139.003 56.1887Z" fill="#BFBFBF"/>
<path d="M149.002 58.1553V52.8553C149.011 51.1994 148.403 49.5996 147.297 48.3673C146.191 47.1349 144.666 46.3583 143.019 46.1886C141.697 45.0986 140.033 44.5086 138.319 44.522H132.336C129.684 44.522 127.14 45.5755 125.265 47.4509C123.389 49.3262 122.336 51.8698 122.336 54.522V58.1553C121.234 58.5553 120.307 59.3299 119.718 60.3438C119.129 61.3578 118.915 62.5465 119.113 63.7021C119.312 64.8578 119.91 65.9069 120.804 66.6661C121.698 67.4253 122.83 67.8462 124.002 67.8553H125.669C125.669 70.5075 126.723 73.051 128.598 74.9264C130.473 76.8017 133.017 77.8553 135.669 77.8553C138.321 77.8553 140.865 76.8017 142.74 74.9264C144.616 73.051 145.669 70.5075 145.669 67.8553H147.336C148.508 67.8462 149.64 67.4253 150.534 66.6661C151.428 65.9069 152.026 64.8578 152.225 63.7021C152.423 62.5465 152.209 61.3578 151.62 60.3438C151.031 59.3299 150.105 58.5553 149.002 58.1553V58.1553ZM125.669 64.522H124.002C123.56 64.522 123.137 64.3464 122.824 64.0338C122.511 63.7212 122.336 63.2973 122.336 62.8553C122.336 62.4133 122.511 61.9893 122.824 61.6768C123.137 61.3642 123.56 61.1886 124.002 61.1886H125.669V64.522ZM142.336 67.8553C142.336 69.6234 141.633 71.3191 140.383 72.5693C139.133 73.8196 137.437 74.522 135.669 74.522C133.901 74.522 132.205 73.8196 130.955 72.5693C129.705 71.3191 129.002 69.6234 129.002 67.8553V61.1886C132.321 61.0057 135.558 60.0953 138.486 58.522C139.5 59.6859 140.842 60.5166 142.336 60.9053V67.8553ZM144.402 57.8553C143.589 57.859 142.791 57.6345 142.098 57.2073C141.406 56.7802 140.847 56.1674 140.486 55.4386C140.38 55.2311 140.233 55.048 140.052 54.901C139.872 54.754 139.663 54.6464 139.438 54.5852C139.214 54.524 138.979 54.5104 138.749 54.5455C138.519 54.5805 138.299 54.6633 138.102 54.7886C134.996 56.7893 131.38 57.8539 127.686 57.8553H125.669V54.522C125.669 52.7538 126.372 51.0581 127.622 49.8079C128.872 48.5577 130.568 47.8553 132.336 47.8553H138.319C138.846 47.8534 139.369 47.9571 139.855 48.1604C140.342 48.3636 140.783 48.6622 141.152 49.0386C141.308 49.1931 141.493 49.3153 141.696 49.3982C141.899 49.4812 142.116 49.5232 142.336 49.522C143.22 49.522 144.068 49.8731 144.693 50.4983C145.318 51.1234 145.669 51.9712 145.669 52.8553V57.8553H144.402ZM147.336 64.522H145.669V61.1886H147.336C147.778 61.1886 148.202 61.3642 148.514 61.6768C148.827 61.9893 149.002 62.4133 149.002 62.8553C149.002 63.2973 148.827 63.7212 148.514 64.0338C148.202 64.3464 147.778 64.522 147.336 64.522Z" fill="#424242"/>
<path d="M194.003 46.1887H167.336C166.01 46.1887 164.738 46.7155 163.801 47.6532C162.863 48.5909 162.336 49.8626 162.336 51.1887V55.3554L156.336 59.8554C156.129 60.0106 155.961 60.2119 155.845 60.4434C155.73 60.6748 155.669 60.93 155.669 61.1887C155.669 61.4475 155.73 61.7026 155.845 61.9341C155.961 62.1655 156.129 62.3668 156.336 62.5221L162.336 67.0221V71.1887C162.336 72.5148 162.863 73.7866 163.801 74.7243C164.738 75.6619 166.01 76.1887 167.336 76.1887H194.003C195.329 76.1887 196.601 75.6619 197.538 74.7243C198.476 73.7866 199.003 72.5148 199.003 71.1887V51.1887C199.003 49.8626 198.476 48.5909 197.538 47.6532C196.601 46.7155 195.329 46.1887 194.003 46.1887ZM195.669 71.1887C195.669 71.6307 195.494 72.0547 195.181 72.3672C194.869 72.6798 194.445 72.8554 194.003 72.8554H167.336C166.894 72.8554 166.47 72.6798 166.158 72.3672C165.845 72.0547 165.669 71.6307 165.669 71.1887V66.1887C165.669 65.93 165.609 65.6748 165.493 65.4434C165.378 65.2119 165.21 65.0106 165.003 64.8554L160.119 61.1887L165.003 57.5221C165.21 57.3668 165.378 57.1655 165.493 56.9341C165.609 56.7027 165.669 56.4475 165.669 56.1887V51.1887C165.669 50.7467 165.845 50.3228 166.158 50.0102C166.47 49.6976 166.894 49.5221 167.336 49.5221H194.003C194.445 49.5221 194.869 49.6976 195.181 50.0102C195.494 50.3228 195.669 50.7467 195.669 51.1887V71.1887Z" fill="#424242"/>
<path d="M161.669 99.8554L155.669 95.3554V91.1887C155.669 89.8626 155.143 88.5909 154.205 87.6532C153.267 86.7155 151.995 86.1887 150.669 86.1887H124.003C122.677 86.1887 121.405 86.7155 120.467 87.6532C119.529 88.5909 119.003 89.8626 119.003 91.1887V111.189C119.003 112.515 119.529 113.787 120.467 114.724C121.405 115.662 122.677 116.189 124.003 116.189H150.669C151.995 116.189 153.267 115.662 154.205 114.724C155.143 113.787 155.669 112.515 155.669 111.189V107.022L161.669 102.522C161.876 102.367 162.044 102.165 162.16 101.934C162.276 101.703 162.336 101.447 162.336 101.189C162.336 100.93 162.276 100.675 162.16 100.443C162.044 100.212 161.876 100.011 161.669 99.8554ZM153.003 104.855C152.796 105.011 152.628 105.212 152.512 105.443C152.396 105.675 152.336 105.93 152.336 106.189V111.189C152.336 111.631 152.16 112.055 151.848 112.367C151.535 112.68 151.111 112.855 150.669 112.855H124.003C123.561 112.855 123.137 112.68 122.824 112.367C122.512 112.055 122.336 111.631 122.336 111.189V91.1887C122.336 90.7467 122.512 90.3228 122.824 90.0102C123.137 89.6976 123.561 89.5221 124.003 89.5221H150.669C151.111 89.5221 151.535 89.6976 151.848 90.0102C152.16 90.3228 152.336 90.7467 152.336 91.1887V96.1887C152.336 96.4475 152.396 96.7026 152.512 96.9341C152.628 97.1655 152.796 97.3668 153.003 97.5221L157.886 101.189L153.003 104.855Z" fill="#424242"/>
<path d="M137.336 92.8555L134.453 97.6388L129.003 98.9055L132.669 103.122L132.186 108.705L137.336 106.522L142.486 108.705L142.003 103.122L145.669 98.9055L140.219 97.6388L137.336 92.8555Z" fill="#FF7000"/>
<path d="M182.336 81.1887C177.916 81.1887 173.677 82.9447 170.551 86.0703C167.425 89.1959 165.669 93.4351 165.669 97.8554V119.522C165.669 119.964 165.845 120.388 166.158 120.701C166.47 121.013 166.894 121.189 167.336 121.189H167.986C169.839 121.189 171.671 120.791 173.356 120.02C175.042 119.249 176.541 118.124 177.753 116.722C179.165 117.469 180.738 117.86 182.336 117.86C183.934 117.86 185.507 117.469 186.919 116.722C188.131 118.124 189.63 119.249 191.316 120.02C193.001 120.791 194.833 121.189 196.686 121.189H197.336C197.778 121.189 198.202 121.013 198.515 120.701C198.827 120.388 199.003 119.964 199.003 119.522V97.8554C199.003 95.6667 198.572 93.4994 197.734 91.4773C196.897 89.4552 195.669 87.6179 194.121 86.0703C192.574 84.5226 190.736 83.295 188.714 82.4574C186.692 81.6198 184.525 81.1887 182.336 81.1887V81.1887ZM169.003 117.855V107.555C170.083 107.874 171.216 107.976 172.336 107.855C172.341 110.404 173.319 112.854 175.069 114.705C173.506 116.469 171.345 117.591 169.003 117.855V117.855ZM169.003 102.855C169.003 102.413 169.178 101.989 169.491 101.677C169.803 101.364 170.227 101.189 170.669 101.189H172.336V104.522H170.669C170.227 104.522 169.803 104.346 169.491 104.034C169.178 103.721 169.003 103.297 169.003 102.855ZM189.003 107.855C189.003 109.623 188.3 111.319 187.05 112.569C185.8 113.82 184.104 114.522 182.336 114.522C180.568 114.522 178.872 113.82 177.622 112.569C176.372 111.319 175.669 109.623 175.669 107.855V101.189C178.988 101.006 182.225 100.095 185.153 98.5221C186.167 99.686 187.509 100.517 189.003 100.905V107.855ZM195.669 117.855C193.334 117.605 191.174 116.501 189.603 114.755C191.365 112.891 192.344 110.421 192.336 107.855C193.456 107.972 194.588 107.87 195.669 107.555V117.855ZM194.003 104.522H192.336V101.189H194.003C194.445 101.189 194.869 101.364 195.181 101.677C195.494 101.989 195.669 102.413 195.669 102.855C195.669 103.297 195.494 103.721 195.181 104.034C194.869 104.346 194.445 104.522 194.003 104.522ZM195.669 98.1554C194.167 97.7786 192.608 97.6769 191.069 97.8554C190.256 97.8591 189.458 97.6346 188.765 97.2074C188.073 96.7803 187.514 96.1675 187.153 95.4387C187.047 95.2312 186.9 95.0481 186.719 94.9011C186.539 94.7541 186.33 94.6465 186.105 94.5853C185.881 94.5241 185.646 94.5106 185.416 94.5456C185.186 94.5806 184.966 94.6634 184.769 94.7887C177.336 99.5221 172.103 97.0554 169.003 98.1554C169.003 94.6192 170.408 91.2278 172.908 88.7273C175.408 86.2268 178.8 84.8221 182.336 84.8221C185.872 84.8221 189.264 86.2268 191.764 88.7273C194.265 91.2278 195.669 94.6192 195.669 98.1554V98.1554Z" fill="#424242"/>
<path d="M180.669 53.2722L177.786 58.0555L172.336 59.3222L176.003 63.5389L175.519 69.1222L180.669 66.9389L185.819 69.1222L185.336 63.5389L189.003 59.3222L183.553 58.0555L180.669 53.2722Z" fill="#BFBFBF"/>
</g>
<defs>
<filter id="filter0_d_389_141" x="0.00478649" y="0.715968" width="316.996" height="210.846" filterUnits="userSpaceOnUse" color-interpolation-filters="sRGB">
<feFlood flood-opacity="0" result="BackgroundImageFix"/>
<feColorMatrix in="SourceAlpha" type="matrix" values="0 0 0 0 0 0 0 0 0 0 0 0 0 0 0 0 0 0 127 0" result="hardAlpha"/>
<feOffset/>
<feGaussianBlur stdDeviation="7.99761"/>
<feColorMatrix type="matrix" values="0 0 0 0 0 0 0 0 0 0 0 0 0 0 0 0 0 0 0.25 0"/>
<feBlend mode="normal" in2="BackgroundImageFix" result="effect1_dropShadow_389_141"/>
<feBlend mode="normal" in="SourceGraphic" in2="effect1_dropShadow_389_141" result="shape"/>
</filter>
<clipPath id="clip0_389_141">
<rect width="80" height="80" fill="white" transform="translate(119.003 42.8555)"/>
</clipPath>
</defs>
</svg>
