<svg width="317" height="212" viewBox="0 0 317 212" fill="none" xmlns="http://www.w3.org/2000/svg">
<g filter="url(#filter0_d_403_21)">
<rect x="16" y="16.8557" width="285.006" height="178.856" rx="13.087" fill="white"/>
</g>
<g clip-path="url(#clip0_403_21)">
<path d="M139.141 100.99C138.968 100.122 138.968 99.0813 138.968 98.2136C138.968 91.2721 142.265 86.7602 144.868 82.2483C147.645 77.5628 151.289 73.0509 155.974 67.4977C160.139 62.4652 161.007 57.6062 160.66 53.6149C157.363 48.7559 154.413 46.1528 154.413 46.1528C154.413 46.1528 161.18 56.565 151.983 67.4977C147.298 73.0509 143.653 77.3893 140.877 82.2483C138.1 86.7602 134.977 91.2721 134.977 98.2136C134.977 99.2548 134.977 100.122 135.15 100.99C136.538 113.138 146.951 122.509 159.445 122.509C160.139 122.509 160.66 122.509 161.354 122.509C149.901 121.641 140.53 112.444 139.141 100.99Z" fill="#E5E5E5"/>
<path d="M170.204 107.584C170.204 113.658 165.345 118.517 159.271 118.517C153.718 118.517 149.033 114.352 148.339 108.799C148.339 108.452 148.339 107.931 148.339 107.584C148.339 104.461 149.727 102.552 150.942 100.469C152.156 98.387 153.892 96.3045 155.974 93.875C160.139 89.016 157.015 84.3306 157.015 84.3306C157.015 84.3306 160.486 87.4542 162.569 93.0074C162.916 94.0486 163.263 95.0898 163.263 95.9575C163.263 96.4781 163.263 96.9987 163.263 97.5193C163.263 100.99 161.874 103.593 161.874 103.593C164.651 102.378 165.345 100.296 165.519 98.5605C168.295 100.643 170.204 103.94 170.204 107.584Z" fill="#FF7000"/>
<path d="M183.74 96.6518C183.74 110.188 172.807 121.12 159.271 121.12C146.777 121.12 136.365 111.749 134.976 99.6019C134.803 98.5607 134.803 97.5195 134.803 96.6518C134.803 89.7104 138.1 85.1984 140.703 80.6865C143.48 76.001 147.124 71.4891 151.809 65.936C161.007 55.0032 154.239 44.5911 154.239 44.5911C154.239 44.5911 162.048 51.5325 166.733 64.2006C167.601 66.4566 168.122 68.7125 168.295 70.795C168.469 72.0097 168.469 73.0509 168.469 74.0921C168.469 81.9013 165.345 87.6279 165.345 87.8015C171.592 85.1984 173.154 80.3394 173.328 76.6952C179.575 81.2071 183.74 88.3221 183.74 96.6518Z" stroke="#424242" stroke-width="3.47072" stroke-miterlimit="10" stroke-linecap="round" stroke-linejoin="round"/>
</g>
<path d="M151.842 160.01C151.327 160.681 150.615 161.188 149.703 161.533C148.792 161.878 147.757 162.051 146.598 162.051C145.406 162.051 144.352 161.781 143.434 161.24C142.516 160.7 141.806 159.929 141.305 158.926C140.81 157.917 140.553 156.742 140.533 155.401V154.287C140.533 152.139 141.048 150.462 142.076 149.258C143.105 148.047 144.54 147.442 146.383 147.442C147.965 147.442 149.221 147.832 150.152 148.614C151.083 149.395 151.643 150.521 151.832 151.992H149.41C149.137 150.28 148.144 149.424 146.432 149.424C145.325 149.424 144.482 149.824 143.902 150.625C143.329 151.42 143.033 152.588 143.014 154.131V155.225C143.014 156.761 143.336 157.956 143.98 158.809C144.632 159.655 145.533 160.078 146.686 160.078C147.949 160.078 148.847 159.792 149.381 159.219V156.436H146.451V154.561H151.842V160.01ZM162.516 158.545H157.008L155.855 161.856H153.287L158.658 147.637H160.875L166.256 161.856H163.678L162.516 158.545ZM157.701 156.553H161.822L159.762 150.655L157.701 156.553ZM175.309 158.194C175.309 157.569 175.087 157.087 174.645 156.748C174.208 156.41 173.417 156.068 172.271 155.723C171.126 155.378 170.214 154.994 169.537 154.571C168.242 153.757 167.594 152.696 167.594 151.387C167.594 150.241 168.059 149.297 168.99 148.555C169.928 147.813 171.142 147.442 172.633 147.442C173.622 147.442 174.505 147.624 175.279 147.989C176.054 148.353 176.663 148.874 177.105 149.551C177.548 150.222 177.77 150.967 177.77 151.787H175.309C175.309 151.045 175.074 150.466 174.605 150.049C174.143 149.626 173.479 149.414 172.613 149.414C171.806 149.414 171.178 149.587 170.729 149.932C170.286 150.277 170.064 150.759 170.064 151.377C170.064 151.898 170.305 152.334 170.787 152.686C171.269 153.031 172.063 153.369 173.17 153.701C174.277 154.027 175.165 154.401 175.836 154.824C176.507 155.241 176.998 155.723 177.311 156.27C177.623 156.81 177.779 157.445 177.779 158.174C177.779 159.359 177.324 160.303 176.412 161.006C175.507 161.703 174.277 162.051 172.721 162.051C171.692 162.051 170.745 161.862 169.879 161.485C169.02 161.101 168.349 160.573 167.867 159.903C167.392 159.232 167.154 158.451 167.154 157.559H169.625C169.625 158.366 169.892 158.991 170.426 159.434C170.96 159.877 171.725 160.098 172.721 160.098C173.58 160.098 174.225 159.925 174.654 159.58C175.09 159.229 175.309 158.767 175.309 158.194Z" fill="#424242"/>
<defs>
<filter id="filter0_d_403_21" x="0.00478649" y="0.860499" width="316.996" height="210.846" filterUnits="userSpaceOnUse" color-interpolation-filters="sRGB">
<feFlood flood-opacity="0" result="BackgroundImageFix"/>
<feColorMatrix in="SourceAlpha" type="matrix" values="0 0 0 0 0 0 0 0 0 0 0 0 0 0 0 0 0 0 127 0" result="hardAlpha"/>
<feOffset/>
<feGaussianBlur stdDeviation="7.99761"/>
<feColorMatrix type="matrix" values="0 0 0 0 0 0 0 0 0 0 0 0 0 0 0 0 0 0 0.25 0"/>
<feBlend mode="normal" in2="BackgroundImageFix" result="effect1_dropShadow_403_21"/>
<feBlend mode="normal" in="SourceGraphic" in2="effect1_dropShadow_403_21" result="shape"/>
</filter>
<clipPath id="clip0_403_21">
<rect width="52.4078" height="80" fill="white" transform="translate(133.067 42.8557)"/>
</clipPath>
</defs>
</svg>
