<svg width="317" height="212" viewBox="0 0 317 212" fill="none" xmlns="http://www.w3.org/2000/svg">
<g filter="url(#filter0_d_401_2)">
<rect x="16" y="16.7112" width="285.006" height="178.856" rx="13.087" fill="white"/>
</g>
<path d="M105.491 153.711H103.031V139.492H105.491V153.711ZM111.732 139.492L115.833 150.391L119.925 139.492H123.118V153.711H120.657V149.024L120.902 142.754L116.702 153.711H114.935L110.745 142.764L110.99 149.024V153.711H108.529V139.492H111.732ZM128.519 148.428V153.711H126.048V139.492H131.488C133.076 139.492 134.336 139.906 135.267 140.733C136.204 141.559 136.673 142.653 136.673 144.014C136.673 145.407 136.214 146.491 135.296 147.266C134.385 148.041 133.105 148.428 131.458 148.428H128.519ZM128.519 146.446H131.488C132.366 146.446 133.037 146.24 133.499 145.83C133.962 145.414 134.193 144.815 134.193 144.033C134.193 143.265 133.958 142.653 133.49 142.198C133.021 141.735 132.376 141.498 131.556 141.485H128.519V146.446ZM149.241 139.492V148.994C149.241 150.505 148.756 151.703 147.786 152.588C146.823 153.467 145.537 153.906 143.929 153.906C142.301 153.906 141.009 153.474 140.052 152.608C139.095 151.735 138.616 150.528 138.616 148.985V139.492H141.077V149.004C141.077 149.955 141.318 150.681 141.8 151.182C142.282 151.683 142.991 151.934 143.929 151.934C145.83 151.934 146.781 150.931 146.781 148.926V139.492H149.241ZM160.198 147.364H154.359V151.739H161.185V153.711H151.888V139.492H161.116V141.485H154.359V145.41H160.198V147.364ZM170.628 150.049C170.628 149.424 170.407 148.942 169.964 148.604C169.528 148.265 168.737 147.923 167.591 147.578C166.445 147.233 165.534 146.849 164.857 146.426C163.561 145.612 162.913 144.551 162.913 143.242C162.913 142.097 163.379 141.153 164.31 140.41C165.247 139.668 166.462 139.297 167.952 139.297C168.942 139.297 169.824 139.479 170.599 139.844C171.374 140.209 171.982 140.729 172.425 141.406C172.868 142.077 173.089 142.823 173.089 143.643H170.628C170.628 142.901 170.394 142.321 169.925 141.905C169.463 141.481 168.799 141.27 167.933 141.27C167.126 141.27 166.497 141.442 166.048 141.787C165.605 142.132 165.384 142.614 165.384 143.233C165.384 143.753 165.625 144.19 166.107 144.541C166.588 144.886 167.383 145.225 168.49 145.557C169.596 145.882 170.485 146.257 171.156 146.68C171.826 147.097 172.318 147.578 172.63 148.125C172.943 148.666 173.099 149.3 173.099 150.03C173.099 151.214 172.643 152.158 171.732 152.862C170.827 153.558 169.596 153.906 168.04 153.906C167.012 153.906 166.064 153.718 165.198 153.34C164.339 152.956 163.669 152.429 163.187 151.758C162.712 151.087 162.474 150.306 162.474 149.414H164.945C164.945 150.222 165.212 150.847 165.745 151.289C166.279 151.732 167.044 151.953 168.04 151.953C168.9 151.953 169.544 151.781 169.974 151.436C170.41 151.084 170.628 150.622 170.628 150.049ZM185.54 141.485H181.107V153.711H178.656V141.485H174.261V139.492H185.54V141.485ZM198.49 146.973C198.49 148.366 198.249 149.59 197.767 150.645C197.285 151.693 196.595 152.5 195.697 153.067C194.805 153.627 193.776 153.906 192.611 153.906C191.458 153.906 190.43 153.627 189.525 153.067C188.626 152.5 187.93 151.696 187.435 150.655C186.947 149.613 186.699 148.412 186.693 147.051V146.25C186.693 144.864 186.937 143.64 187.425 142.578C187.92 141.517 188.613 140.707 189.505 140.147C190.404 139.58 191.432 139.297 192.591 139.297C193.75 139.297 194.775 139.577 195.667 140.137C196.566 140.69 197.259 141.491 197.747 142.539C198.236 143.581 198.483 144.795 198.49 146.182V146.973ZM196.019 146.231C196.019 144.655 195.719 143.448 195.12 142.608C194.528 141.768 193.685 141.348 192.591 141.348C191.523 141.348 190.687 141.768 190.081 142.608C189.482 143.441 189.176 144.623 189.163 146.153V146.973C189.163 148.535 189.466 149.743 190.072 150.596C190.684 151.449 191.53 151.875 192.611 151.875C193.704 151.875 194.544 151.459 195.13 150.625C195.723 149.792 196.019 148.574 196.019 146.973V146.231ZM208.382 150.049C208.382 149.424 208.161 148.942 207.718 148.604C207.282 148.265 206.491 147.923 205.345 147.578C204.199 147.233 203.288 146.849 202.611 146.426C201.315 145.612 200.667 144.551 200.667 143.242C200.667 142.097 201.133 141.153 202.064 140.41C203.001 139.668 204.215 139.297 205.706 139.297C206.696 139.297 207.578 139.479 208.353 139.844C209.128 140.209 209.736 140.729 210.179 141.406C210.622 142.077 210.843 142.823 210.843 143.643H208.382C208.382 142.901 208.148 142.321 207.679 141.905C207.217 141.481 206.553 141.27 205.687 141.27C204.879 141.27 204.251 141.442 203.802 141.787C203.359 142.132 203.138 142.614 203.138 143.233C203.138 143.753 203.379 144.19 203.861 144.541C204.342 144.886 205.137 145.225 206.243 145.557C207.35 145.882 208.239 146.257 208.909 146.68C209.58 147.097 210.072 147.578 210.384 148.125C210.697 148.666 210.853 149.3 210.853 150.03C210.853 151.214 210.397 152.158 209.486 152.862C208.581 153.558 207.35 153.906 205.794 153.906C204.766 153.906 203.818 153.718 202.952 153.34C202.093 152.956 201.422 152.429 200.941 151.758C200.465 151.087 200.228 150.306 200.228 149.414H202.698C202.698 150.222 202.965 150.847 203.499 151.289C204.033 151.732 204.798 151.953 205.794 151.953C206.654 151.953 207.298 151.781 207.728 151.436C208.164 151.084 208.382 150.622 208.382 150.049ZM107.757 164.231L111.029 157.492H113.763L108.997 166.477V171.711H106.517V166.477L101.741 157.492H104.486L107.757 164.231ZM131.185 169.865C130.67 170.536 129.958 171.044 129.046 171.389C128.135 171.734 127.1 171.906 125.941 171.906C124.749 171.906 123.695 171.636 122.777 171.096C121.859 170.556 121.149 169.784 120.648 168.781C120.153 167.772 119.896 166.597 119.876 165.256V164.143C119.876 161.994 120.391 160.318 121.419 159.114C122.448 157.903 123.883 157.297 125.726 157.297C127.308 157.297 128.564 157.688 129.495 158.469C130.426 159.25 130.986 160.377 131.175 161.848H128.753C128.48 160.136 127.487 159.28 125.775 159.28C124.668 159.28 123.825 159.68 123.245 160.481C122.672 161.275 122.376 162.444 122.357 163.987V165.08C122.357 166.617 122.679 167.811 123.323 168.664C123.975 169.511 124.876 169.934 126.029 169.934C127.292 169.934 128.19 169.647 128.724 169.074V166.291H125.794V164.416H131.185V169.865ZM145.247 164.973C145.247 166.366 145.006 167.59 144.525 168.645C144.043 169.693 143.353 170.5 142.454 171.067C141.562 171.627 140.534 171.906 139.368 171.906C138.216 171.906 137.187 171.627 136.282 171.067C135.384 170.5 134.687 169.696 134.193 168.655C133.704 167.613 133.457 166.412 133.45 165.051V164.25C133.45 162.864 133.695 161.64 134.183 160.578C134.678 159.517 135.371 158.707 136.263 158.147C137.161 157.58 138.19 157.297 139.349 157.297C140.508 157.297 141.533 157.577 142.425 158.137C143.323 158.69 144.017 159.491 144.505 160.539C144.993 161.581 145.241 162.795 145.247 164.182V164.973ZM142.777 164.231C142.777 162.655 142.477 161.448 141.878 160.608C141.286 159.768 140.443 159.348 139.349 159.348C138.281 159.348 137.445 159.768 136.839 160.608C136.24 161.441 135.934 162.623 135.921 164.153V164.973C135.921 166.535 136.224 167.743 136.829 168.596C137.441 169.449 138.288 169.875 139.368 169.875C140.462 169.875 141.302 169.459 141.888 168.625C142.48 167.792 142.777 166.574 142.777 164.973V164.231ZM147.708 171.711V157.492H152.581C154.189 157.492 155.413 157.815 156.253 158.459C157.093 159.104 157.513 160.064 157.513 161.34C157.513 161.991 157.337 162.577 156.986 163.098C156.634 163.619 156.12 164.022 155.443 164.309C156.211 164.517 156.803 164.911 157.22 165.49C157.643 166.063 157.855 166.753 157.855 167.561C157.855 168.895 157.425 169.921 156.566 170.637C155.713 171.353 154.489 171.711 152.894 171.711H147.708ZM150.179 165.295V169.739H152.923C153.698 169.739 154.303 169.546 154.74 169.162C155.176 168.778 155.394 168.244 155.394 167.561C155.394 166.083 154.639 165.328 153.128 165.295H150.179ZM150.179 163.479H152.601C153.369 163.479 153.968 163.306 154.398 162.961C154.834 162.61 155.052 162.115 155.052 161.477C155.052 160.774 154.85 160.266 154.447 159.953C154.049 159.641 153.428 159.485 152.581 159.485H150.179V163.479ZM162.933 171.711H160.472V157.492H162.933V171.711ZM174.281 165.364H168.441V169.739H175.267V171.711H165.97V157.492H175.198V159.485H168.441V163.41H174.281V165.364ZM182.503 166.233H179.749V171.711H177.279V157.492H182.279C183.919 157.492 185.185 157.86 186.077 158.596C186.969 159.332 187.415 160.396 187.415 161.789C187.415 162.74 187.184 163.537 186.722 164.182C186.266 164.82 185.628 165.311 184.808 165.656L188.001 171.584V171.711H185.355L182.503 166.233ZM179.749 164.25H182.288C183.122 164.25 183.773 164.042 184.241 163.625C184.71 163.202 184.945 162.626 184.945 161.897C184.945 161.135 184.726 160.546 184.29 160.129C183.861 159.712 183.216 159.498 182.357 159.485H179.749V164.25ZM201.038 171.711H198.568L192.23 161.623V171.711H189.759V157.492H192.23L198.587 167.619V157.492H201.038V171.711ZM215.306 164.973C215.306 166.366 215.065 167.59 214.583 168.645C214.101 169.693 213.411 170.5 212.513 171.067C211.621 171.627 210.592 171.906 209.427 171.906C208.275 171.906 207.246 171.627 206.341 171.067C205.443 170.5 204.746 169.696 204.251 168.655C203.763 167.613 203.516 166.412 203.509 165.051V164.25C203.509 162.864 203.753 161.64 204.241 160.578C204.736 159.517 205.43 158.707 206.322 158.147C207.22 157.58 208.249 157.297 209.407 157.297C210.566 157.297 211.592 157.577 212.484 158.137C213.382 158.69 214.075 159.491 214.564 160.539C215.052 161.581 215.299 162.795 215.306 164.182V164.973ZM212.835 164.231C212.835 162.655 212.536 161.448 211.937 160.608C211.344 159.768 210.501 159.348 209.407 159.348C208.34 159.348 207.503 159.768 206.898 160.608C206.299 161.441 205.993 162.623 205.98 164.153V164.973C205.98 166.535 206.282 167.743 206.888 168.596C207.5 169.449 208.346 169.875 209.427 169.875C210.521 169.875 211.361 169.459 211.947 168.625C212.539 167.792 212.835 166.574 212.835 164.973V164.231Z" fill="#424242"/>
<g clip-path="url(#clip0_401_2)">
<path d="M138.997 77.7112H125.664V84.3778H138.997V77.7112Z" fill="#BFBFBF"/>
<path d="M138.997 107.711H125.664V114.378H138.997V107.711Z" fill="#BFBFBF"/>
<path d="M178.997 84.3779H192.331V77.7113H178.997V84.3779Z" fill="#BFBFBF"/>
<path d="M178.997 114.378H192.331V107.711H178.997V114.378Z" fill="#BFBFBF"/>
<path d="M136.614 66.0443L158.997 50.4609L181.38 66.0443H136.614Z" fill="#BFBFBF"/>
<path d="M198.881 70.4445C198.231 69.4778 202.547 72.7111 159.947 43.0111C159.668 42.8176 159.337 42.7139 158.997 42.7139C158.658 42.7139 158.326 42.8176 158.047 43.0111C115.664 72.4945 119.647 69.6445 119.114 70.4445C118.997 70.8945 118.997 70.4778 118.997 77.7111C118.997 78.1532 119.173 78.5771 119.485 78.8896C119.798 79.2022 120.222 79.3778 120.664 79.3778H123.997V84.3778C123.997 84.8198 124.173 85.2437 124.485 85.5563C124.798 85.8689 125.222 86.0445 125.664 86.0445H127.331V106.044H125.664C125.222 106.044 124.798 106.22 124.485 106.533C124.173 106.845 123.997 107.269 123.997 107.711V112.711H120.664C120.222 112.711 119.798 112.887 119.485 113.199C119.173 113.512 118.997 113.936 118.997 114.378V121.044C118.997 121.486 119.173 121.91 119.485 122.223C119.798 122.536 120.222 122.711 120.664 122.711H197.331C197.773 122.711 198.197 122.536 198.509 122.223C198.822 121.91 198.997 121.486 198.997 121.044V114.378C198.997 113.936 198.822 113.512 198.509 113.199C198.197 112.887 197.773 112.711 197.331 112.711H193.997V107.711C193.997 107.269 193.822 106.845 193.509 106.533C193.197 106.22 192.773 106.044 192.331 106.044H190.664V86.0445H192.331C192.773 86.0445 193.197 85.8689 193.509 85.5563C193.822 85.2437 193.997 84.8198 193.997 84.3778V79.3778H197.331C197.773 79.3778 198.197 79.2022 198.509 78.8896C198.822 78.5771 198.997 78.1532 198.997 77.7111C198.997 70.4611 198.997 70.8945 198.881 70.4445ZM158.997 46.4111L192.014 69.3778H125.981L158.997 46.4111ZM127.331 109.378H137.331V112.711H127.331V109.378ZM178.997 86.0445H180.664V106.044H178.997C178.555 106.044 178.131 106.22 177.819 106.533C177.506 106.845 177.331 107.269 177.331 107.711V112.711H140.664V107.711C140.664 107.269 140.488 106.845 140.176 106.533C139.863 106.22 139.439 106.044 138.997 106.044H137.331V86.0445H138.997C139.439 86.0445 139.863 85.8689 140.176 85.5563C140.488 85.2437 140.664 84.8198 140.664 84.3778V79.3778H177.331V84.3778C177.331 84.8198 177.506 85.2437 177.819 85.5563C178.131 85.8689 178.555 86.0445 178.997 86.0445ZM190.664 109.378V112.711H180.664V109.378H190.664ZM183.997 106.044V86.0445H187.331V106.044H183.997ZM137.331 82.7111H127.331V79.3778H137.331V82.7111ZM133.997 86.0445V106.044H130.664V86.0445H133.997ZM195.664 116.044V119.378H122.331V116.044H195.664ZM190.664 82.7111H180.664V79.3778H190.664V82.7111ZM195.664 76.0445H122.331V72.7111H195.664V76.0445Z" fill="#424242"/>
<path d="M158.997 97.7111C160.838 97.7111 162.331 96.2187 162.331 94.3778C162.331 92.5368 160.838 91.0444 158.997 91.0444C157.156 91.0444 155.664 92.5368 155.664 94.3778C155.664 96.2187 157.156 97.7111 158.997 97.7111Z" fill="#FC6459"/>
<path d="M167.697 106.128C165.277 108.211 162.19 109.357 158.997 109.357C155.804 109.357 152.717 108.211 150.297 106.128C151.169 104.589 152.434 103.309 153.962 102.418C155.491 101.528 157.228 101.058 158.997 101.058C160.766 101.058 162.503 101.528 164.031 102.418C165.56 103.309 166.825 104.589 167.697 106.128V106.128Z" fill="#FF7000"/>
<path d="M169.997 103.545C168.516 101.378 166.429 99.6969 163.997 98.7114C164.846 97.7491 165.399 96.5625 165.59 95.2938C165.781 94.0251 165.601 92.7282 165.074 91.5589C164.546 90.3895 163.692 89.3973 162.614 88.7013C161.536 88.0053 160.28 87.6351 158.997 87.6351C157.714 87.6351 156.459 88.0053 155.381 88.7013C154.303 89.3973 153.449 90.3895 152.921 91.5589C152.393 92.7282 152.214 94.0251 152.405 95.2938C152.596 96.5625 153.149 97.7491 153.997 98.7114C151.577 99.7025 149.503 101.383 148.031 103.545C146.659 101.542 145.86 99.2027 145.719 96.7791C145.579 94.3556 146.104 91.9398 147.236 89.7923C148.368 87.6448 150.064 85.8471 152.143 84.5931C154.222 83.339 156.603 82.6763 159.031 82.6763C161.458 82.6763 163.84 83.339 165.918 84.5931C167.997 85.8471 169.694 87.6448 170.826 89.7923C171.958 91.9398 172.482 94.3556 172.342 96.7791C172.202 99.2027 171.403 101.542 170.031 103.545H169.997Z" fill="#FF7000"/>
</g>
<defs>
<filter id="filter0_d_401_2" x="0.00478649" y="0.715968" width="316.996" height="210.846" filterUnits="userSpaceOnUse" color-interpolation-filters="sRGB">
<feFlood flood-opacity="0" result="BackgroundImageFix"/>
<feColorMatrix in="SourceAlpha" type="matrix" values="0 0 0 0 0 0 0 0 0 0 0 0 0 0 0 0 0 0 127 0" result="hardAlpha"/>
<feOffset/>
<feGaussianBlur stdDeviation="7.99761"/>
<feColorMatrix type="matrix" values="0 0 0 0 0 0 0 0 0 0 0 0 0 0 0 0 0 0 0.25 0"/>
<feBlend mode="normal" in2="BackgroundImageFix" result="effect1_dropShadow_401_2"/>
<feBlend mode="normal" in="SourceGraphic" in2="effect1_dropShadow_401_2" result="shape"/>
</filter>
<clipPath id="clip0_401_2">
<rect width="80" height="80" fill="white" transform="translate(118.997 42.7112)"/>
</clipPath>
</defs>
</svg>
