<svg width="317" height="212" viewBox="0 0 317 212" fill="none" xmlns="http://www.w3.org/2000/svg">
<g filter="url(#filter0_d_389_135)">
<rect x="16" y="16.8557" width="285.006" height="178.856" rx="13.087" fill="white"/>
</g>
<g clip-path="url(#clip0_389_135)">
<path d="M161.383 100.322C163.275 100.939 164.91 102.163 166.033 103.806C167.183 106.122 170.75 103.806 171.833 106.122C172.917 108.439 171.083 109.689 168.817 110.172C167.982 110.371 167.237 110.84 166.698 111.506C166.158 112.172 165.854 112.999 165.833 113.856C165.794 114.088 165.685 114.303 165.521 114.472C165.357 114.642 165.146 114.757 164.915 114.804C164.684 114.851 164.445 114.827 164.228 114.735C164.011 114.643 163.827 114.488 163.7 114.289C163.213 113.549 162.826 112.748 162.55 111.906C161.383 108.439 157.783 108.189 156.75 106.122C155.717 104.056 156.75 99.1558 161.383 100.322Z" fill="#BFBFBF"/>
<path d="M145.667 56.1891C145.667 53.552 144.885 50.9741 143.42 48.7814C141.955 46.5888 139.872 44.8798 137.436 43.8707C134.999 42.8615 132.319 42.5974 129.732 43.1119C127.146 43.6264 124.77 44.8963 122.905 46.761C121.041 48.6257 119.771 51.0014 119.256 53.5878C118.742 56.1743 119.006 58.8551 120.015 61.2915C121.024 63.7278 122.733 65.8102 124.926 67.2753C127.118 68.7404 129.696 69.5224 132.333 69.5224C135.87 69.5224 139.261 68.1176 141.761 65.6171C144.262 63.1167 145.667 59.7253 145.667 56.1891ZM132.333 54.5224C133.506 54.5315 134.638 54.9524 135.532 55.7116C136.425 56.4707 137.024 57.5199 137.222 58.6755C137.421 59.8312 137.207 61.0199 136.618 62.0338C136.029 63.0478 135.102 63.8224 134 64.2224V64.5224C134 64.9644 133.824 65.3883 133.512 65.7009C133.199 66.0135 132.775 66.1891 132.333 66.1891C131.891 66.1891 131.467 66.0135 131.155 65.7009C130.842 65.3883 130.667 64.9644 130.667 64.5224V64.2224C126.983 62.8557 126.233 57.8557 129 57.8557C129.442 57.8557 129.866 58.0313 130.179 58.3439C130.491 58.6564 130.667 59.0804 130.667 59.5224C130.667 59.852 130.764 60.1743 130.948 60.4483C131.131 60.7224 131.391 60.936 131.696 61.0622C132 61.1883 132.335 61.2213 132.658 61.157C132.982 61.0927 133.279 60.934 133.512 60.7009C133.745 60.4678 133.904 60.1708 133.968 59.8475C134.032 59.5242 133.999 59.1891 133.873 58.8846C133.747 58.58 133.533 58.3197 133.259 58.1366C132.985 57.9535 132.663 57.8557 132.333 57.8557C131.161 57.8466 130.029 57.4257 129.135 56.6665C128.241 55.9074 127.643 54.8582 127.444 53.7026C127.246 52.5469 127.46 51.3582 128.049 50.3443C128.638 49.3303 129.564 48.5557 130.667 48.1557V47.8557C130.667 47.4137 130.842 46.9898 131.155 46.6772C131.467 46.3646 131.891 46.1891 132.333 46.1891C132.775 46.1891 133.199 46.3646 133.512 46.6772C133.824 46.9898 134 47.4137 134 47.8557V48.1557C137.683 49.5224 138.433 54.5224 135.667 54.5224C135.225 54.5224 134.801 54.3468 134.488 54.0342C134.176 53.7217 134 53.2977 134 52.8557C134 52.5261 133.902 52.2039 133.719 51.9298C133.536 51.6557 133.276 51.4421 132.971 51.3159C132.667 51.1898 132.331 51.1568 132.008 51.2211C131.685 51.2854 131.388 51.4441 131.155 51.6772C130.922 51.9103 130.763 52.2073 130.699 52.5306C130.634 52.8539 130.667 53.189 130.794 53.4935C130.92 53.7981 131.133 54.0584 131.407 54.2415C131.681 54.4246 132.004 54.5224 132.333 54.5224V54.5224Z" fill="#FF7000"/>
<path d="M198.283 88.3058V88.2225C197.436 84.5338 195.857 81.0523 193.642 77.9836C191.426 74.915 188.618 72.3213 185.383 70.3558C185.285 70.2702 185.172 70.2025 185.05 70.1558C179.436 66.8422 172.851 65.5658 166.406 66.5418C159.961 67.5178 154.049 70.6865 149.668 75.5136C145.287 80.3407 142.704 86.531 142.355 93.0405C142.007 99.5501 143.913 105.981 147.754 111.248C151.594 116.516 157.134 120.298 163.438 121.956C169.742 123.615 176.426 123.049 182.362 120.354C188.297 117.659 193.122 113 196.023 107.162C198.923 101.324 199.721 94.6641 198.283 88.3058V88.3058ZM194.717 87.7558C193.387 88.304 192.179 89.1108 191.164 90.1293C190.148 91.1478 189.345 92.3578 188.8 93.6892C187.817 96.6225 189.767 102.023 187.833 104.889C187.483 105.376 187.036 105.784 186.519 106.088C186.003 106.393 185.429 106.586 184.833 106.656C184.417 106.156 184.2 104.889 184.967 102.956C186.633 98.9892 185.6 95.1225 181.633 93.8058C180.494 93.4586 179.308 93.2899 178.117 93.3058C175.917 93.2225 175.183 93.1892 174.617 90.4225C174.133 88.0058 176.917 86.8558 178.8 84.9725C182.917 80.8558 179.533 78.6892 180.367 76.1892C180.683 75.2225 182.033 74.2558 184.167 73.5058C189.297 76.8176 193.047 81.8826 194.717 87.7558V87.7558ZM169.817 69.5225C170.433 70.5058 171.367 72.4392 170.433 73.8392C169.767 74.8558 169.2 74.8558 167.25 74.3892C165.869 73.8729 164.348 73.8729 162.967 74.3892C160.017 75.8725 161.417 78.8058 162.167 80.3892C162.638 81.2683 162.997 82.2035 163.233 83.1725C163.433 84.1892 163.35 84.8392 163.233 84.9392C162.65 85.6725 159.067 85.0558 157.2 85.9892C153.417 87.8725 155.3 93.3225 153.717 94.1058C153.292 94.3172 152.824 94.4272 152.35 94.4272C151.876 94.4272 151.408 94.3172 150.983 94.1058C149.75 93.5392 148.05 91.8725 146.817 87.0058C148.37 82.0696 151.416 77.737 155.536 74.6055C159.655 71.474 164.645 69.698 169.817 69.5225V69.5225ZM170.667 119.523C167.299 119.525 163.966 118.847 160.867 117.53C157.768 116.213 154.967 114.283 152.632 111.856C150.297 109.429 148.477 106.556 147.28 103.409C146.083 100.261 145.534 96.904 145.667 93.5392C148.233 97.8892 152.083 98.6892 155.133 97.1725C157.433 96.0225 157.633 93.5558 157.783 91.7558C158.017 88.9058 158.167 88.8892 160.667 88.8225C162.333 88.8225 164.5 88.6892 165.767 87.1558C168.25 84.0225 164.783 78.8225 164.45 77.5058C165.8 76.9892 170.283 80.1225 173.167 75.8392C173.72 74.9419 174.044 73.9224 174.111 72.8703C174.178 71.8183 173.985 70.7659 173.55 69.8058C175.925 70.0871 178.249 70.7043 180.45 71.6392C179.032 72.3181 177.923 73.5076 177.345 74.9695C176.767 76.4314 176.763 78.0576 177.333 79.5225C177.7 80.7558 177.833 81.1892 176.483 82.5558C175.133 83.9225 170.433 86.2892 171.383 91.0225C173.133 99.7725 180.483 94.5392 182.15 98.1392C182.531 99.3045 182.441 100.572 181.9 101.673C180.767 104.506 180.917 107.089 182.333 108.756C184.4 111.173 188.867 109.356 190.667 106.689C193.367 102.639 191.367 96.6892 192.033 94.6892C192.728 93.1698 193.922 91.9344 195.417 91.1892C195.892 94.7197 195.607 98.311 194.581 101.722C193.555 105.134 191.812 108.287 189.468 110.969C187.125 113.652 184.235 115.803 180.992 117.279C177.75 118.754 174.229 119.519 170.667 119.523V119.523Z" fill="#424242"/>
<path d="M167.517 103.056C166.21 101.008 164.23 99.4811 161.917 98.7392C160.871 98.3759 159.739 98.3409 158.673 98.6388C157.606 98.9367 156.656 99.5532 155.95 100.406C155.251 101.322 154.817 102.414 154.697 103.56C154.576 104.706 154.773 105.864 155.267 106.906C155.968 108.034 156.973 108.941 158.167 109.522C161.867 111.806 160.15 111.956 162.317 115.189C162.635 115.668 163.092 116.039 163.627 116.252C164.161 116.466 164.748 116.511 165.309 116.383C165.87 116.254 166.378 115.958 166.767 115.533C167.155 115.109 167.405 114.576 167.483 114.006C167.479 113.502 167.639 113.011 167.94 112.608C168.241 112.205 168.666 111.911 169.15 111.772C173.533 110.822 174.583 108.156 173.3 105.389C171.867 102.239 167.883 103.772 167.517 103.056ZM170.483 107.656C170.483 107.656 170.183 108.172 168.467 108.539C167.528 108.742 166.661 109.195 165.957 109.849C165.253 110.503 164.738 111.334 164.467 112.256C164.157 111.058 163.589 109.942 162.803 108.986C162.017 108.031 161.032 107.258 159.917 106.722C159.262 106.411 158.691 105.948 158.25 105.372C158.045 104.899 157.965 104.38 158.017 103.867C158.07 103.353 158.253 102.862 158.55 102.439C159.967 100.639 163.8 103.072 164.533 104.539C166.083 107.639 170 106.206 170.317 106.806C170.469 107.061 170.528 107.362 170.483 107.656V107.656Z" fill="#424242"/>
<path d="M193.517 62.3723C189.8 66.089 190.083 65.8723 189.633 66.0556C189.434 66.1459 189.218 66.1925 189 66.1925C188.781 66.1925 188.566 66.1459 188.367 66.0556C187.9 65.8556 188.183 66.0556 184.483 62.3723C184.169 62.0585 183.993 61.6328 183.993 61.189C183.993 60.7451 184.169 60.3195 184.483 60.0056C184.797 59.6918 185.223 59.5155 185.667 59.5155C186.11 59.5155 186.536 59.6918 186.85 60.0056L187.333 60.5056V52.8556C187.333 51.9716 186.982 51.1237 186.357 50.4986C185.732 49.8735 184.884 49.5223 184 49.5223H169.733C170.9 51.489 170.667 52.9723 170.667 55.5056L171.15 55.0056C171.305 54.8502 171.49 54.727 171.693 54.6429C171.896 54.5588 172.113 54.5155 172.333 54.5155C172.553 54.5155 172.771 54.5588 172.974 54.6429C173.177 54.727 173.361 54.8502 173.517 55.0056C173.672 55.161 173.795 55.3455 173.879 55.5485C173.963 55.7516 174.007 55.9692 174.007 56.189C174.007 56.4087 173.963 56.6263 173.879 56.8294C173.795 57.0324 173.672 57.2169 173.517 57.3723L170.183 60.7056C170.028 60.8618 169.844 60.9858 169.641 61.0704C169.438 61.1551 169.22 61.1986 169 61.1986C168.78 61.1986 168.562 61.1551 168.359 61.0704C168.156 60.9858 167.972 60.8618 167.817 60.7056L164.483 57.3723C164.169 57.0585 163.993 56.6328 163.993 56.189C163.993 55.7451 164.169 55.3195 164.483 55.0056C164.797 54.6918 165.223 54.5155 165.667 54.5155C166.11 54.5155 166.536 54.6918 166.85 55.0056L167.333 55.5056V52.8556C167.333 51.9716 166.982 51.1237 166.357 50.4986C165.732 49.8735 164.884 49.5223 164 49.5223H149C148.558 49.5223 148.134 49.3467 147.821 49.0341C147.509 48.7216 147.333 48.2977 147.333 47.8556C147.333 47.4136 147.509 46.9897 147.821 46.6771C148.134 46.3646 148.558 46.189 149 46.189H184C185.768 46.189 187.464 46.8913 188.714 48.1416C189.964 49.3918 190.667 51.0875 190.667 52.8556V60.5056L191.15 60.0056C191.464 59.6918 191.889 59.5155 192.333 59.5155C192.777 59.5155 193.203 59.6918 193.517 60.0056C193.83 60.3195 194.007 60.7451 194.007 61.189C194.007 61.6328 193.83 62.0585 193.517 62.3723V62.3723Z" fill="#BFBFBF"/>
<path d="M142.2 113.489C142 113.956 142.2 113.672 138.517 117.372C138.203 117.686 137.777 117.862 137.333 117.862C136.889 117.862 136.464 117.686 136.15 117.372C135.836 117.058 135.66 116.633 135.66 116.189C135.66 115.745 135.836 115.319 136.15 115.006L136.65 114.522H129C127.232 114.522 125.536 113.82 124.286 112.57C123.036 111.319 122.333 109.624 122.333 107.856V72.8556C122.333 72.4136 122.509 71.9897 122.821 71.6771C123.134 71.3646 123.558 71.189 124 71.189C124.442 71.189 124.866 71.3646 125.178 71.6771C125.491 71.9897 125.667 72.4136 125.667 72.8556V87.8556C125.667 88.7397 126.018 89.5875 126.643 90.2127C127.268 90.8378 128.116 91.189 129 91.189H131.65L131.15 90.7056C130.995 90.5502 130.871 90.3658 130.787 90.1627C130.703 89.9597 130.66 89.7421 130.66 89.5223C130.66 89.3025 130.703 89.0849 130.787 88.8819C130.871 88.6788 130.995 88.4944 131.15 88.339C131.305 88.1836 131.49 88.0603 131.693 87.9762C131.896 87.8921 132.113 87.8488 132.333 87.8488C132.553 87.8488 132.771 87.8921 132.974 87.9762C133.177 88.0603 133.361 88.1836 133.517 88.339L136.85 91.6723C137.081 91.9067 137.238 92.2043 137.3 92.5276C137.362 92.8509 137.328 93.1854 137.2 93.489C137 93.9556 137.2 93.6723 133.517 97.3723C133.361 97.5277 133.177 97.651 132.974 97.7351C132.771 97.8192 132.553 97.8625 132.333 97.8625C132.113 97.8625 131.896 97.8192 131.693 97.7351C131.49 97.651 131.305 97.5277 131.15 97.3723C130.995 97.2169 130.871 97.0324 130.787 96.8294C130.703 96.6263 130.66 96.4087 130.66 96.189C130.66 95.9692 130.703 95.7516 130.787 95.5486C130.871 95.3455 130.995 95.161 131.15 95.0056L131.65 94.5223C129.117 94.5223 127.6 94.739 125.667 93.589V107.856C125.667 108.74 126.018 109.588 126.643 110.213C127.268 110.838 128.116 111.189 129 111.189H136.65L136.15 110.706C135.836 110.392 135.66 109.966 135.66 109.522C135.66 109.078 135.836 108.653 136.15 108.339C136.464 108.025 136.889 107.849 137.333 107.849C137.777 107.849 138.203 108.025 138.517 108.339C142.233 112.056 142.017 111.772 142.2 112.222C142.367 112.628 142.367 113.083 142.2 113.489V113.489Z" fill="#BFBFBF"/>
</g>
<path d="M116.383 161.856H113.922V147.637H116.383V161.856ZM130.699 161.856H128.229L121.891 151.768V161.856H119.42V147.637H121.891L128.248 157.764V147.637H130.699V161.856ZM143.6 149.629H139.166V161.856H136.715V149.629H132.32V147.637H143.6V149.629ZM153.785 155.508H147.945V159.883H154.771V161.856H145.475V147.637H154.703V149.629H147.945V153.555H153.785V155.508ZM162.008 156.377H159.254V161.856H156.783V147.637H161.783C163.424 147.637 164.69 148.005 165.582 148.74C166.474 149.476 166.92 150.541 166.92 151.934C166.92 152.884 166.689 153.682 166.227 154.326C165.771 154.964 165.133 155.456 164.312 155.801L167.506 161.729V161.856H164.859L162.008 156.377ZM159.254 154.395H161.793C162.626 154.395 163.277 154.186 163.746 153.77C164.215 153.347 164.449 152.77 164.449 152.041C164.449 151.28 164.231 150.69 163.795 150.274C163.365 149.857 162.721 149.642 161.861 149.629H159.254V154.395ZM180.543 161.856H178.072L171.734 151.768V161.856H169.264V147.637H171.734L178.092 157.764V147.637H180.543V161.856ZM191.773 155.508H185.934V159.883H192.76V161.856H183.463V147.637H192.691V149.629H185.934V153.555H191.773V155.508ZM205.24 149.629H200.807V161.856H198.355V149.629H193.961V147.637H205.24V149.629Z" fill="#424242"/>
<defs>
<filter id="filter0_d_389_135" x="0.00478649" y="0.860499" width="316.996" height="210.846" filterUnits="userSpaceOnUse" color-interpolation-filters="sRGB">
<feFlood flood-opacity="0" result="BackgroundImageFix"/>
<feColorMatrix in="SourceAlpha" type="matrix" values="0 0 0 0 0 0 0 0 0 0 0 0 0 0 0 0 0 0 127 0" result="hardAlpha"/>
<feOffset/>
<feGaussianBlur stdDeviation="7.99761"/>
<feColorMatrix type="matrix" values="0 0 0 0 0 0 0 0 0 0 0 0 0 0 0 0 0 0 0.25 0"/>
<feBlend mode="normal" in2="BackgroundImageFix" result="effect1_dropShadow_389_135"/>
<feBlend mode="normal" in="SourceGraphic" in2="effect1_dropShadow_389_135" result="shape"/>
</filter>
<clipPath id="clip0_389_135">
<rect width="80" height="80" fill="white" transform="translate(119 42.8557)"/>
</clipPath>
</defs>
</svg>
