<svg width="317" height="211" viewBox="0 0 317 211" fill="none" xmlns="http://www.w3.org/2000/svg">
<g filter="url(#filter0_d_389_128)">
<rect x="16" y="16" width="285.006" height="178.856" rx="13.087" fill="white"/>
</g>
<path d="M144.916 159.027H151.371V161H142.445V146.781H144.916V159.027ZM163.432 146.781V156.283C163.432 157.794 162.947 158.992 161.977 159.877C161.013 160.756 159.727 161.195 158.119 161.195C156.492 161.195 155.199 160.762 154.242 159.896C153.285 159.024 152.807 157.816 152.807 156.273V146.781H155.268V156.293C155.268 157.243 155.508 157.969 155.99 158.471C156.472 158.972 157.182 159.223 158.119 159.223C160.02 159.223 160.971 158.22 160.971 156.215V146.781H163.432ZM168.402 159.027H176V161H165.414V159.398L172.768 148.773H165.463V146.781H175.766V148.344L168.402 159.027Z" fill="#424242"/>
<g clip-path="url(#clip0_389_128)">
<path d="M147.008 60.3333H140.342V66.9999H147.008V60.3333Z" fill="#BFBFBF"/>
<path d="M147.008 73.6667H140.342V80.3334H147.008V73.6667Z" fill="#BFBFBF"/>
<path d="M168.025 122C167.442 122 167.775 122.1 162.025 118.9L156.842 121.783C156.588 121.93 156.301 122.007 156.008 122.007C155.716 122.007 155.428 121.93 155.175 121.783L149.992 118.9L144.842 121.783C144.588 121.93 144.301 122.007 144.008 122.007C143.716 122.007 143.428 121.93 143.175 121.783L138.025 118.9L132.825 121.783C132.572 121.926 132.285 121.999 131.995 121.997C131.704 121.995 131.419 121.916 131.168 121.77C130.917 121.623 130.709 121.413 130.564 121.162C130.419 120.91 130.342 120.624 130.342 120.333V43.6667C130.342 43.2246 130.517 42.8007 130.83 42.4882C131.143 42.1756 131.566 42 132.008 42H192.008C192.45 42 192.874 42.1756 193.187 42.4882C193.5 42.8007 193.675 43.2246 193.675 43.6667V120.333C193.675 120.624 193.598 120.91 193.453 121.162C193.308 121.413 193.1 121.623 192.849 121.77C192.598 121.916 192.313 121.995 192.022 121.997C191.731 121.999 191.445 121.926 191.192 121.783L186.008 118.9L180.825 121.783C180.572 121.93 180.284 122.007 179.992 122.007C179.699 122.007 179.412 121.93 179.158 121.783L173.975 118.9C168.475 122 168.675 122 168.025 122ZM138.025 115.333C138.608 115.333 138.375 115.333 144.025 118.433L149.225 115.55C149.478 115.404 149.766 115.327 150.058 115.327C150.351 115.327 150.638 115.404 150.892 115.55L156.075 118.433L161.258 115.55C161.512 115.404 161.799 115.327 162.092 115.327C162.384 115.327 162.672 115.404 162.925 115.55L168.125 118.433L173.308 115.55C173.562 115.404 173.849 115.327 174.142 115.327C174.434 115.327 174.722 115.404 174.975 115.55L180.175 118.433L185.358 115.55C185.612 115.404 185.899 115.327 186.192 115.327C186.484 115.327 186.772 115.404 187.025 115.55L190.342 117.5V45.3333H133.675V117.5C137.525 115.333 137.442 115.333 138.025 115.333Z" fill="#424242"/>
<path d="M175.342 98.6666C175.342 96.0295 174.56 93.4516 173.095 91.259C171.63 89.0663 169.547 87.3574 167.111 86.3482C164.675 85.339 161.994 85.075 159.407 85.5895C156.821 86.1039 154.445 87.3738 152.581 89.2385C150.716 91.1032 149.446 93.479 148.931 96.0654C148.417 98.6518 148.681 101.333 149.69 103.769C150.699 106.205 152.408 108.288 154.601 109.753C156.794 111.218 159.372 112 162.009 112C165.545 112 168.936 110.595 171.437 108.095C173.937 105.594 175.342 102.203 175.342 98.6666ZM162.009 96.9999C163.181 97.009 164.313 97.4299 165.207 98.1891C166.101 98.9483 166.699 99.9974 166.898 101.153C167.096 102.309 166.882 103.497 166.293 104.511C165.704 105.525 164.778 106.3 163.675 106.7V107C163.675 107.442 163.5 107.866 163.187 108.178C162.875 108.491 162.451 108.667 162.009 108.667C161.567 108.667 161.143 108.491 160.83 108.178C160.518 107.866 160.342 107.442 160.342 107V106.7C156.659 105.333 155.909 100.333 158.675 100.333C159.117 100.333 159.541 100.509 159.854 100.821C160.166 101.134 160.342 101.558 160.342 102C160.342 102.33 160.44 102.652 160.623 102.926C160.806 103.2 161.066 103.414 161.371 103.54C161.675 103.666 162.01 103.699 162.334 103.635C162.657 103.57 162.954 103.412 163.187 103.178C163.42 102.945 163.579 102.648 163.643 102.325C163.708 102.002 163.675 101.667 163.548 101.362C163.422 101.058 163.209 100.797 162.935 100.614C162.661 100.431 162.338 100.333 162.009 100.333C160.836 100.324 159.704 99.9032 158.81 99.1441C157.917 98.3849 157.318 97.3358 157.12 96.1801C156.921 95.0244 157.135 93.8357 157.724 92.8218C158.313 91.8079 159.24 91.0332 160.342 90.6333V90.3333C160.342 89.8912 160.518 89.4673 160.83 89.1547C161.143 88.8422 161.567 88.6666 162.009 88.6666C162.451 88.6666 162.875 88.8422 163.187 89.1547C163.5 89.4673 163.675 89.8912 163.675 90.3333V90.6333C167.359 91.9999 168.109 96.9999 165.342 96.9999C164.9 96.9999 164.476 96.8243 164.163 96.5118C163.851 96.1992 163.675 95.7753 163.675 95.3333C163.675 95.0036 163.578 94.6814 163.394 94.4073C163.211 94.1332 162.951 93.9196 162.646 93.7935C162.342 93.6673 162.007 93.6343 161.683 93.6986C161.36 93.7629 161.063 93.9217 160.83 94.1547C160.597 94.3878 160.438 94.6848 160.374 95.0081C160.31 95.3314 160.343 95.6665 160.469 95.9711C160.595 96.2756 160.809 96.5359 161.083 96.719C161.357 96.9022 161.679 96.9999 162.009 96.9999Z" fill="#FF7000"/>
<path d="M175.342 53.6666H148.675C148.233 53.6666 147.809 53.491 147.497 53.1784C147.184 52.8659 147.009 52.4419 147.009 51.9999C147.009 51.5579 147.184 51.134 147.497 50.8214C147.809 50.5088 148.233 50.3333 148.675 50.3333H175.342C175.784 50.3333 176.208 50.5088 176.52 50.8214C176.833 51.134 177.009 51.5579 177.009 51.9999C177.009 52.4419 176.833 52.8659 176.52 53.1784C176.208 53.491 175.784 53.6666 175.342 53.6666Z" fill="#424242"/>
<path d="M177.009 68.6666H153.675C153.233 68.6666 152.809 68.491 152.497 68.1784C152.184 67.8659 152.009 67.4419 152.009 66.9999C152.009 66.5579 152.184 66.134 152.497 65.8214C152.809 65.5088 153.233 65.3333 153.675 65.3333H177.009C177.451 65.3333 177.874 65.5088 178.187 65.8214C178.5 66.134 178.675 66.5579 178.675 66.9999C178.675 67.4419 178.5 67.8659 178.187 68.1784C177.874 68.491 177.451 68.6666 177.009 68.6666Z" fill="#BFBFBF"/>
<path d="M183.675 62.0001H153.675C153.233 62.0001 152.809 61.8245 152.497 61.5119C152.184 61.1994 152.009 60.7754 152.009 60.3334C152.009 59.8914 152.184 59.4675 152.497 59.1549C152.809 58.8423 153.233 58.6667 153.675 58.6667H183.675C184.117 58.6667 184.541 58.8423 184.854 59.1549C185.166 59.4675 185.342 59.8914 185.342 60.3334C185.342 60.7754 185.166 61.1994 184.854 61.5119C184.541 61.8245 184.117 62.0001 183.675 62.0001Z" fill="#BFBFBF"/>
<path d="M147.009 68.6667H140.342C139.9 68.6667 139.476 68.4912 139.163 68.1786C138.851 67.866 138.675 67.4421 138.675 67.0001V60.3334C138.675 59.8914 138.851 59.4675 139.163 59.1549C139.476 58.8423 139.9 58.6667 140.342 58.6667H147.009C147.451 58.6667 147.875 58.8423 148.187 59.1549C148.5 59.4675 148.675 59.8914 148.675 60.3334V67.0001C148.675 67.4421 148.5 67.866 148.187 68.1786C147.875 68.4912 147.451 68.6667 147.009 68.6667ZM142.009 65.3334H145.342V62.0001H142.009V65.3334Z" fill="#424242"/>
<path d="M177.009 82.0001H153.675C153.233 82.0001 152.809 81.8245 152.497 81.5119C152.184 81.1994 152.009 80.7754 152.009 80.3334C152.009 79.8914 152.184 79.4675 152.497 79.1549C152.809 78.8423 153.233 78.6667 153.675 78.6667H177.009C177.451 78.6667 177.874 78.8423 178.187 79.1549C178.5 79.4675 178.675 79.8914 178.675 80.3334C178.675 80.7754 178.5 81.1994 178.187 81.5119C177.874 81.8245 177.451 82.0001 177.009 82.0001Z" fill="#BFBFBF"/>
<path d="M183.675 75.3333H153.675C153.233 75.3333 152.809 75.1577 152.497 74.8452C152.184 74.5326 152.009 74.1087 152.009 73.6667C152.009 73.2246 152.184 72.8007 152.497 72.4882C152.809 72.1756 153.233 72 153.675 72H183.675C184.117 72 184.541 72.1756 184.854 72.4882C185.166 72.8007 185.342 73.2246 185.342 73.6667C185.342 74.1087 185.166 74.5326 184.854 74.8452C184.541 75.1577 184.117 75.3333 183.675 75.3333Z" fill="#BFBFBF"/>
<path d="M147.009 82H140.342C139.9 82 139.476 81.8244 139.163 81.5118C138.851 81.1993 138.675 80.7754 138.675 80.3333V73.6667C138.675 73.2246 138.851 72.8007 139.163 72.4882C139.476 72.1756 139.9 72 140.342 72H147.009C147.451 72 147.875 72.1756 148.187 72.4882C148.5 72.8007 148.675 73.2246 148.675 73.6667V80.3333C148.675 80.7754 148.5 81.1993 148.187 81.5118C147.875 81.8244 147.451 82 147.009 82ZM142.009 78.6667H145.342V75.3333H142.009V78.6667Z" fill="#424242"/>
</g>
<defs>
<filter id="filter0_d_389_128" x="0.00478649" y="0.00478649" width="316.996" height="210.846" filterUnits="userSpaceOnUse" color-interpolation-filters="sRGB">
<feFlood flood-opacity="0" result="BackgroundImageFix"/>
<feColorMatrix in="SourceAlpha" type="matrix" values="0 0 0 0 0 0 0 0 0 0 0 0 0 0 0 0 0 0 127 0" result="hardAlpha"/>
<feOffset/>
<feGaussianBlur stdDeviation="7.99761"/>
<feColorMatrix type="matrix" values="0 0 0 0 0 0 0 0 0 0 0 0 0 0 0 0 0 0 0.25 0"/>
<feBlend mode="normal" in2="BackgroundImageFix" result="effect1_dropShadow_389_128"/>
<feBlend mode="normal" in="SourceGraphic" in2="effect1_dropShadow_389_128" result="shape"/>
</filter>
<clipPath id="clip0_389_128">
<rect width="80" height="80" fill="white" transform="translate(122.009 42)"/>
</clipPath>
</defs>
</svg>
