<svg width="318" height="212" viewBox="0 0 318 212" fill="none" xmlns="http://www.w3.org/2000/svg">
<g filter="url(#filter0_d_430_14)">
<rect x="16.0056" y="16.5669" width="285.006" height="178.856" rx="13.087" fill="white"/>
</g>
<path d="M141.055 155.262C141.055 156.655 140.814 157.879 140.332 158.934C139.85 159.982 139.16 160.789 138.262 161.355C137.37 161.915 136.341 162.195 135.176 162.195C134.023 162.195 132.995 161.915 132.09 161.355C131.191 160.789 130.495 159.985 130 158.943C129.512 157.902 129.264 156.701 129.258 155.34V154.539C129.258 153.152 129.502 151.928 129.99 150.867C130.485 149.806 131.178 148.995 132.07 148.436C132.969 147.869 133.997 147.586 135.156 147.586C136.315 147.586 137.34 147.866 138.232 148.426C139.131 148.979 139.824 149.78 140.312 150.828C140.801 151.87 141.048 153.084 141.055 154.471V155.262ZM138.584 154.52C138.584 152.944 138.285 151.736 137.686 150.896C137.093 150.057 136.25 149.637 135.156 149.637C134.089 149.637 133.252 150.057 132.646 150.896C132.048 151.73 131.742 152.911 131.729 154.441V155.262C131.729 156.824 132.031 158.032 132.637 158.885C133.249 159.738 134.095 160.164 135.176 160.164C136.27 160.164 137.109 159.747 137.695 158.914C138.288 158.081 138.584 156.863 138.584 155.262V154.52ZM152.949 149.773H148.516V162H146.064V149.773H141.67V147.781H152.949V149.773ZM160.049 156.521H157.295V162H154.824V147.781H159.824C161.465 147.781 162.731 148.149 163.623 148.885C164.515 149.62 164.961 150.685 164.961 152.078C164.961 153.029 164.73 153.826 164.268 154.471C163.812 155.109 163.174 155.6 162.354 155.945L165.547 161.873V162H162.9L160.049 156.521ZM157.295 154.539H159.834C160.667 154.539 161.318 154.331 161.787 153.914C162.256 153.491 162.49 152.915 162.49 152.186C162.49 151.424 162.272 150.835 161.836 150.418C161.406 150.001 160.762 149.786 159.902 149.773H157.295V154.539ZM178.652 155.262C178.652 156.655 178.411 157.879 177.93 158.934C177.448 159.982 176.758 160.789 175.859 161.355C174.967 161.915 173.939 162.195 172.773 162.195C171.621 162.195 170.592 161.915 169.688 161.355C168.789 160.789 168.092 159.985 167.598 158.943C167.109 157.902 166.862 156.701 166.855 155.34V154.539C166.855 153.152 167.1 151.928 167.588 150.867C168.083 149.806 168.776 148.995 169.668 148.436C170.566 147.869 171.595 147.586 172.754 147.586C173.913 147.586 174.938 147.866 175.83 148.426C176.729 148.979 177.422 149.78 177.91 150.828C178.398 151.87 178.646 153.084 178.652 154.471V155.262ZM176.182 154.52C176.182 152.944 175.882 151.736 175.283 150.896C174.691 150.057 173.848 149.637 172.754 149.637C171.686 149.637 170.85 150.057 170.244 150.896C169.645 151.73 169.339 152.911 169.326 154.441V155.262C169.326 156.824 169.629 158.032 170.234 158.885C170.846 159.738 171.693 160.164 172.773 160.164C173.867 160.164 174.707 159.747 175.293 158.914C175.885 158.081 176.182 156.863 176.182 155.262V154.52ZM188.545 158.338C188.545 157.713 188.324 157.231 187.881 156.893C187.445 156.554 186.654 156.212 185.508 155.867C184.362 155.522 183.451 155.138 182.773 154.715C181.478 153.901 180.83 152.84 180.83 151.531C180.83 150.385 181.296 149.441 182.227 148.699C183.164 147.957 184.378 147.586 185.869 147.586C186.859 147.586 187.741 147.768 188.516 148.133C189.29 148.497 189.899 149.018 190.342 149.695C190.785 150.366 191.006 151.111 191.006 151.932H188.545C188.545 151.189 188.311 150.61 187.842 150.193C187.38 149.77 186.715 149.559 185.85 149.559C185.042 149.559 184.414 149.731 183.965 150.076C183.522 150.421 183.301 150.903 183.301 151.521C183.301 152.042 183.542 152.479 184.023 152.83C184.505 153.175 185.299 153.514 186.406 153.846C187.513 154.171 188.402 154.546 189.072 154.969C189.743 155.385 190.234 155.867 190.547 156.414C190.859 156.954 191.016 157.589 191.016 158.318C191.016 159.503 190.56 160.447 189.648 161.15C188.743 161.847 187.513 162.195 185.957 162.195C184.928 162.195 183.981 162.007 183.115 161.629C182.256 161.245 181.585 160.717 181.104 160.047C180.628 159.376 180.391 158.595 180.391 157.703H182.861C182.861 158.51 183.128 159.135 183.662 159.578C184.196 160.021 184.961 160.242 185.957 160.242C186.816 160.242 187.461 160.07 187.891 159.725C188.327 159.373 188.545 158.911 188.545 158.338Z" fill="#424242"/>
<path d="M152 68.5001H149C148.204 68.5001 147.441 68.184 146.879 67.6214C146.316 67.0588 146 66.2958 146 65.5001C146 64.7045 146.316 63.9414 146.879 63.3788C147.441 62.8162 148.204 62.5001 149 62.5001H152V68.5001Z" fill="#BFBFBF"/>
<path d="M167 68.5001H170C170.796 68.5001 171.559 68.184 172.121 67.6214C172.684 67.0588 173 66.2958 173 65.5001C173 64.7045 172.684 63.9414 172.121 63.3788C171.559 62.8162 170.796 62.5001 170 62.5001H167V68.5001Z" fill="#BFBFBF"/>
<path d="M159.5 82.0001L155 85.0001L150.8 79.9601L155 79.0001L159.5 82.0001Z" fill="#BFBFBF"/>
<path d="M168.2 79.9601L164 85.0001L159.5 82.0001L164 79.0001L168.2 79.9601Z" fill="#BFBFBF"/>
<path d="M194 119.5H188C187.204 119.5 186.441 119.184 185.879 118.621C185.316 118.059 185 117.296 185 116.5V92.5001C185 91.7044 185.316 90.9414 185.879 90.3788C186.441 89.8161 187.204 89.5001 188 89.5001H194V119.5Z" fill="#BFBFBF"/>
<path d="M194 88.0001H188C187.071 88.0027 186.167 88.2924 185.409 88.8295C184.652 89.3666 184.079 90.1248 183.77 91.0001C179.555 91.0001 179.615 91.0901 179.105 90.7001C178.955 90.5951 179 91.1801 179 85.6751C178.997 84.3183 178.534 83.0027 177.686 81.943C176.839 80.8833 175.658 80.142 174.335 79.8401L165.5 77.8001V75.1901C167.014 73.8333 168.023 72.004 168.365 70.0001H170C171.055 69.992 172.074 69.6131 172.878 68.9299C173.683 68.2466 174.221 67.3024 174.4 66.2623C174.579 65.2222 174.386 64.1524 173.856 63.2399C173.326 62.3273 172.492 61.6301 171.5 61.2702V56.5002C171.508 55.0099 170.961 53.5701 169.965 52.461C168.97 51.3519 167.597 50.6529 166.115 50.5002C164.925 49.5192 163.427 48.9882 161.885 49.0002H156.5C154.113 49.0002 151.824 49.9484 150.136 51.6362C148.448 53.3241 147.5 55.6132 147.5 58.0002V61.2702C146.508 61.6301 145.674 62.3273 145.144 63.2399C144.614 64.1524 144.421 65.2222 144.6 66.2623C144.779 67.3024 145.317 68.2466 146.121 68.9299C146.926 69.6131 147.945 69.992 149 70.0001H150.635C150.976 72.004 151.986 73.8333 153.5 75.1901V77.8001L144.665 79.8251C143.34 80.1276 142.156 80.8711 141.309 81.9339C140.461 82.9967 140 84.3158 140 85.6751C140 91.1201 140 90.5951 139.895 90.7001C139.355 91.1051 139.4 91.0001 134 91.0001C133.602 91.0001 133.221 91.1581 132.939 91.4394C132.658 91.7207 132.5 92.1023 132.5 92.5001C132.5 92.8979 132.658 93.2794 132.939 93.5607C133.221 93.842 133.602 94.0001 134 94.0001H138.995C139.969 94.0001 140.916 93.6843 141.695 93.1001L145.295 90.4001C146.074 89.8159 147.021 89.5001 147.995 89.5001H151.385L147.815 93.0551C147.186 93.7009 146.809 94.55 146.751 95.4494C146.694 96.3488 146.959 97.2392 147.5 97.9601C148.041 98.6847 148.733 99.2842 149.526 99.7178C150.32 100.151 151.198 100.409 152.101 100.473C153.003 100.537 153.908 100.406 154.755 100.089C155.603 99.7718 156.372 99.2759 157.01 98.6351L158.615 97.0001H165.5C165.898 97.0001 166.279 97.1581 166.561 97.4394C166.842 97.7207 167 98.1022 167 98.5001C167 98.8979 166.842 99.2794 166.561 99.5607C166.279 99.842 165.898 100 165.5 100H158C157.602 100 157.221 100.158 156.939 100.439C156.658 100.721 156.5 101.102 156.5 101.5C156.5 101.898 156.658 102.279 156.939 102.561C157.221 102.842 157.602 103 158 103H167C167.398 103 167.779 103.158 168.061 103.439C168.342 103.721 168.5 104.102 168.5 104.5C168.5 104.898 168.342 105.279 168.061 105.561C167.779 105.842 167.398 106 167 106H158C157.602 106 157.221 106.158 156.939 106.439C156.658 106.721 156.5 107.102 156.5 107.5C156.5 107.898 156.658 108.279 156.939 108.561C157.221 108.842 157.602 109 158 109H165.5C165.898 109 166.279 109.158 166.561 109.439C166.842 109.721 167 110.102 167 110.5C167 110.898 166.842 111.279 166.561 111.561C166.279 111.842 165.898 112 165.5 112H158C157.602 112 157.221 112.158 156.939 112.439C156.658 112.721 156.5 113.102 156.5 113.5C156.5 113.898 156.658 114.279 156.939 114.561C157.221 114.842 157.602 115 158 115H164C164.398 115 164.779 115.158 165.061 115.439C165.342 115.721 165.5 116.102 165.5 116.5C165.5 116.898 165.342 117.279 165.061 117.561C164.779 117.842 164.398 118 164 118H146.315C143.315 118 142.175 115 139.085 115H134C133.602 115 133.221 115.158 132.939 115.439C132.658 115.721 132.5 116.102 132.5 116.5C132.5 116.898 132.658 117.279 132.939 117.561C133.221 117.842 133.602 118 134 118H139.085C140.585 118 142.37 121 146.315 121H172.685C175.37 121 176.72 119.815 179.075 118.255C179.6 117.91 179.6 118 183.77 118C184.079 118.875 184.652 119.634 185.409 120.171C186.167 120.708 187.071 120.997 188 121H194C194.398 121 194.779 120.842 195.06 120.561C195.342 120.279 195.5 119.898 195.5 119.5V89.5001C195.5 89.1023 195.342 88.7207 195.06 88.4394C194.779 88.1581 194.398 88.0001 194 88.0001ZM165.5 68.5001C165.5 70.0914 164.868 71.6176 163.743 72.7428C162.617 73.868 161.091 74.5001 159.5 74.5001C157.909 74.5001 156.383 73.868 155.257 72.7428C154.132 71.6176 153.5 70.0914 153.5 68.5001V64.0002C156.486 63.8355 159.4 63.0162 162.035 61.6002C162.948 62.6477 164.155 63.3953 165.5 63.7452V68.5001ZM162.5 76.9751V78.1901L159.5 80.2001L156.5 78.1901V76.9751C158.439 77.6725 160.561 77.6725 162.5 76.9751V76.9751ZM170 64.0002C170.398 64.0002 170.779 64.1582 171.061 64.4395C171.342 64.7208 171.5 65.1023 171.5 65.5002C171.5 65.898 171.342 66.2795 171.061 66.5608C170.779 66.8421 170.398 67.0002 170 67.0002H168.5V64.0002H170ZM150.5 67.0002H149C148.602 67.0002 148.221 66.8421 147.939 66.5608C147.658 66.2795 147.5 65.898 147.5 65.5002C147.5 65.1023 147.658 64.7208 147.939 64.4395C148.221 64.1582 148.602 64.0002 149 64.0002H150.5V67.0002ZM152.315 61.0002H150.5V58.0002C150.5 56.4089 151.132 54.8828 152.257 53.7575C153.383 52.6323 154.909 52.0002 156.5 52.0002H161.885C162.36 51.9985 162.83 52.0919 163.268 52.2748C163.706 52.4577 164.102 52.7264 164.435 53.0652C164.722 53.3393 165.103 53.4947 165.5 53.5002C166.296 53.5002 167.059 53.8163 167.621 54.3789C168.184 54.9415 168.5 55.7045 168.5 56.5002V61.0002H167.36C166.628 61.0035 165.909 60.8015 165.286 60.417C164.663 60.0325 164.16 59.4811 163.835 58.8252C163.74 58.6384 163.607 58.4736 163.445 58.3413C163.282 58.209 163.094 58.1122 162.892 58.0571C162.69 58.002 162.479 57.9898 162.272 58.0214C162.065 58.0529 161.866 58.1274 161.69 58.2402C158.895 60.0408 155.64 60.9989 152.315 61.0002V61.0002ZM147.995 86.5001C146.372 86.5001 144.793 87.0264 143.495 88.0001L143 88.3751V85.6751C143 84.9965 143.229 84.3377 143.651 83.8064C144.074 83.2752 144.664 82.9028 145.325 82.7501L154.7 80.6051C158.78 83.3051 158.9 83.5001 159.5 83.5001C159.797 83.489 160.087 83.4011 160.34 83.2451L164.315 80.6051L173.69 82.7501C174.348 82.9057 174.935 83.2794 175.354 83.8104C175.774 84.3413 176.001 84.9985 176 85.6751V88.3751C174.612 87.1744 172.84 86.5094 171.005 86.5001H147.995ZM183.5 115H179.915C179.024 114.997 178.152 115.258 177.41 115.75C173.51 118.375 174.77 118 168.23 118C168.454 117.397 168.541 116.751 168.484 116.11C168.427 115.469 168.227 114.849 167.9 114.295C168.869 113.676 169.565 112.709 169.844 111.594C170.123 110.478 169.964 109.297 169.4 108.295C170.038 107.888 170.563 107.328 170.927 106.664C171.291 106.001 171.482 105.257 171.482 104.5C171.482 103.743 171.291 102.999 170.927 102.336C170.563 101.672 170.038 101.112 169.4 100.705C169.727 100.151 169.927 99.5309 169.984 98.8899C170.041 98.2489 169.954 97.6032 169.73 97.0001H170C170.398 97.0001 170.779 96.842 171.061 96.5607C171.342 96.2794 171.5 95.8979 171.5 95.5001C171.5 95.1022 171.342 94.7207 171.061 94.4394C170.779 94.1581 170.398 94.0001 170 94.0001H158C157.175 94.0001 156.965 94.4051 154.865 96.5201C154.529 96.8555 154.124 97.1147 153.679 97.2803C153.234 97.4458 152.759 97.5138 152.285 97.4797C151.812 97.4456 151.351 97.3101 150.934 97.0824C150.517 96.8547 150.155 96.5402 149.87 96.1601C149.761 96.0166 149.708 95.8381 149.722 95.6583C149.736 95.4785 149.815 95.3101 149.945 95.1851L154.31 90.8201C155.153 89.9759 156.297 89.5011 157.49 89.5001H170.99C171.964 89.5001 172.911 89.8159 173.69 90.4001C179.18 94.5101 177.74 94.0001 183.5 94.0001V115ZM192.5 118H188C187.602 118 187.22 117.842 186.939 117.561C186.658 117.279 186.5 116.898 186.5 116.5V92.5001C186.5 92.1023 186.658 91.7207 186.939 91.4394C187.22 91.1581 187.602 91.0001 188 91.0001H192.5V118Z" fill="#424242"/>
<path d="M131 88H125C124.602 88 124.221 88.158 123.939 88.4393C123.658 88.7206 123.5 89.1022 123.5 89.5V119.5C123.5 119.898 123.658 120.279 123.939 120.561C124.221 120.842 124.602 121 125 121H131C132.193 121 133.338 120.526 134.182 119.682C135.026 118.838 135.5 117.693 135.5 116.5V92.5C135.5 91.3065 135.026 90.1619 134.182 89.318C133.338 88.4741 132.193 88 131 88Z" fill="#FC6459"/>
<defs>
<filter id="filter0_d_430_14" x="0.0104017" y="0.571681" width="316.996" height="210.846" filterUnits="userSpaceOnUse" color-interpolation-filters="sRGB">
<feFlood flood-opacity="0" result="BackgroundImageFix"/>
<feColorMatrix in="SourceAlpha" type="matrix" values="0 0 0 0 0 0 0 0 0 0 0 0 0 0 0 0 0 0 127 0" result="hardAlpha"/>
<feOffset/>
<feGaussianBlur stdDeviation="7.99761"/>
<feColorMatrix type="matrix" values="0 0 0 0 0 0 0 0 0 0 0 0 0 0 0 0 0 0 0.25 0"/>
<feBlend mode="normal" in2="BackgroundImageFix" result="effect1_dropShadow_430_14"/>
<feBlend mode="normal" in="SourceGraphic" in2="effect1_dropShadow_430_14" result="shape"/>
</filter>
</defs>
</svg>
