<svg width="317" height="212" viewBox="0 0 317 212" fill="none" xmlns="http://www.w3.org/2000/svg">
<g filter="url(#filter0_d_389_143)">
<rect x="16" y="16.7112" width="285.006" height="178.856" rx="13.087" fill="white"/>
</g>
<path d="M151.868 147.629H147.435V159.855H144.984V147.629H140.589V145.637H151.868V147.629ZM160.531 156.545H155.023L153.87 159.855H151.302L156.673 145.637H158.89L164.271 159.855H161.693L160.531 156.545ZM155.716 154.553H159.837L157.777 148.654L155.716 154.553ZM176.575 158.01C176.061 158.68 175.348 159.188 174.437 159.533C173.525 159.878 172.49 160.051 171.331 160.051C170.14 160.051 169.085 159.781 168.167 159.24C167.249 158.7 166.54 157.928 166.038 156.926C165.544 155.917 165.286 154.742 165.267 153.4V152.287C165.267 150.139 165.781 148.462 166.81 147.258C167.838 146.047 169.274 145.441 171.116 145.441C172.698 145.441 173.955 145.832 174.886 146.613C175.817 147.395 176.377 148.521 176.566 149.992H174.144C173.87 148.28 172.878 147.424 171.165 147.424C170.059 147.424 169.215 147.824 168.636 148.625C168.063 149.419 167.767 150.588 167.747 152.131V153.225C167.747 154.761 168.07 155.956 168.714 156.809C169.365 157.655 170.267 158.078 171.419 158.078C172.682 158.078 173.581 157.792 174.115 157.219V154.436H171.185V152.561H176.575V158.01Z" fill="#424242"/>
<path d="M196.585 51.5523L171.632 44.8668C171.255 44.5843 170.785 44.4902 170.408 44.5843C170.22 44.5843 170.031 44.5843 169.843 44.5843L145.832 49.6691L120.408 42.8894C119.843 42.7953 119.184 42.8894 118.807 43.2661C118.336 43.6427 118.054 44.2077 118.054 44.7727V111.345C118.054 112.193 118.619 112.946 119.466 113.134L145.173 120.008C145.455 120.102 145.832 120.102 146.114 120.008L159.579 117.183C160.05 117.089 160.521 116.806 160.709 116.43C160.992 116.053 161.086 115.488 160.992 115.017C160.898 114.547 160.615 114.076 160.144 113.887C159.768 113.605 159.203 113.511 158.732 113.605L147.432 115.959V53.1531L168.713 48.6333V72.3621C168.713 73.3979 169.56 74.2453 170.596 74.2453C171.632 74.2453 172.479 73.3979 172.479 72.3621V48.9158L194.231 54.7538V117.56L182.272 114.358C181.237 114.076 180.295 114.641 180.012 115.677C179.73 116.618 180.295 117.654 181.331 117.936L195.643 121.703C195.832 121.703 195.926 121.797 196.114 121.797C196.491 121.797 196.962 121.703 197.244 121.42C197.715 121.044 197.997 120.479 197.997 119.914V53.3414C197.903 52.4939 197.338 51.7406 196.585 51.5523ZM143.854 115.771L121.726 109.933V47.1267L143.854 52.9647V115.771Z" fill="#424242"/>
<path d="M170.691 76.0347C160.427 76.0347 152.047 84.4151 152.047 94.6787C152.047 104.283 167.018 119.914 168.807 121.609L169.749 122.551C170.032 122.833 170.408 122.927 170.691 122.927C171.067 122.927 171.444 122.739 171.632 122.551L172.574 121.609C175.399 118.69 189.241 103.907 189.241 94.6787C189.241 84.4151 180.954 76.0347 170.691 76.0347ZM170.691 98.4452C166.736 98.4452 163.44 95.2437 163.44 91.1947C163.44 87.1458 166.642 83.9443 170.691 83.9443C174.74 83.9443 177.941 87.1458 177.941 91.1947C177.941 95.2437 174.645 98.4452 170.691 98.4452Z" fill="#FF7000"/>
<defs>
<filter id="filter0_d_389_143" x="0.00478649" y="0.715968" width="316.996" height="210.846" filterUnits="userSpaceOnUse" color-interpolation-filters="sRGB">
<feFlood flood-opacity="0" result="BackgroundImageFix"/>
<feColorMatrix in="SourceAlpha" type="matrix" values="0 0 0 0 0 0 0 0 0 0 0 0 0 0 0 0 0 0 127 0" result="hardAlpha"/>
<feOffset/>
<feGaussianBlur stdDeviation="7.99761"/>
<feColorMatrix type="matrix" values="0 0 0 0 0 0 0 0 0 0 0 0 0 0 0 0 0 0 0.25 0"/>
<feBlend mode="normal" in2="BackgroundImageFix" result="effect1_dropShadow_389_143"/>
<feBlend mode="normal" in="SourceGraphic" in2="effect1_dropShadow_389_143" result="shape"/>
</filter>
</defs>
</svg>
