<svg width="317" height="212" viewBox="0 0 317 212" fill="none" xmlns="http://www.w3.org/2000/svg">
<g filter="url(#filter0_d_403_31)">
<rect x="16" y="16.8557" width="285.006" height="178.856" rx="13.087" fill="white"/>
</g>
<g clip-path="url(#clip0_403_31)">
<path d="M155.667 87.8557L144.983 98.539C144.357 97.9168 144.004 97.0717 144 96.189V79.5224C144.004 78.6397 144.357 77.7946 144.983 77.1724L155.667 87.8557Z" fill="#BFBFBF"/>
<path d="M174 79.5224V96.189C173.996 97.0717 173.643 97.9168 173.017 98.539L162.333 87.8557L173.017 77.1724C173.643 77.7946 173.996 78.6397 174 79.5224Z" fill="#BFBFBF"/>
<path d="M180.667 42.8557H137.333C136.007 42.8557 134.735 43.3825 133.798 44.3202C132.86 45.2579 132.333 46.5296 132.333 47.8557V117.856C132.333 119.182 132.86 120.454 133.798 121.391C134.735 122.329 136.007 122.856 137.333 122.856H180.667C181.993 122.856 183.264 122.329 184.202 121.391C185.14 120.454 185.667 119.182 185.667 117.856V47.8557C185.667 46.5296 185.14 45.2579 184.202 44.3202C183.264 43.3825 181.993 42.8557 180.667 42.8557V42.8557ZM182.333 117.856C182.333 118.298 182.158 118.722 181.845 119.034C181.533 119.347 181.109 119.522 180.667 119.522H137.333C136.891 119.522 136.467 119.347 136.155 119.034C135.842 118.722 135.667 118.298 135.667 117.856V109.522H182.333V117.856ZM182.333 106.189H135.667V47.8557C135.667 47.4137 135.842 46.9898 136.155 46.6772C136.467 46.3646 136.891 46.189 137.333 46.189H149C149 47.0731 149.351 47.9209 149.976 48.5461C150.601 49.1712 151.449 49.5224 152.333 49.5224H165.667C166.551 49.5224 167.398 49.1712 168.024 48.5461C168.649 47.9209 169 47.0731 169 46.189H180.667C181.109 46.189 181.533 46.3646 181.845 46.6772C182.158 46.9898 182.333 47.4137 182.333 47.8557V106.189Z" fill="#424242"/>
<path d="M162.333 116.189H155.667C155.225 116.189 154.801 116.013 154.488 115.701C154.176 115.388 154 114.964 154 114.522C154 114.08 154.176 113.656 154.488 113.344C154.801 113.031 155.225 112.856 155.667 112.856H162.333C162.775 112.856 163.199 113.031 163.512 113.344C163.824 113.656 164 114.08 164 114.522C164 114.964 163.824 115.388 163.512 115.701C163.199 116.013 162.775 116.189 162.333 116.189Z" fill="#BFBFBF"/>
<path d="M170.667 74.5225H164C163.558 74.5225 163.134 74.6981 162.821 75.0106C162.509 75.3232 162.333 75.7471 162.333 76.1891C162.333 76.6312 162.509 77.0551 162.821 77.3676C163.134 77.6802 163.558 77.8558 164 77.8558H169.983L159 88.8391L148.017 77.8558H154C154.442 77.8558 154.866 77.6802 155.178 77.3676C155.491 77.0551 155.667 76.6312 155.667 76.1891C155.667 75.7471 155.491 75.3232 155.178 75.0106C154.866 74.6981 154.442 74.5225 154 74.5225H147.333C146.007 74.5225 144.735 75.0492 143.798 75.9869C142.86 76.9246 142.333 78.1964 142.333 79.5225V96.1891C142.333 97.5152 142.86 98.787 143.798 99.7247C144.735 100.662 146.007 101.189 147.333 101.189H170.667C171.993 101.189 173.264 100.662 174.202 99.7247C175.14 98.787 175.667 97.5152 175.667 96.1891V79.5225C175.667 78.1964 175.14 76.9246 174.202 75.9869C173.264 75.0492 171.993 74.5225 170.667 74.5225V74.5225ZM164.683 87.8558L172.333 80.2058V95.5058L164.683 87.8558ZM159 92.8558C159.917 92.8558 160.15 92.4058 162.333 90.2058L169.983 97.8558H148.017L155.667 90.2058L157.817 92.3725C157.972 92.5269 158.157 92.6491 158.36 92.7321C158.563 92.815 158.781 92.8571 159 92.8558ZM145.667 80.2058L153.317 87.8558L145.667 95.5058V80.2058Z" fill="#424242"/>
<path d="M159 61.1891C158.558 61.1891 158.134 61.0135 157.821 60.701C157.509 60.3884 157.333 59.9645 157.333 59.5225V56.1891C157.333 55.7471 157.509 55.3232 157.821 55.0106C158.134 54.6981 158.558 54.5225 159 54.5225C159.442 54.5225 159.866 54.6981 160.178 55.0106C160.491 55.3232 160.667 55.7471 160.667 56.1891V59.5225C160.667 59.9645 160.491 60.3884 160.178 60.701C159.866 61.0135 159.442 61.1891 159 61.1891Z" fill="#BFBFBF"/>
<path d="M149.567 65.0891C149.129 65.0872 148.71 64.9137 148.4 64.6057L146.033 62.2557C145.878 62.1003 145.755 61.9159 145.671 61.7128C145.586 61.5098 145.543 61.2922 145.543 61.0724C145.543 60.8526 145.586 60.635 145.671 60.432C145.755 60.229 145.878 60.0445 146.033 59.8891C146.189 59.7337 146.373 59.6104 146.576 59.5263C146.779 59.4422 146.997 59.3989 147.217 59.3989C147.436 59.3989 147.654 59.4422 147.857 59.5263C148.06 59.6104 148.245 59.7337 148.4 59.8891L150.75 62.2557C150.979 62.4897 151.135 62.7861 151.197 63.1078C151.258 63.4296 151.224 63.7624 151.098 64.0647C150.971 64.3671 150.759 64.6255 150.487 64.8076C150.214 64.9898 149.894 65.0877 149.567 65.0891V65.0891Z" fill="#BFBFBF"/>
<path d="M168.433 65.0891C168.106 65.0877 167.786 64.9898 167.513 64.8076C167.241 64.6255 167.028 64.3671 166.902 64.0647C166.776 63.7624 166.742 63.4296 166.803 63.1078C166.865 62.7861 167.021 62.4897 167.25 62.2557L169.6 59.8891C169.755 59.7337 169.94 59.6104 170.143 59.5263C170.346 59.4422 170.563 59.3989 170.783 59.3989C171.003 59.3989 171.221 59.4422 171.424 59.5263C171.627 59.6104 171.811 59.7337 171.967 59.8891C172.122 60.0445 172.245 60.229 172.329 60.432C172.413 60.635 172.457 60.8526 172.457 61.0724C172.457 61.2922 172.413 61.5098 172.329 61.7128C172.245 61.9159 172.122 62.1003 171.967 62.2557C169.4 64.8057 169.3 65.0891 168.433 65.0891Z" fill="#BFBFBF"/>
<path d="M167.333 72.8558C167.333 71.2076 166.845 69.5965 165.929 68.226C165.013 66.8556 163.712 65.7875 162.189 65.1568C160.666 64.5261 158.991 64.361 157.374 64.6826C155.758 65.0041 154.273 65.7978 153.108 66.9632C151.942 68.1287 151.148 69.6135 150.827 71.23C150.505 72.8466 150.67 74.5221 151.301 76.0448C151.932 77.5675 153 78.869 154.37 79.7847C155.741 80.7004 157.352 81.1891 159 81.1891C161.21 81.1891 163.33 80.3112 164.893 78.7483C166.455 77.1855 167.333 75.0659 167.333 72.8558ZM159 71.8141C159.733 71.8198 160.44 72.0829 160.999 72.5574C161.558 73.0319 161.932 73.6876 162.056 74.4098C162.18 75.1321 162.046 75.8751 161.678 76.5088C161.31 77.1425 160.731 77.6266 160.042 77.8766V78.0641C160.042 78.3404 159.932 78.6053 159.737 78.8007C159.541 78.996 159.276 79.1058 159 79.1058C158.724 79.1058 158.459 78.996 158.264 78.8007C158.068 78.6053 157.958 78.3404 157.958 78.0641V77.8766C155.656 77.0225 155.188 73.8975 156.917 73.8975C157.193 73.8975 157.458 74.0072 157.653 74.2026C157.849 74.3979 157.958 74.6629 157.958 74.9391C157.958 75.1452 158.02 75.3465 158.134 75.5178C158.248 75.6891 158.411 75.8227 158.601 75.9015C158.792 75.9803 159.001 76.001 159.203 75.9608C159.405 75.9206 159.591 75.8214 159.737 75.6757C159.882 75.53 159.982 75.3444 160.022 75.1423C160.062 74.9403 160.041 74.7308 159.962 74.5405C159.884 74.3502 159.75 74.1875 159.579 74.073C159.408 73.9586 159.206 73.8975 159 73.8975C158.267 73.8918 157.56 73.6287 157.001 73.1542C156.443 72.6797 156.069 72.024 155.944 71.3017C155.82 70.5795 155.954 69.8365 156.322 69.2028C156.69 68.5691 157.269 68.0849 157.958 67.835V67.6475C157.958 67.3712 158.068 67.1062 158.264 66.9109C158.459 66.7155 158.724 66.6058 159 66.6058C159.276 66.6058 159.541 66.7155 159.737 66.9109C159.932 67.1062 160.042 67.3712 160.042 67.6475V67.835C162.344 68.6891 162.813 71.8141 161.083 71.8141C160.807 71.8141 160.542 71.7044 160.347 71.509C160.151 71.3137 160.042 71.0487 160.042 70.7725C160.042 70.5664 159.981 70.365 159.866 70.1937C159.752 70.0224 159.589 69.8889 159.399 69.8101C159.208 69.7312 158.999 69.7106 158.797 69.7508C158.595 69.791 158.409 69.8902 158.264 70.0359C158.118 70.1816 158.019 70.3672 157.978 70.5692C157.938 70.7713 157.959 70.9808 158.038 71.1711C158.117 71.3614 158.25 71.5241 158.421 71.6386C158.593 71.753 158.794 71.8141 159 71.8141Z" fill="#FF7000"/>
</g>
<path d="M121.02 149.629H116.586V161.856H114.135V149.629H109.74V147.637H121.02V149.629ZM131.205 155.508H125.365V159.883H132.191V161.856H122.895V147.637H132.123V149.629H125.365V153.555H131.205V155.508ZM136.674 159.883H143.129V161.856H134.203V147.637H136.674V159.883ZM153.334 155.508H147.494V159.883H154.32V161.856H145.023V147.637H154.252V149.629H147.494V153.555H153.334V155.508ZM150.395 143.76H153.1L150.395 146.719H148.49L150.395 143.76ZM164.525 155.83H158.803V161.856H156.332V147.637H165.365V149.629H158.803V153.858H164.525V155.83ZM178.676 155.117C178.676 156.511 178.435 157.735 177.953 158.789C177.471 159.837 176.781 160.645 175.883 161.211C174.991 161.771 173.962 162.051 172.797 162.051C171.645 162.051 170.616 161.771 169.711 161.211C168.812 160.645 168.116 159.841 167.621 158.799C167.133 157.757 166.885 156.556 166.879 155.196V154.395C166.879 153.008 167.123 151.784 167.611 150.723C168.106 149.662 168.799 148.851 169.691 148.291C170.59 147.725 171.618 147.442 172.777 147.442C173.936 147.442 174.962 147.722 175.854 148.281C176.752 148.835 177.445 149.636 177.934 150.684C178.422 151.726 178.669 152.94 178.676 154.326V155.117ZM176.205 154.375C176.205 152.8 175.906 151.592 175.307 150.752C174.714 149.912 173.871 149.492 172.777 149.492C171.71 149.492 170.873 149.912 170.268 150.752C169.669 151.586 169.363 152.767 169.35 154.297V155.117C169.35 156.68 169.652 157.888 170.258 158.74C170.87 159.593 171.716 160.02 172.797 160.02C173.891 160.02 174.73 159.603 175.316 158.77C175.909 157.936 176.205 156.719 176.205 155.117V154.375ZM192.416 161.856H189.945L183.607 151.768V161.856H181.137V147.637H183.607L189.965 157.764V147.637H192.416V161.856ZM206.684 155.117C206.684 156.511 206.443 157.735 205.961 158.789C205.479 159.837 204.789 160.645 203.891 161.211C202.999 161.771 201.97 162.051 200.805 162.051C199.652 162.051 198.624 161.771 197.719 161.211C196.82 160.645 196.124 159.841 195.629 158.799C195.141 157.757 194.893 156.556 194.887 155.196V154.395C194.887 153.008 195.131 151.784 195.619 150.723C196.114 149.662 196.807 148.851 197.699 148.291C198.598 147.725 199.626 147.442 200.785 147.442C201.944 147.442 202.969 147.722 203.861 148.281C204.76 148.835 205.453 149.636 205.941 150.684C206.43 151.726 206.677 152.94 206.684 154.326V155.117ZM204.213 154.375C204.213 152.8 203.913 151.592 203.314 150.752C202.722 149.912 201.879 149.492 200.785 149.492C199.717 149.492 198.881 149.912 198.275 150.752C197.676 151.586 197.37 152.767 197.357 154.297V155.117C197.357 156.68 197.66 157.888 198.266 158.74C198.878 159.593 199.724 160.02 200.805 160.02C201.898 160.02 202.738 159.603 203.324 158.77C203.917 157.936 204.213 156.719 204.213 155.117V154.375Z" fill="#424242"/>
<defs>
<filter id="filter0_d_403_31" x="0.00478649" y="0.860499" width="316.996" height="210.846" filterUnits="userSpaceOnUse" color-interpolation-filters="sRGB">
<feFlood flood-opacity="0" result="BackgroundImageFix"/>
<feColorMatrix in="SourceAlpha" type="matrix" values="0 0 0 0 0 0 0 0 0 0 0 0 0 0 0 0 0 0 127 0" result="hardAlpha"/>
<feOffset/>
<feGaussianBlur stdDeviation="7.99761"/>
<feColorMatrix type="matrix" values="0 0 0 0 0 0 0 0 0 0 0 0 0 0 0 0 0 0 0.25 0"/>
<feBlend mode="normal" in2="BackgroundImageFix" result="effect1_dropShadow_403_31"/>
<feBlend mode="normal" in="SourceGraphic" in2="effect1_dropShadow_403_31" result="shape"/>
</filter>
<clipPath id="clip0_403_31">
<rect width="80" height="80" fill="white" transform="translate(119 42.8557)"/>
</clipPath>
</defs>
</svg>
