<svg width="317" height="211" viewBox="0 0 317 211" fill="none" xmlns="http://www.w3.org/2000/svg">
<g filter="url(#filter0_d_403_0)">
<rect x="16" y="16" width="285.006" height="178.856" rx="13.087" fill="white"/>
</g>
<g clip-path="url(#clip0_403_0)">
<path d="M156.353 109.132H152.523L183.315 54.9021H187.298L156.353 109.132Z" fill="#E5E5E5"/>
<path d="M162.634 109.132H158.804L189.596 54.9021H193.426L162.634 109.132Z" fill="#E5E5E5"/>
<path d="M197.868 50.4597H119.128C116.064 50.4597 113.46 53.2172 113.46 56.8938V107.141C113.46 110.664 116.064 113.575 119.281 113.575H146.702V118.63H136.745C135.979 118.63 135.213 119.243 135.213 120.162C135.213 121.081 135.826 121.694 136.745 121.694H180.404C181.17 121.694 181.936 121.081 181.936 120.162C181.936 119.243 181.324 118.63 180.404 118.63H170.447V113.575H197.868C201.085 113.575 203.69 110.664 203.69 107.141V56.8938C203.69 53.2172 201.085 50.4597 197.868 50.4597ZM167.536 118.63H149.613V113.575H167.536V118.63V118.63ZM200.779 88.298V99.3278V102.238V107.141V107.6C200.626 109.285 199.4 110.817 197.868 110.817H119.128C117.596 110.817 116.37 109.438 116.217 107.6V107.141V102.238V99.3278V88.298V56.8938C116.37 54.9023 117.596 53.3704 119.128 53.3704H197.715C199.247 53.3704 200.626 55.0555 200.626 56.8938V88.298H200.779Z" fill="#424242" stroke="#424242" stroke-width="0.765957" stroke-miterlimit="10"/>
<path d="M196.183 109.132H120.966C119.434 109.132 118.209 107.906 118.209 106.374V57.6595C118.209 56.1276 119.434 54.9021 120.966 54.9021H196.183C197.715 54.9021 198.941 56.1276 198.941 57.6595V106.374C198.941 107.906 197.715 109.132 196.183 109.132Z" stroke="#FF7000" stroke-width="1.14894" stroke-miterlimit="10"/>
</g>
<path d="M158.092 148.773H153.658V161H151.207V148.773H146.812V146.781H158.092V148.773ZM165.133 157.904L168.746 146.781H171.461L166.344 161H163.951L158.854 146.781H161.559L165.133 157.904Z" fill="#424242"/>
<defs>
<filter id="filter0_d_403_0" x="0.00478649" y="0.00478649" width="316.996" height="210.846" filterUnits="userSpaceOnUse" color-interpolation-filters="sRGB">
<feFlood flood-opacity="0" result="BackgroundImageFix"/>
<feColorMatrix in="SourceAlpha" type="matrix" values="0 0 0 0 0 0 0 0 0 0 0 0 0 0 0 0 0 0 127 0" result="hardAlpha"/>
<feOffset/>
<feGaussianBlur stdDeviation="7.99761"/>
<feColorMatrix type="matrix" values="0 0 0 0 0 0 0 0 0 0 0 0 0 0 0 0 0 0 0.25 0"/>
<feBlend mode="normal" in2="BackgroundImageFix" result="effect1_dropShadow_403_0"/>
<feBlend mode="normal" in="SourceGraphic" in2="effect1_dropShadow_403_0" result="shape"/>
</filter>
<clipPath id="clip0_403_0">
<rect width="90.9957" height="72" fill="white" transform="translate(113 50)"/>
</clipPath>
</defs>
</svg>
