<svg width="317" height="212" viewBox="0 0 317 212" fill="none" xmlns="http://www.w3.org/2000/svg">
<g filter="url(#filter0_d_143_1702)">
<rect x="15.9971" y="16.8557" width="285.006" height="178.856" rx="13.087" fill="white"/>
</g>
<g clip-path="url(#clip0_143_1702)">
<path d="M206.947 161.94H150.666C148.515 161.94 146.813 160.255 146.813 158.125V155.02C146.813 152.891 148.515 151.205 150.666 151.205H206.947C209.098 151.205 210.801 152.891 210.801 155.02V158.125C210.801 160.255 209.098 161.94 206.947 161.94Z" fill="#63CF02"/>
<path d="M154.43 159.813H152.907L154.251 151.828H156.402C157.119 151.828 157.657 151.828 157.925 151.828C158.284 151.828 158.553 152.006 158.911 152.183C159.18 152.36 159.449 152.627 159.628 152.981C159.807 153.336 159.897 153.691 159.897 154.135C159.897 154.667 159.718 155.2 159.449 155.643C159.18 156.087 158.822 156.353 158.374 156.53C157.925 156.708 157.477 156.708 156.85 156.708H154.878L154.43 159.813ZM155.595 152.981L155.147 155.466H156.581C157.119 155.466 157.477 155.466 157.657 155.377C157.836 155.288 158.015 155.2 158.194 154.933C158.374 154.756 158.463 154.49 158.463 154.135C158.463 153.869 158.374 153.603 158.284 153.425C158.105 153.248 158.015 153.159 157.836 153.07C157.657 152.981 157.298 152.981 156.85 152.981H155.595Z" fill="white"/>
<path d="M165.991 159.813H164.378L164.02 157.861H161.062L160.166 159.813H158.822L162.675 151.828H164.468L165.991 159.813ZM163.93 156.796L163.303 153.247L161.6 156.796H163.93Z" fill="white"/>
<path d="M172.892 160.255L172.802 161.497C172.534 161.497 172.265 161.586 171.906 161.586C171.458 161.586 171.1 161.497 170.831 161.408C170.562 161.319 170.383 161.142 170.293 160.965C170.203 160.787 170.114 160.521 170.114 160.077C170.024 160.077 169.935 160.077 169.845 160.077C168.949 160.077 168.232 159.722 167.694 159.101C167.156 158.48 166.887 157.593 166.887 156.529C166.887 155.286 167.246 154.222 167.873 153.246C168.59 152.27 169.486 151.738 170.652 151.738C171.637 151.738 172.354 152.092 172.892 152.713C173.43 153.335 173.699 154.222 173.699 155.375C173.699 156.351 173.43 157.327 172.982 158.126C172.534 158.924 171.906 159.545 171.1 159.811C171.1 160.255 171.458 160.432 172.085 160.432C172.444 160.344 172.623 160.255 172.892 160.255ZM168.411 156.795C168.411 157.416 168.501 157.948 168.77 158.303C169.038 158.658 169.397 158.835 169.845 158.835C170.652 158.835 171.279 158.392 171.637 157.593C171.996 156.795 172.175 155.907 172.175 155.02C172.175 153.512 171.637 152.802 170.562 152.802C169.845 152.802 169.307 153.246 168.949 154.044C168.59 154.843 168.411 155.819 168.411 156.795Z" fill="white"/>
<path d="M181.406 151.828L180.51 156.973C180.42 157.683 180.241 158.216 180.062 158.57C179.882 158.925 179.524 159.28 179.076 159.546C178.628 159.813 178.09 159.99 177.373 159.99C176.925 159.99 176.566 159.901 176.208 159.813C175.849 159.724 175.491 159.458 175.222 159.103C174.953 158.748 174.774 158.216 174.774 157.595C174.774 157.328 174.774 156.885 174.864 156.441L175.67 151.828H177.194L176.387 156.53C176.298 157.062 176.298 157.417 176.298 157.506C176.298 157.949 176.477 158.216 176.746 158.393C177.014 158.57 177.373 158.659 177.731 158.659C178.09 158.659 178.359 158.57 178.538 158.482C178.807 158.393 178.986 158.127 179.076 157.949C179.255 157.683 179.345 157.24 179.434 156.619L180.241 151.828H181.406Z" fill="white"/>
<path d="M186.962 159.813H181.764L183.109 151.828H188.217L188.038 153.07H184.363L184.005 155.11H187.052L186.873 156.264H183.736L183.378 158.482H187.142L186.962 159.813Z" fill="white"/>
<path d="M194.042 153.07H191.981L190.816 159.813H189.292L190.457 153.07H188.396L188.575 151.828H194.132L194.042 153.07Z" fill="white"/>
<path d="M199.061 159.813H193.863L195.207 151.828H200.316L200.136 153.07H196.462L196.103 155.11H199.151L198.971 156.264H195.924L195.566 158.482H199.33L199.061 159.813Z" fill="white"/>
<path d="M206.499 153.335L205.155 153.778C204.886 153.157 204.348 152.802 203.631 152.802C203.183 152.802 202.825 152.891 202.556 153.157C202.287 153.335 202.198 153.601 202.198 153.956C202.198 154.222 202.287 154.399 202.466 154.577C202.646 154.754 202.915 154.843 203.273 154.932L204.348 155.286C204.707 155.375 204.976 155.553 205.245 155.73C205.513 155.907 205.782 156.174 205.872 156.44C206.051 156.706 206.051 157.061 206.051 157.327C206.051 158.037 205.782 158.658 205.245 159.19C204.707 159.722 203.9 159.989 202.825 159.989C201.212 159.989 200.136 159.368 199.688 158.037L201.032 157.593C201.391 158.392 202.018 158.835 202.915 158.835C203.452 158.835 203.9 158.747 204.169 158.48C204.438 158.214 204.528 157.948 204.528 157.593C204.528 157.416 204.438 157.238 204.348 157.15C204.259 156.972 204.08 156.883 203.99 156.883C203.9 156.883 203.542 156.706 203.094 156.617C202.466 156.44 201.929 156.262 201.66 156.085C201.391 155.907 201.122 155.641 200.853 155.375C200.674 155.02 200.584 154.665 200.584 154.222C200.584 153.512 200.853 152.891 201.391 152.447C201.929 152.004 202.646 151.738 203.542 151.738C205.065 151.649 205.962 152.181 206.499 153.335Z" fill="white"/>
<path d="M108.366 143.752C108.366 142.333 108.366 140.913 108.366 139.494C108.455 137.276 109.62 135.767 111.771 135.324C114.012 134.88 116.342 134.703 118.403 136.034C118.762 136.3 118.941 136.211 119.299 136.034C121.361 134.703 123.691 134.88 125.931 135.324C127.903 135.679 129.247 137.276 129.247 139.316C129.337 142.333 129.247 145.349 129.337 148.366C129.337 149.608 128.53 149.342 127.813 149.342C127.007 149.342 126.111 149.608 126.111 148.277C126.111 145.616 126.111 142.954 126.111 140.292C126.111 138.34 125.483 137.808 123.332 137.808C121.092 137.808 120.464 138.34 120.464 140.381C120.464 142.865 120.375 145.438 120.464 147.922C120.554 149.342 119.748 149.342 118.672 149.431C117.597 149.431 117.149 149.164 117.149 148.011C117.238 145.527 117.149 142.954 117.149 140.47C117.149 138.429 116.432 137.897 114.281 137.897C112.04 137.897 111.323 138.518 111.323 140.558C111.323 143.043 111.234 145.616 111.323 148.1C111.413 149.342 110.786 149.519 109.8 149.431C108.814 149.431 108.097 149.431 108.187 148.1C108.455 146.68 108.366 145.172 108.366 143.752Z" fill="#00537C"/>
<path d="M209.996 87.8579C210.176 93.4474 209.638 98.8594 208.473 104.183C208.025 106.046 207.128 107.643 205.784 108.974C204.261 110.393 202.558 110.926 200.497 110.304C198.435 109.683 197.45 108.175 196.912 106.223C196.284 103.473 196.822 100.811 197.091 98.1496C197.539 93.3587 198.166 88.5677 197.629 83.7768C197.45 82.0023 196.822 80.4053 195.478 79.252C193.506 77.4775 190.638 77.7437 188.308 79.7843C184.992 82.7121 183.11 86.5271 181.497 90.5196C179.077 96.4639 177.375 102.586 175.403 108.619C173.521 114.474 169.847 118.822 163.932 121.129C155.418 124.5 145.649 121.483 140.541 114.031C136.419 107.998 133.103 101.432 129.339 95.2218C128.622 93.9797 127.815 92.8264 126.829 91.8504C125.664 90.697 124.32 90.1647 122.707 90.697C121.004 91.2294 120.466 92.4715 120.197 93.9797C119.48 97.9722 120.645 101.698 121.721 105.514C122.886 109.861 124.589 113.942 125.306 118.378C125.933 122.548 123.513 125.565 119.749 125.121C117.15 124.855 115.627 123.08 114.551 120.862C112.849 117.313 111.684 113.587 110.518 109.861C108.099 102.32 107.203 94.5121 107.83 86.7046C108.368 78.7196 110.16 71.0896 115.268 64.6129C120.466 57.8701 131.041 55.9182 138.211 63.9919C142.154 68.5167 145.291 73.5738 148.428 78.5422C150.22 81.2926 152.192 83.9542 155.239 85.4625C159.361 87.5031 164.111 86.3497 166.531 82.3572C168.682 78.8971 169.847 75.0821 171.46 71.3558C173.342 67.0084 174.776 62.4836 177.464 58.4911C180.78 53.1679 185.44 49.9739 192.072 49.9739C196.016 49.9739 199.152 51.6596 201.572 54.5874C205.515 59.3784 207.218 65.234 208.473 71.0896C209.638 76.679 210.176 82.3572 209.996 87.8579Z" fill="#63CF02"/>
<path d="M138.209 149.431C133.549 149.431 131.757 147.656 131.667 143.131C131.667 142.422 131.667 141.712 131.667 141.002C131.846 135.59 134.714 134.703 138.657 134.88C142.959 135.058 144.303 136.655 144.662 141.268C144.751 142.688 144.572 144.196 144.303 145.616C143.766 148.277 141.884 149.431 138.209 149.431ZM141.525 142.333C141.525 141.712 141.525 141.091 141.525 140.559C141.436 139.494 141.346 138.252 140.091 137.897C138.657 137.453 137.223 137.365 135.789 138.163C135.431 138.429 135.162 138.873 135.073 139.316C134.624 141.268 134.624 143.22 135.073 145.172C135.252 146.059 135.879 146.592 136.775 146.769C139.822 147.213 141.525 146.769 141.436 143.309C141.525 142.954 141.525 142.599 141.525 142.333Z" fill="#00537C"/>
<path d="M199.599 142.511C199.509 143.575 199.688 144.817 199.419 146.059C199.061 147.656 198.165 148.632 196.731 149.076C194.67 149.697 192.608 149.697 190.547 149.076C188.576 148.455 187.41 146.68 187.5 144.729C187.59 142.688 188.934 141.091 190.906 140.559C192.16 140.204 193.505 140.115 194.849 140.292C195.387 140.381 196.014 140.825 196.283 140.026C196.552 139.317 196.283 138.518 195.566 138.074C194.49 137.453 193.325 137.453 192.16 137.542C191.623 137.542 191.085 137.72 190.458 137.72C189.83 137.72 188.934 138.163 188.934 136.921C188.844 135.945 189.024 135.147 190.278 135.058C191.712 135.058 193.146 134.792 194.67 134.969C197.806 135.324 199.419 136.921 199.599 140.026C199.688 140.825 199.599 141.535 199.599 142.511ZM194.132 146.858C194.311 146.858 194.759 146.858 195.297 146.68C196.462 146.326 196.462 145.261 196.552 144.374C196.641 143.841 196.731 143.132 196.014 143.043C194.58 142.777 193.146 142.599 191.712 143.22C191.085 143.486 190.816 144.019 190.816 144.64C190.637 146.148 191.533 146.858 194.132 146.858Z" fill="#00537C"/>
<path d="M152.638 145.882C153.893 143.309 154.789 140.647 155.237 137.808C155.327 137.453 155.327 137.01 155.416 136.655C155.685 135.324 157.298 134.614 158.463 135.324C158.911 135.59 158.822 135.945 158.822 136.389C158.284 140.736 156.671 144.817 154.52 148.721C153.982 149.785 151.025 149.697 150.487 148.632C148.515 144.906 146.723 141.091 146.365 136.743C146.275 136.034 145.917 135.324 147.082 135.235C149.053 135.058 149.591 135.235 149.681 136.566C149.86 139.405 150.756 142.067 151.831 144.64C151.921 144.995 152.011 145.527 152.638 145.882Z" fill="#00537C"/>
<path d="M171.369 149.519C170.293 149.519 169.218 149.342 168.232 149.076C167.694 148.898 167.246 148.721 167.156 148.011C166.977 146.503 167.246 146.148 168.77 146.591C169.935 146.946 171.189 146.858 172.354 146.858C173.251 146.858 174.147 146.591 174.326 145.527C174.505 144.551 173.699 144.196 172.892 143.841C171.637 143.309 170.383 142.954 169.218 142.422C167.515 141.623 166.708 140.203 166.888 138.695C167.156 136.743 168.321 135.59 170.293 135.146C171.996 134.703 173.699 135.058 175.401 135.146C176.835 135.235 176.477 136.388 176.477 137.187C176.477 138.34 175.67 137.808 175.133 137.719C173.788 137.631 172.444 137.187 171.1 137.719C170.562 137.897 170.114 138.074 170.114 138.695C170.024 139.316 170.293 139.76 170.92 140.026C172.085 140.47 173.251 140.913 174.416 141.446C176.656 142.333 177.642 143.752 177.463 145.616C177.283 147.656 175.939 148.987 173.519 149.431C172.713 149.431 171.996 149.431 171.369 149.519Z" fill="#00537C"/>
<path d="M179.613 139.139C179.613 137.276 179.703 135.413 179.613 133.55C179.613 132.574 179.972 132.219 180.868 132.396C181.675 132.485 182.929 131.864 182.84 133.461C182.75 134.792 183.198 135.324 184.543 135.147C185.618 134.969 185.708 135.679 185.708 136.477C185.708 137.276 185.618 137.897 184.543 137.719C182.929 137.453 182.661 138.252 182.75 139.583C182.84 141.18 182.75 142.777 182.75 144.374C182.75 145.616 183.378 146.414 184.632 146.414C185.976 146.414 185.797 147.301 185.887 148.1C185.976 149.253 185.17 149.076 184.453 149.076C181.316 149.076 179.613 147.39 179.524 144.285C179.524 142.599 179.613 140.825 179.613 139.139Z" fill="#00537C"/>
<path d="M205.066 148.898C204.349 149.519 203.452 149.164 202.646 149.164C202.108 149.164 202.108 148.632 202.108 148.277C202.108 145.172 202.018 142.067 202.198 138.962C202.287 136.921 203.721 135.413 205.783 135.058C206.41 134.969 206.948 134.88 207.575 134.88C208.381 134.88 209.457 134.437 209.457 136.034C209.457 137.365 209.009 137.808 207.754 137.719C205.783 137.631 205.334 138.252 205.155 140.204C205.155 140.736 205.155 141.18 205.066 141.712C204.617 144.107 204.707 146.503 205.066 148.898Z" fill="#00537C"/>
<path d="M164.289 142.244C164.289 144.107 164.199 146.059 164.289 147.922C164.378 149.164 163.661 149.164 162.765 149.076C161.958 148.987 160.973 149.431 160.973 148.011C161.062 144.107 161.062 140.203 160.973 136.3C160.973 134.969 161.779 135.058 162.675 135.058C163.661 135.058 164.378 135.146 164.289 136.388C164.199 138.34 164.289 140.292 164.289 142.244Z" fill="#00537C"/>
<path d="M205.155 149.076C204.797 146.68 204.707 144.285 205.155 141.889C205.155 144.285 205.155 146.68 205.155 149.076Z" fill="#00537C"/>
</g>
<defs>
<filter id="filter0_d_143_1702" x="0.00188732" y="0.860499" width="316.996" height="210.846" filterUnits="userSpaceOnUse" color-interpolation-filters="sRGB">
<feFlood flood-opacity="0" result="BackgroundImageFix"/>
<feColorMatrix in="SourceAlpha" type="matrix" values="0 0 0 0 0 0 0 0 0 0 0 0 0 0 0 0 0 0 127 0" result="hardAlpha"/>
<feOffset/>
<feGaussianBlur stdDeviation="7.99761"/>
<feColorMatrix type="matrix" values="0 0 0 0 0 0 0 0 0 0 0 0 0 0 0 0 0 0 0.25 0"/>
<feBlend mode="normal" in2="BackgroundImageFix" result="effect1_dropShadow_143_1702"/>
<feBlend mode="normal" in="SourceGraphic" in2="effect1_dropShadow_143_1702" result="shape"/>
</filter>
<clipPath id="clip0_143_1702">
<rect width="103.242" height="111.967" fill="white" transform="translate(107.559 49.9739)"/>
</clipPath>
</defs>
</svg>
