<svg width="318" height="212" viewBox="0 0 318 212" fill="none" xmlns="http://www.w3.org/2000/svg">
<g filter="url(#filter0_d_143_1729)">
<rect x="16.9915" y="16.8557" width="285.006" height="178.856" rx="13.087" fill="white"/>
</g>
<g clip-path="url(#clip0_143_1729)">
<path d="M94.2748 124.954L95.6571 126.25L96.7761 124.954H102.437L103.687 123.14H94.9989L94.7356 122.881H92.0369L91.9053 123.14H65.9714L64.7208 124.954H94.2748Z" fill="#254AA5"/>
<path d="M93.5508 121.326H89.9964L89.0749 120.419H67.7486L68.9992 118.605H87.2319L87.2977 118.216H90.9179L90.9837 118.605H106.781L105.53 120.419H92.8268C92.8268 120.419 92.8926 120.872 93.5508 121.326Z" fill="#254AA5"/>
<path d="M88.7459 115.884H108.624L109.875 114.134H88.7459L89.0092 113.681H82.6903L82.427 114.134H72.093L70.9082 115.884H84.3358L85.1915 116.661H89.4041L88.7459 115.884Z" fill="#254AA5"/>
<path d="M91.1154 111.154H111.915L113.166 109.34H92.366L92.2343 109.016H85.9813L85.7838 109.405H75.3839L74.1333 111.219H83.8091C83.8091 111.219 84.4674 111.348 84.0066 111.996H90.4572L91.1154 111.154Z" fill="#254AA5"/>
<path d="M94.5381 106.619H115.009L116.259 104.805H96.3153L96.1837 104.481H89.2724L89.0091 104.87H78.4776L77.227 106.619H87.1003C87.1003 106.619 87.6268 106.878 87.2319 107.332H94.209C94.209 107.332 94.209 107.072 94.5381 106.619Z" fill="#254AA5"/>
<path d="M97.6318 102.797H90.5888C90.9838 102.213 90.0622 102.084 90.0622 102.084H80.2548L81.5054 100.27H92.366L92.6293 99.8811H99.7381L100.067 100.27H119.287L118.037 102.084H98.0267C98.0267 102.084 97.7634 102.408 97.6318 102.797Z" fill="#254AA5"/>
<path d="M102.568 97.6135H121.196L122.447 95.7994H104.148L103.687 95.022H96.1179L95.5255 95.7994H84.6649L83.4143 97.6135H93.0243C93.0243 97.6135 94.2091 97.6135 93.6825 98.3261H102.305C102.305 98.3261 102.305 98.1318 102.568 97.6135Z" fill="#254AA5"/>
<path d="M104.411 91.3293H125.409L124.158 93.1433H106.254C105.728 93.1433 105.399 93.9207 105.399 93.9207H96.9078C97.3685 93.2081 96.3812 93.1433 96.3812 93.1433H86.4421L87.6269 91.3293H103.358L104.017 90.7462L105.596 88.7378H105.201L106.649 86.9885H107.703L106.386 88.7378H106.057L104.346 90.811L104.411 91.3293Z" fill="#254AA5"/>
<path d="M137.717 91.394L132.781 98.4558H128.766L125.343 103.315H129.555L117.51 120.613C117.51 120.613 116.589 121.974 116.589 123.982C116.589 125.926 119.156 126.25 119.156 126.25H128.305L131.201 121.261H126.659C126.659 121.261 124.882 121.067 125.738 119.706C126.593 118.281 137.125 103.315 137.125 103.315H142.456L145.353 98.4558H140.482L145.353 91.394H137.717Z" fill="#254AA5"/>
<path d="M166.284 126.25L189.651 91.394H181.818L158.517 126.25H166.284Z" fill="#254AA5"/>
<path d="M231.843 126.25L255.209 91.394H247.376L224.076 126.25H231.843Z" fill="#254AA5"/>
<path d="M147.196 110.053H159.57C159.57 110.053 160.953 107.785 161.347 105.906C161.742 104.027 159.504 103.509 157.003 103.509C154.436 103.574 150.553 103.833 147.196 110.053ZM162.73 114.912H143.971C143.971 114.912 142.062 117.114 141.864 119.058C141.864 119.058 141.864 120.613 143.839 120.613H158.254L154.502 126.249H142.72C142.72 126.249 133.768 126.249 133.768 121.261C133.768 121.261 133.702 117.503 140.219 108.822C146.735 100.14 151.277 99.7515 158.78 99.7515C166.284 99.7515 168.325 102.019 168.127 103.898C167.93 106.036 167.666 107.202 162.73 114.912Z" fill="#254AA5"/>
<path d="M212.03 110.053H224.405C224.405 110.053 225.787 107.785 226.182 105.906C226.577 104.027 224.339 103.509 221.838 103.509C219.336 103.574 215.453 103.833 212.03 110.053ZM227.63 114.912H208.871C208.871 114.912 206.962 117.114 206.765 119.058C206.765 119.058 206.765 120.613 208.739 120.613H223.154L219.336 126.249H207.554C207.554 126.249 198.603 126.249 198.603 121.261C198.603 121.261 198.537 117.503 205.053 108.822C211.57 100.14 216.111 99.7515 223.615 99.7515C231.119 99.7515 233.159 102.019 232.962 103.898C232.764 106.036 232.501 107.202 227.63 114.912Z" fill="#254AA5"/>
<path d="M182.016 119.058C182.016 119.058 182.016 120.613 183.99 120.613H196.562L192.81 126.249H182.937C182.937 126.249 173.327 126.509 173.985 121.261C173.985 121.261 173.854 117.503 180.436 108.822C180.436 108.822 186.36 99.7515 199.129 99.7515H207.554L203.737 105.323H196.957C196.365 105.323 191.362 105.841 186.952 110.506C182.542 115.236 182.213 117.438 182.016 119.058Z" fill="#254AA5"/>
</g>
<rect x="182" y="131" width="51" height="15" fill="#254AA5"/>
<path d="M189.026 139.928H187.137L186.471 143.739H184.793L186.512 133.848L189.63 133.855C190.704 133.855 191.526 134.113 192.096 134.629C192.667 135.145 192.914 135.863 192.837 136.782C192.787 137.421 192.574 137.976 192.198 138.447C191.822 138.913 191.295 139.28 190.615 139.547L192.076 143.637L192.069 143.739H190.289L189.026 139.928ZM187.368 138.549L188.992 138.562C189.576 138.562 190.063 138.411 190.452 138.107C190.846 137.799 191.077 137.383 191.145 136.857C191.213 136.345 191.123 135.954 190.874 135.682C190.625 135.406 190.246 135.258 189.739 135.24L187.946 135.234L187.368 138.549ZM199.671 139.323H195.731L195.201 142.367H199.807L199.569 143.739H193.285L194.997 133.848H201.24L200.996 135.234H196.437L195.962 137.965H199.909L199.671 139.323ZM208.836 140.512C208.668 141.545 208.204 142.369 207.443 142.985C206.682 143.596 205.756 143.893 204.664 143.875C204.035 143.861 203.482 143.712 203.007 143.427C202.536 143.141 202.167 142.727 201.899 142.183C201.632 141.635 201.483 141.017 201.451 140.329C201.424 139.812 201.487 139.11 201.641 138.223C201.795 137.33 202.09 136.531 202.524 135.825C202.964 135.118 203.5 134.586 204.135 134.228C204.773 133.87 205.482 133.698 206.261 133.712C207.244 133.73 208.02 134.04 208.591 134.643C209.166 135.24 209.472 136.067 209.508 137.122H207.844C207.821 136.416 207.672 135.906 207.395 135.594C207.124 135.277 206.718 135.111 206.179 135.098C205.441 135.075 204.823 135.34 204.325 135.893C203.827 136.445 203.491 137.249 203.319 138.304L203.183 139.208L203.122 139.901C203.086 140.367 203.118 140.806 203.217 141.219C203.322 141.626 203.503 141.939 203.761 142.156C204.019 142.369 204.347 142.482 204.746 142.496C206.01 142.546 206.82 141.889 207.178 140.526L208.836 140.512ZM211.641 143.739H209.97L211.689 133.848H213.36L211.641 143.739ZM213.761 143.739L215.48 133.848L218.516 133.855C219.585 133.859 220.387 134.092 220.921 134.554C221.46 135.012 221.698 135.648 221.635 136.463C221.553 137.423 220.966 138.146 219.875 138.63C220.283 138.775 220.597 139.04 220.819 139.425C221.041 139.81 221.136 140.27 221.105 140.804C221.041 141.71 220.677 142.426 220.011 142.951C219.35 143.476 218.476 143.739 217.389 143.739H213.761ZM216.213 139.276L215.677 142.367L217.436 142.374C217.966 142.374 218.417 142.233 218.788 141.952C219.159 141.672 219.379 141.287 219.447 140.797C219.51 140.331 219.44 139.966 219.236 139.704C219.033 139.441 218.695 139.301 218.224 139.282L216.213 139.276ZM216.431 138.012L217.973 138.019C218.525 138.019 218.976 137.888 219.325 137.625C219.673 137.362 219.88 137.007 219.943 136.558C220.056 135.711 219.628 135.272 218.659 135.24L216.913 135.234L216.431 138.012ZM226.152 143.875C225.509 143.861 224.943 143.707 224.454 143.413C223.969 143.119 223.591 142.693 223.319 142.136C223.048 141.574 222.894 140.938 222.857 140.227C222.826 139.661 222.875 138.999 223.007 138.243C223.143 137.487 223.38 136.798 223.72 136.178C224.064 135.553 224.474 135.043 224.95 134.649C225.733 134.006 226.639 133.694 227.667 133.712C228.645 133.73 229.424 134.067 230.004 134.724C230.588 135.381 230.908 136.268 230.962 137.387C230.989 137.949 230.937 138.594 230.806 139.323C230.679 140.048 230.457 140.716 230.14 141.327C229.827 141.934 229.438 142.441 228.971 142.849C228.165 143.556 227.226 143.898 226.152 143.875ZM229.243 138.528L229.304 137.808C229.332 137.315 229.288 136.859 229.175 136.443C229.062 136.022 228.87 135.702 228.598 135.485C228.331 135.263 227.991 135.145 227.579 135.132C227.008 135.114 226.501 135.274 226.057 135.614C225.618 135.954 225.26 136.47 224.984 137.163C224.712 137.856 224.553 138.725 224.508 139.772C224.463 140.6 224.59 141.253 224.889 141.728C225.187 142.204 225.636 142.451 226.234 142.469C227.017 142.491 227.663 142.197 228.17 141.585C228.682 140.974 229.017 140.114 229.175 139.004L229.243 138.528Z" fill="white"/>
<defs>
<filter id="filter0_d_143_1729" x="0.996242" y="0.860499" width="316.996" height="210.846" filterUnits="userSpaceOnUse" color-interpolation-filters="sRGB">
<feFlood flood-opacity="0" result="BackgroundImageFix"/>
<feColorMatrix in="SourceAlpha" type="matrix" values="0 0 0 0 0 0 0 0 0 0 0 0 0 0 0 0 0 0 127 0" result="hardAlpha"/>
<feOffset/>
<feGaussianBlur stdDeviation="7.99761"/>
<feColorMatrix type="matrix" values="0 0 0 0 0 0 0 0 0 0 0 0 0 0 0 0 0 0 0.25 0"/>
<feBlend mode="normal" in2="BackgroundImageFix" result="effect1_dropShadow_143_1729"/>
<feBlend mode="normal" in="SourceGraphic" in2="effect1_dropShadow_143_1729" result="shape"/>
</filter>
<clipPath id="clip0_143_1729">
<rect width="190.488" height="39.261" fill="white" transform="translate(64.7208 86.9885)"/>
</clipPath>
</defs>
</svg>
