<svg width="318" height="212" viewBox="0 0 318 212" fill="none" xmlns="http://www.w3.org/2000/svg">
<g filter="url(#filter0_d_143_1678)">
<rect x="16.0028" y="16.8557" width="285.006" height="178.856" rx="13.087" fill="white"/>
</g>
<g clip-path="url(#clip0_143_1678)">
<path d="M190.208 104.684C190.779 104.684 191.236 104.684 191.693 104.684C204.152 104.684 216.61 104.684 229.068 104.684C238.212 104.684 246.099 111.018 248.956 120.407C253.071 134.207 243.47 148.799 229.983 149.251C227.24 149.365 224.611 149.251 221.868 149.251C203.466 149.251 185.064 149.251 166.662 149.251C160.49 149.251 155.233 146.989 151.004 142.125C150.432 141.56 150.089 141.786 149.632 142.012C142.089 146.197 134.431 149.704 126.201 152.306C117.172 155.133 108.028 156.604 98.6557 156.152C89.1691 155.699 80.7111 152.419 74.1962 144.614C69.51 138.958 67.3384 132.058 66.7669 124.592C64.7095 95.7477 79.6824 70.2967 104.828 60.2294C113.743 56.6097 123.001 55.3654 132.488 55.931C141.06 56.3835 149.404 57.5146 157.747 59.7769C165.291 61.813 172.606 64.754 179.121 69.5049C183.921 73.0115 187.922 77.3099 190.208 83.0788C192.951 89.7526 193.065 96.4264 190.665 103.326C190.55 103.666 190.436 104.005 190.208 104.684ZM148.832 139.184C148.489 138.619 148.261 138.166 148.032 137.714C145.289 132.284 144.717 126.515 146.318 120.52C149.061 110.905 156.947 104.684 166.319 104.571C172.949 104.571 179.578 104.571 186.093 104.571C186.664 104.571 187.122 104.571 187.35 103.892C189.75 98.2363 190.208 92.4674 188.379 86.5854C186.436 80.364 182.55 75.8394 177.635 72.2197C171.12 67.3557 163.691 64.5278 156.147 62.4917C148.261 60.3425 140.145 59.3245 132.03 58.872C121.744 58.3064 111.8 59.8901 102.428 64.4147C79.4538 75.6131 67.4527 99.0281 69.7386 125.271C70.8816 138.053 77.2822 146.876 88.5976 151.288C94.4267 153.55 100.484 153.55 106.542 153.211C115.343 152.645 123.801 150.496 132.03 147.328C137.86 144.953 143.346 142.351 148.832 139.184ZM197.637 146.31C207.924 146.31 218.325 146.31 228.611 146.31C230.211 146.31 231.812 146.084 233.297 145.745C242.327 143.709 248.499 133.528 246.899 123.8C245.184 114.072 237.984 107.625 228.84 107.625C208.038 107.625 187.236 107.625 166.319 107.625C164.948 107.625 163.576 107.738 162.205 108.077C151.918 110.227 145.403 122.669 149.061 133.302C152.032 141.446 158.433 146.31 166.548 146.31C176.949 146.31 187.236 146.31 197.637 146.31Z" fill="white"/>
<path d="M148.834 139.184C143.348 142.352 137.861 144.953 132.146 147.216C123.803 150.383 115.345 152.532 106.658 153.098C100.601 153.437 94.5428 153.437 88.7136 151.175C77.3982 146.763 70.9976 138.053 69.8546 125.158C67.5687 99.0284 79.5699 75.6135 102.658 64.415C112.144 59.8904 121.974 58.3068 132.261 58.8723C140.376 59.3248 148.491 60.3428 156.377 62.492C164.035 64.5281 171.35 67.356 177.865 72.22C182.78 75.8397 186.666 80.3643 188.609 86.5857C190.438 92.4677 189.866 98.2366 187.58 103.892C187.238 104.571 186.895 104.571 186.323 104.571C179.694 104.571 173.065 104.571 166.55 104.571C157.177 104.571 149.291 110.792 146.548 120.52C144.833 126.516 145.519 132.171 148.262 137.714C148.262 138.166 148.491 138.619 148.834 139.184ZM129.289 117.353C129.403 117.466 129.518 117.466 129.632 117.579C129.518 124.479 129.289 131.379 129.175 138.28C129.175 139.411 129.289 140.542 129.518 141.56C129.861 142.804 131.346 143.483 132.489 143.144C133.747 142.691 134.432 141.334 133.975 139.976C133.747 139.298 133.404 138.506 133.518 137.94C133.975 136.583 133.061 135.452 133.175 134.094C133.289 132.511 132.832 131.04 132.832 129.457C132.832 125.271 133.061 120.973 133.061 116.788C133.061 114.978 133.632 113.847 135.004 112.942C138.661 110.566 142.319 107.965 145.976 105.702C151.234 102.535 156.377 99.1415 162.321 97.4448C163.692 96.9923 164.835 96.0874 165.407 94.6169C165.864 93.5989 165.293 92.3546 164.264 92.3546C163.35 92.3546 162.435 92.4677 161.521 92.6939C160.378 93.1464 159.463 93.8251 158.32 94.3907C157.292 94.9562 156.835 94.73 156.606 93.4857C156.377 92.4677 156.377 91.3365 156.377 90.2054C156.377 88.1693 156.492 86.1332 156.377 83.984C156.377 83.0791 156.149 81.9479 155.577 81.2692C155.006 80.3643 153.863 80.5905 153.063 81.043C152.148 81.6086 151.348 82.2873 150.663 83.0791C149.977 83.7578 149.405 84.2102 148.377 83.984C146.319 83.6447 144.491 84.8889 144.376 86.925C144.033 90.771 143.919 94.6169 143.805 98.3497C143.805 99.3677 144.376 99.8202 145.291 99.7071C146.662 99.594 147.919 98.2366 148.034 96.653C148.148 94.6169 148.148 92.4677 148.377 90.4316C148.491 88.6218 149.062 86.8119 150.434 85.6808C150.891 85.3414 151.577 85.1152 152.148 85.2283C152.377 85.2283 152.606 86.1332 152.606 86.6988C152.606 89.1873 152.377 91.6759 152.377 94.0513C152.377 94.9562 152.72 95.8612 152.948 96.9923C146.548 100.951 139.919 105.137 133.061 109.435C133.175 106.72 133.289 104.005 133.518 101.404C133.632 98.4628 133.975 95.5218 134.09 92.5808C134.09 92.1283 133.747 91.4496 133.404 91.2234C132.375 90.5447 130.661 91.4496 130.432 92.6939C130.318 93.2595 130.318 93.8251 130.203 94.3907C129.861 97.7841 129.632 101.064 129.289 104.458C129.175 105.476 128.832 106.381 127.917 106.947C126.66 107.738 125.632 107.286 125.632 105.702C125.632 104.571 125.974 103.327 125.86 102.196C125.746 99.7071 126.66 97.7841 128.032 95.9743C128.26 95.6349 128.489 95.1825 128.603 94.73C128.946 93.4857 128.489 92.9202 127.232 93.2595C125.86 93.5989 124.831 94.5038 124.031 95.748C121.288 100.046 121.517 104.797 121.974 109.548C122.088 111.132 123.688 111.924 125.174 111.584C126.546 111.245 127.803 110.679 129.06 110.34C129.175 112.263 129.175 112.15 127.803 113.394C121.974 118.258 116.031 123.122 110.316 128.099C107.344 130.701 104.601 133.755 101.858 136.696C100.943 137.601 101.058 139.184 101.972 139.863C102.886 140.655 104.258 140.655 105.058 139.863C105.744 139.184 106.43 138.506 107.001 137.714C109.973 134.547 112.716 131.266 115.802 128.212C119.002 125.045 122.546 122.217 125.974 119.276C127.46 118.824 128.375 118.145 129.289 117.353ZM89.3994 103.892C89.5137 103.892 89.628 103.892 89.7423 103.892C89.8566 104.232 90.0852 104.571 90.0852 104.91C90.4281 106.947 90.771 108.983 90.9996 111.019C91.4568 114.299 91.9139 117.579 92.4854 120.86C93.1712 125.158 93.857 129.457 94.5428 133.755C94.6571 134.66 95.1143 135.339 96.0286 135.452C96.943 135.452 97.6288 134.886 97.9717 133.981C98.086 133.529 98.2003 132.963 98.3146 132.511C99.0004 127.42 99.5718 122.443 100.258 117.353C100.372 116.901 100.486 116.448 100.601 115.996C100.715 115.543 100.829 115.204 100.829 114.751C100.943 113.847 100.829 112.942 100.943 112.037C101.172 110.566 101.515 109.096 101.858 107.625C102.315 105.137 102.658 102.648 103.229 100.16C103.572 98.4628 104.372 96.9923 104.829 95.2956C105.401 93.4857 105.63 91.6759 106.201 89.866C107.458 85.907 108.716 81.8348 110.087 77.8758C111.002 75.161 112.373 72.6725 114.316 70.7495C114.888 70.1839 115.345 69.279 115.688 68.4872C116.259 66.7904 115.459 64.9806 113.859 64.3019C112.144 63.6232 110.659 64.3019 109.63 66.338C108.944 67.6954 108.487 69.0527 107.916 70.4101C106.43 74.8216 104.829 79.3463 103.458 83.7578C102.315 87.3775 101.286 90.9972 100.601 94.6169C99.229 100.951 98.086 107.286 96.943 113.62C96.7144 114.865 96.6001 116.222 96.3715 117.466C96.0286 116.901 95.9143 116.335 95.8 115.77C95.6857 114.186 95.5714 112.715 95.3429 111.132C94.8857 108.53 94.3142 106.042 93.857 103.44C93.2855 100.386 92.9426 97.2186 92.3711 94.1644C92.1425 92.9202 91.4568 92.2415 90.4281 92.1283C89.3994 92.0152 88.7136 92.6939 88.2564 93.712C88.1422 93.9382 88.0279 94.1644 88.0279 94.5038C87.3421 96.8792 86.542 99.3677 85.8562 101.743C85.0561 104.458 84.1418 107.173 83.2274 110.001C82.8845 111.132 83.2274 111.924 84.0275 112.263C84.9418 112.602 85.9705 112.15 86.3134 111.245C86.8849 109.888 87.3421 108.417 87.7993 107.06C88.485 106.268 88.9422 105.024 89.3994 103.892ZM112.487 113.733C112.602 114.299 112.487 114.865 112.716 115.317C112.945 115.77 113.63 116.222 113.973 116.222C115.459 116.109 116.602 114.638 116.716 113.055C116.831 111.358 116.831 109.774 116.945 108.078C117.059 105.589 117.631 103.44 119.688 102.083C120.031 101.856 120.374 101.404 120.717 101.064C121.288 100.273 121.06 99.4809 120.602 98.6891C120.145 98.0104 119.459 98.2366 118.888 98.4628C117.974 98.8022 117.174 99.2546 116.259 99.4809C114.088 99.9333 113.287 100.725 113.059 103.101C112.83 106.607 112.716 110.227 112.487 113.733ZM108.601 119.05C108.716 117.466 108.83 115.996 108.944 114.638C109.287 111.358 109.63 108.078 109.859 104.797C109.973 103.214 109.058 102.648 107.801 103.327C106.087 104.232 105.63 105.815 105.401 107.738C105.287 109.548 105.172 111.358 105.058 113.168C104.944 115.204 104.829 117.127 104.829 119.163C104.829 120.633 105.63 121.086 106.887 120.294C107.458 119.955 108.03 119.502 108.601 119.05ZM136.833 101.404C136.833 102.309 136.49 103.44 137.747 103.666C138.89 103.892 140.719 102.196 140.833 100.951C140.947 99.7071 141.062 98.4628 141.176 97.2186C141.29 94.6169 141.519 92.0152 141.519 89.4136C141.519 88.848 141.29 87.9431 140.947 87.83C140.49 87.6037 139.69 87.83 139.233 88.0562C138.204 88.7349 137.861 89.9791 137.747 91.2234C137.518 94.6169 137.176 98.0104 136.833 101.404ZM111.687 94.8431C111.687 93.8251 111.116 93.1464 110.43 93.3726C109.287 93.5989 107.801 95.1825 107.573 96.4267C107.458 97.3317 107.916 98.0104 108.601 98.1235C109.63 98.1235 111.687 95.9743 111.687 94.8431ZM143.233 80.3643C143.005 80.1381 142.547 79.6856 142.09 79.6856C140.833 79.4594 139.233 80.9299 139.119 82.2873C139.004 83.3053 139.576 83.7578 140.49 83.7578C141.633 83.7578 143.348 81.8348 143.233 80.3643Z" fill="#CC0000"/>
<path d="M197.639 146.311C187.238 146.311 176.836 146.311 166.55 146.311C158.435 146.311 152.034 141.447 149.177 133.303C145.519 122.67 152.034 110.227 162.321 108.078C163.692 107.851 165.064 107.625 166.435 107.625C187.238 107.625 208.04 107.625 228.956 107.625C238.1 107.625 245.3 114.073 247.015 123.801C248.729 133.529 242.443 143.709 233.413 145.745C231.928 146.085 230.327 146.311 228.727 146.311C218.326 146.311 208.04 146.311 197.639 146.311ZM171.465 122.443C168.379 120.294 165.407 120.634 162.321 121.765C162.092 121.878 161.864 122.33 161.864 122.67C161.864 126.629 161.864 130.475 161.864 134.434C161.864 134.886 162.092 135.565 162.435 135.678C162.892 136.017 163.578 136.13 164.035 136.017C164.835 135.791 165.064 135.112 165.064 134.207C165.064 131.04 165.064 127.873 165.064 124.706C165.064 123.461 165.521 123.122 166.435 123.122C166.778 123.122 167.236 123.122 167.578 123.122C168.95 123.235 169.636 124.027 169.636 125.498C169.636 126.516 169.636 127.42 169.636 128.439C169.636 130.361 169.636 132.398 169.636 134.321C169.636 135.225 170.093 136.017 170.893 136.017C171.465 136.017 172.15 135.565 172.608 135.112C172.836 134.886 172.836 134.207 172.836 133.755C172.836 130.814 172.836 127.76 172.836 124.819C172.836 124.366 173.065 123.801 173.293 123.575C174.208 122.783 175.351 122.783 176.379 123.235C177.294 123.688 177.522 124.706 177.522 125.724C177.522 128.552 177.522 131.266 177.522 134.094C177.522 135.339 178.094 136.017 179.008 136.13C180.037 136.13 180.608 135.452 180.608 134.094C180.608 131.153 180.608 128.325 180.608 125.384C180.608 123.009 179.237 121.312 176.951 120.86C175.008 120.634 173.065 121.086 171.465 122.443ZM199.467 121.538C199.467 119.729 199.467 118.032 199.467 116.335C199.467 115.204 198.896 114.525 197.981 114.412C197.067 114.412 196.381 115.091 196.381 116.335C196.381 122.443 196.381 128.665 196.381 134.773C196.381 135.112 196.724 135.678 197.067 135.791C198.781 136.583 200.61 136.696 202.439 136.357C204.954 135.904 206.668 134.321 207.239 131.606C207.582 130.022 207.697 128.212 207.582 126.516C207.125 122.557 204.496 120.407 201.067 120.973C200.496 121.199 200.039 121.312 199.467 121.538ZM194.324 128.665C194.21 127.647 194.095 126.742 193.981 125.724C193.41 122.67 191.352 120.973 188.723 120.86C185.866 120.747 183.923 122.33 183.123 125.384C182.551 127.307 182.551 129.343 183.009 131.38C183.694 134.66 185.637 136.47 188.495 136.47C191.352 136.47 193.295 134.773 193.981 131.606C194.095 130.701 194.21 129.683 194.324 128.665ZM224.727 129.909C227.013 129.57 229.184 129.23 231.356 128.891C233.299 128.552 233.299 128.552 233.071 126.402C232.613 123.122 230.899 121.199 228.042 120.973C224.955 120.747 222.784 122.557 221.984 125.724C221.527 127.647 221.527 129.57 221.984 131.606C222.441 133.529 223.355 134.999 225.07 135.791C227.584 137.035 230.099 136.696 232.613 135.565C233.299 135.225 233.528 134.66 233.299 133.981C232.956 133.303 232.499 133.189 231.699 133.416C230.67 133.755 229.642 134.094 228.613 134.094C226.098 134.207 224.727 132.624 224.727 129.909ZM219.241 125.384C219.241 122.443 219.241 119.389 219.241 116.448C219.241 115.091 218.669 114.412 217.755 114.299C216.726 114.299 216.155 115.091 216.155 116.448C216.155 122.33 216.155 128.212 216.155 134.094C216.155 135.452 216.84 136.244 217.755 136.244C218.669 136.244 219.241 135.452 219.241 134.094C219.241 131.153 219.241 128.325 219.241 125.384ZM210.097 128.778C210.097 130.588 210.097 132.398 210.097 134.207C210.097 135.452 210.668 136.13 211.583 136.244C212.611 136.244 213.183 135.452 213.183 134.207C213.183 130.588 213.183 126.855 213.183 123.235C213.183 121.991 212.497 121.199 211.583 121.199C210.668 121.199 210.097 121.991 210.097 123.235C209.983 125.045 210.097 126.968 210.097 128.778ZM211.583 115.204C210.668 115.204 209.868 115.996 209.868 116.901C209.868 117.806 210.668 118.597 211.583 118.597C212.497 118.597 213.297 117.806 213.297 116.901C213.297 115.996 212.611 115.204 211.583 115.204Z" fill="black"/>
<path d="M129.289 117.353C128.375 118.145 127.346 118.824 126.432 119.616C123.003 122.557 119.46 125.384 116.259 128.552C113.173 131.493 110.43 134.886 107.458 138.053C106.773 138.732 106.201 139.524 105.515 140.203C104.601 141.108 103.229 141.108 102.429 140.203C101.629 139.411 101.515 137.94 102.315 137.035C105.058 134.094 107.801 131.04 110.773 128.439C116.488 123.348 122.431 118.598 128.26 113.734C129.632 112.602 129.746 112.602 129.518 110.679C128.26 111.132 127.003 111.697 125.632 111.924C124.031 112.263 122.546 111.471 122.431 109.888C121.86 105.137 121.745 100.273 124.489 96.0875C125.289 94.8432 126.317 93.9383 127.689 93.599C128.832 93.2596 129.289 93.8252 129.06 95.0695C128.946 95.5219 128.718 95.9744 128.489 96.3137C127.117 98.1236 126.203 100.047 126.317 102.535C126.432 103.666 126.089 104.911 126.089 106.042C126.089 107.625 127.117 108.191 128.375 107.286C129.289 106.72 129.632 105.815 129.746 104.797C130.089 101.404 130.318 98.1236 130.661 94.7301C130.661 94.1646 130.775 93.599 130.889 93.0334C131.118 91.676 132.832 90.8842 133.861 91.5629C134.204 91.7891 134.547 92.4678 134.547 92.9203C134.432 95.8613 134.204 98.8023 133.975 101.743C133.861 104.458 133.747 107.06 133.518 109.775C140.376 105.476 147.005 101.291 153.406 97.3318C153.177 96.2006 152.834 95.2957 152.834 94.3908C152.834 91.9022 152.949 89.4137 153.063 87.0383C153.063 86.4727 152.834 85.5678 152.606 85.5678C152.034 85.5678 151.348 85.6809 150.891 86.0202C149.52 87.1514 148.948 88.9612 148.834 90.7711C148.605 92.8072 148.605 94.8432 148.491 96.9924C148.377 98.4629 147.119 99.8203 145.748 100.047C144.833 100.16 144.262 99.7072 144.262 98.6892C144.376 94.8432 144.491 90.9973 144.833 87.2645C144.948 85.2284 146.891 83.871 148.834 84.3235C149.863 84.5497 150.434 84.0973 151.12 83.4186C151.92 82.6267 152.72 81.9481 153.52 81.3825C154.32 80.93 155.463 80.7038 156.035 81.6087C156.492 82.2874 156.72 83.4186 156.835 84.3235C156.949 86.3596 156.835 88.3957 156.835 90.5448C156.835 91.676 156.835 92.694 157.063 93.8252C157.292 94.9564 157.749 95.1826 158.778 94.7301C159.806 94.1646 160.835 93.4859 161.978 93.0334C162.778 92.694 163.807 92.5809 164.721 92.694C165.75 92.694 166.207 93.9383 165.864 94.9564C165.293 96.4269 164.15 97.3318 162.778 97.7842C156.949 99.5941 151.691 102.874 146.434 106.042C142.662 108.304 139.119 110.906 135.461 113.281C134.09 114.186 133.518 115.317 133.518 117.127C133.518 121.312 133.289 125.611 133.289 129.796C133.289 131.38 133.747 132.85 133.632 134.434C133.632 135.791 134.547 136.809 133.975 138.28C133.747 138.845 134.204 139.637 134.432 140.316C134.775 141.673 134.09 143.031 132.947 143.483C131.804 143.935 130.318 143.257 129.975 141.899C129.746 140.881 129.632 139.637 129.632 138.619C129.746 131.719 129.861 124.819 130.089 117.919C129.518 117.466 129.403 117.353 129.289 117.353Z" fill="white"/>
<path d="M89.3993 103.893C88.9422 105.024 88.485 106.155 88.0278 107.399C87.5706 108.757 87.1134 110.227 86.5419 111.584C86.199 112.602 85.0561 113.055 84.256 112.602C83.3416 112.263 83.113 111.471 83.4559 110.34C84.256 107.625 85.1704 104.911 86.0847 102.083C86.8848 99.7072 87.5706 97.2187 88.2564 94.8433C88.3707 94.617 88.3707 94.2777 88.485 94.0515C88.9422 93.0334 89.5136 92.3547 90.6566 92.4678C91.6853 92.581 92.3711 93.2597 92.5997 94.5039C93.0568 97.5581 93.514 100.725 94.0855 103.779C94.5427 106.381 95.1142 108.87 95.5714 111.471C95.8 112.942 95.8 114.525 96.0286 116.109C96.0286 116.675 96.2572 117.24 96.6001 117.806C96.8286 116.561 96.9429 115.204 97.1715 113.96C98.3145 107.625 99.4575 101.178 100.829 94.9564C101.629 91.2236 102.658 87.6039 103.686 84.0973C105.058 79.5727 106.658 75.1611 108.144 70.7496C108.601 69.3922 109.173 67.9217 109.858 66.6775C110.773 64.4151 112.373 63.7364 113.973 64.4151C115.573 64.9807 116.373 66.9037 115.802 68.6004C115.459 69.3922 115.002 70.2972 114.43 70.8627C112.373 72.8988 111.116 75.2743 110.201 77.989C108.83 81.9481 107.573 85.9071 106.315 89.9793C105.744 91.7891 105.515 93.599 104.944 95.4089C104.487 97.1056 103.686 98.5761 103.344 100.273C102.772 102.761 102.429 105.25 101.972 107.738C101.743 109.209 101.286 110.679 101.058 112.15C100.943 112.942 100.943 113.847 100.943 114.752C100.943 115.204 100.829 115.543 100.715 115.996C100.6 116.448 100.372 116.901 100.372 117.353C99.6861 122.444 99.1146 127.421 98.4288 132.511C98.3145 132.963 98.3145 133.529 98.0859 133.981C97.743 134.999 97.0572 135.565 96.1429 135.452C95.2285 135.452 94.7713 134.66 94.657 133.755C93.9712 129.457 93.2854 125.158 92.5997 120.86C92.1425 117.58 91.6853 114.299 91.1138 111.019C90.7709 108.983 90.5423 106.947 90.1994 104.911C90.0851 104.571 89.9708 104.232 89.8565 103.893C89.6279 103.893 89.5136 103.893 89.3993 103.893Z" fill="white"/>
<path d="M112.487 113.733C112.716 110.227 112.83 106.607 113.173 102.987C113.402 100.725 114.202 99.9333 116.373 99.3677C117.288 99.1414 118.088 98.689 119.002 98.3496C119.574 98.1234 120.259 97.7841 120.717 98.5759C121.174 99.3677 121.402 100.159 120.831 100.951C120.602 101.291 120.145 101.743 119.802 101.969C117.745 103.44 117.173 105.589 117.059 107.964C116.945 109.661 116.945 111.245 116.831 112.942C116.716 114.638 115.573 115.996 114.087 116.109C113.63 116.109 113.059 115.656 112.83 115.204C112.373 114.865 112.487 114.299 112.487 113.733Z" fill="white"/>
<path d="M108.601 119.05C108.03 119.502 107.458 119.955 106.887 120.407C105.744 121.199 104.83 120.633 104.83 119.276C104.83 117.24 104.944 115.317 105.058 113.281C105.172 111.471 105.287 109.661 105.401 107.851C105.515 106.042 106.087 104.345 107.801 103.44C109.059 102.761 109.973 103.327 109.859 104.91C109.63 108.191 109.173 111.471 108.944 114.751C108.716 116.109 108.716 117.466 108.601 119.05Z" fill="white"/>
<path d="M136.833 101.404C137.175 98.0105 137.518 94.617 137.861 91.2236C137.975 89.9793 138.318 88.735 139.347 88.0563C139.804 87.717 140.604 87.6039 141.062 87.8301C141.404 88.0563 141.633 88.8481 141.633 89.4137C141.519 92.0154 141.404 94.617 141.29 97.2187C141.176 98.463 141.062 99.7073 140.947 100.952C140.833 102.196 139.004 103.893 137.861 103.666C136.49 103.44 136.833 102.309 136.833 101.404Z" fill="white"/>
<path d="M111.687 94.8431C111.687 95.9743 109.63 98.1235 108.601 98.0104C107.915 98.0104 107.344 97.2186 107.573 96.3136C107.801 95.0694 109.173 93.4858 110.43 93.2595C111.116 93.2595 111.687 93.8251 111.687 94.8431Z" fill="white"/>
<path d="M143.233 80.3645C143.233 81.835 141.519 83.758 140.49 83.758C139.576 83.758 139.119 83.1924 139.119 82.2874C139.233 80.9301 140.833 79.4596 142.09 79.6858C142.662 79.6858 143.005 80.1383 143.233 80.3645Z" fill="white"/>
<path d="M171.465 122.443C173.065 121.086 175.008 120.747 177.065 121.086C179.237 121.425 180.608 123.122 180.723 125.611C180.723 128.552 180.723 131.38 180.723 134.321C180.723 135.565 180.037 136.357 179.122 136.357C178.208 136.357 177.637 135.565 177.637 134.321C177.637 131.493 177.637 128.778 177.637 125.95C177.637 124.932 177.522 123.914 176.494 123.461C175.465 122.896 174.322 123.009 173.408 123.801C173.065 124.027 172.95 124.593 172.95 125.045C172.95 127.986 172.95 131.04 172.95 133.981C172.95 134.434 172.95 135.112 172.722 135.339C172.265 135.791 171.579 136.244 171.007 136.244C170.207 136.244 169.75 135.452 169.75 134.547C169.75 132.624 169.75 130.588 169.75 128.665C169.75 127.647 169.75 126.742 169.75 125.724C169.75 124.253 169.064 123.461 167.693 123.348C167.35 123.348 166.893 123.348 166.55 123.348C165.521 123.348 165.064 123.688 165.178 124.932C165.292 128.099 165.178 131.266 165.178 134.434C165.178 135.339 164.95 136.017 164.15 136.244C163.692 136.357 163.007 136.244 162.549 135.904C162.206 135.678 161.978 134.999 161.978 134.66C161.978 130.701 161.978 126.855 161.978 122.896C161.978 122.557 162.206 122.104 162.435 121.991C165.407 120.634 168.493 120.294 171.465 122.443Z" fill="white"/>
<path d="M199.467 121.539C200.039 121.425 200.496 121.199 201.067 121.086C204.496 120.521 207.125 122.67 207.582 126.629C207.811 128.326 207.582 130.022 207.239 131.719C206.668 134.321 204.954 135.904 202.439 136.47C200.61 136.809 198.782 136.696 197.067 135.904C196.724 135.791 196.381 135.226 196.381 134.886C196.381 128.778 196.381 122.557 196.381 116.448C196.381 115.317 197.067 114.525 197.981 114.525C198.896 114.525 199.467 115.317 199.467 116.448C199.467 117.919 199.467 119.616 199.467 121.539ZM199.467 128.665C199.467 130.248 199.467 131.719 199.467 133.303C199.467 133.981 199.696 134.208 200.267 134.321C202.096 134.66 203.582 133.755 204.153 131.945C204.725 129.796 204.839 127.534 204.153 125.384C203.582 123.575 202.21 122.783 200.382 123.235C199.696 123.348 199.467 123.688 199.467 124.48C199.467 125.724 199.467 127.194 199.467 128.665Z" fill="white"/>
<path d="M194.324 128.665C194.21 129.683 194.095 130.701 193.867 131.606C193.181 134.773 191.124 136.47 188.38 136.47C185.523 136.47 183.694 134.66 182.894 131.379C182.437 129.343 182.437 127.42 183.009 125.384C183.809 122.33 185.866 120.747 188.609 120.86C191.238 120.973 193.295 122.783 193.867 125.724C194.095 126.742 194.21 127.76 194.324 128.665ZM185.637 128.552C185.866 129.909 185.98 131.153 186.323 132.397C186.552 133.529 187.352 134.207 188.495 134.207C189.638 134.207 190.324 133.642 190.666 132.511C191.467 129.909 191.352 127.307 190.666 124.819C190.324 123.801 189.638 123.235 188.495 123.235C187.466 123.235 186.666 123.801 186.437 124.932C185.98 125.95 185.866 127.194 185.637 128.552Z" fill="white"/>
<path d="M224.727 129.909C224.727 132.624 226.098 134.094 228.499 134.094C229.527 134.094 230.67 133.755 231.585 133.416C232.27 133.189 232.842 133.189 233.185 133.981C233.528 134.66 233.185 135.225 232.499 135.565C229.985 136.696 227.47 137.035 224.955 135.791C223.241 134.999 222.327 133.416 221.869 131.606C221.412 129.683 221.412 127.76 221.869 125.724C222.67 122.556 224.841 120.747 227.927 120.973C230.785 121.086 232.613 123.009 232.956 126.402C233.185 128.552 233.185 128.665 231.242 128.891C229.184 129.23 226.899 129.57 224.727 129.909ZM230.213 127.307C230.099 125.837 230.099 124.253 228.842 123.461C227.927 122.896 226.898 122.896 225.984 123.574C224.498 124.706 224.498 126.402 224.384 128.212C226.327 127.873 228.27 127.534 230.213 127.307Z" fill="white"/>
<path d="M219.241 125.384C219.241 128.325 219.241 131.153 219.241 134.094C219.241 135.452 218.669 136.13 217.755 136.244C216.726 136.244 216.155 135.452 216.155 134.094C216.155 128.212 216.155 122.33 216.155 116.448C216.155 115.091 216.84 114.299 217.755 114.299C218.669 114.299 219.241 115.091 219.241 116.448C219.241 119.502 219.241 122.443 219.241 125.384Z" fill="white"/>
<path d="M210.097 128.778C210.097 126.968 210.097 125.045 210.097 123.235C210.097 121.991 210.668 121.312 211.583 121.199C212.497 121.199 213.183 121.991 213.183 123.235C213.183 126.855 213.183 130.588 213.183 134.208C213.183 135.452 212.497 136.244 211.583 136.244C210.668 136.244 210.097 135.452 210.097 134.208C209.983 132.398 210.097 130.588 210.097 128.778Z" fill="white"/>
<path d="M211.583 115.204C212.497 115.204 213.297 115.883 213.297 116.901C213.297 117.806 212.497 118.598 211.583 118.598C210.554 118.598 209.868 117.919 209.868 116.901C209.868 115.996 210.668 115.317 211.583 115.204Z" fill="white"/>
<path d="M199.467 128.665C199.467 127.194 199.467 125.724 199.467 124.253C199.467 123.462 199.696 123.122 200.382 123.009C202.096 122.557 203.582 123.348 204.154 125.158C204.839 127.307 204.725 129.57 204.154 131.719C203.582 133.642 202.21 134.434 200.267 134.094C199.696 133.981 199.467 133.755 199.467 133.076C199.467 131.832 199.467 130.248 199.467 128.665Z" fill="black"/>
<path d="M185.637 128.552C185.866 127.307 185.98 125.95 186.323 124.819C186.552 123.801 187.352 123.122 188.381 123.122C189.409 123.122 190.209 123.688 190.552 124.706C191.352 127.307 191.352 129.909 190.552 132.398C190.209 133.529 189.524 134.094 188.381 134.094C187.238 134.094 186.552 133.416 186.209 132.284C185.98 131.153 185.866 129.796 185.637 128.552Z" fill="black"/>
<path d="M230.213 127.307C228.27 127.647 226.441 127.873 224.498 128.212C224.498 126.403 224.613 124.706 226.099 123.575C227.013 122.896 228.042 122.896 228.956 123.462C230.099 124.253 230.099 125.724 230.213 127.307Z" fill="black"/>
</g>
<defs>
<filter id="filter0_d_143_1678" x="0.00756359" y="0.860499" width="316.996" height="210.846" filterUnits="userSpaceOnUse" color-interpolation-filters="sRGB">
<feFlood flood-opacity="0" result="BackgroundImageFix"/>
<feColorMatrix in="SourceAlpha" type="matrix" values="0 0 0 0 0 0 0 0 0 0 0 0 0 0 0 0 0 0 127 0" result="hardAlpha"/>
<feOffset/>
<feGaussianBlur stdDeviation="7.99761"/>
<feColorMatrix type="matrix" values="0 0 0 0 0 0 0 0 0 0 0 0 0 0 0 0 0 0 0.25 0"/>
<feBlend mode="normal" in2="BackgroundImageFix" result="effect1_dropShadow_143_1678"/>
<feBlend mode="normal" in="SourceGraphic" in2="effect1_dropShadow_143_1678" result="shape"/>
</filter>
<clipPath id="clip0_143_1678">
<rect width="183.218" height="100.334" fill="white" transform="translate(66.6543 55.8184)"/>
</clipPath>
</defs>
</svg>
